<svg xmlns="http://www.w3.org/2000/svg" xmlns:xlink="http://www.w3.org/1999/xlink" width="108" height="67">
  <defs>
    <path id="a" d="M0 .17h13.603v16.154H0z"/>
    <path id="c" d="M.43.17h14.332v16.154H.43z"/>
  </defs>
  <g fill="none" fill-rule="evenodd">
    <path fill="#0071BC" d="M35.26 36h36V0h-36z"/>
    <path fill="#084E8A" d="M47.26 36h12V18h-12z"/>
    <g transform="translate(0 44.886)">
      <mask id="b" fill="#fff">
        <use xlink:href="#a"/>
      </mask>
      <path fill="#3E4E57" d="M6.889.17c3.59 0 6.188 1.604 6.188 4.694H9.02c-.088-.816-.803-1.618-2.19-1.618-1.357 0-2.101.627-2.101 1.546 0 1.428 2.495 1.603 4.13 1.88 2.875.467 4.744 1.692 4.744 4.433 0 3.222-2.51 5.22-6.977 5.22-4.276 0-6.626-1.97-6.626-4.74h4.51c.102.948.89 1.648 2.335 1.648 1.59 0 2.262-.7 2.262-1.589 0-1.327-1.897-1.443-3.838-1.808C2.539 9.296.336 8.174.336 5.141.336 1.555 3.4.17 6.889.17" mask="url(#b)"/>
    </g>
    <path fill="#3E4E57" d="M16.062 41.731h4.495v3.85h3.415v3.528h-3.415v6.531c0 1.356.671 1.823 2.102 1.823.57 0 1.11-.03 1.401-.058v3.382c-.35.073-1.43.175-2.525.175-3.984 0-5.575-1.225-5.575-4.476v-7.377h-2.38V45.58h2.482v-3.849zm17.682 14.055V54.27h-2.408c-1.46 0-2.233.729-2.233 1.764 0 1.21 1.05 1.823 2.175 1.823 1.313 0 2.466-.846 2.466-2.07m-9.224.612c0-2.829 1.97-4.68 5.59-4.68h3.634v-1.298c0-1.24-.846-1.88-2.16-1.88-1.328 0-2.014.655-2.13 1.545h-4.365c.117-2.508 1.78-4.972 6.568-4.972 3.693 0 6.67 1.414 6.67 5.467v10.337h-4.364v-1.91h-.219c-.525 1.065-1.78 2.143-4.072 2.143-3.05 0-5.152-1.778-5.152-4.752m25.081 3.747l-.365.962c-1.43 3.776-3.516 5.278-7.253 5.278-.832 0-1.912-.088-2.409-.204V62.93c.263.059.861.102 1.329.102 1.75 0 2.583-.568 2.758-1.924l.058-.277-5.18-15.484h5.137l2.773 11.737h.19l2.874-11.738h4.933c-1.635 5.497-4.802 14.667-4.846 14.799m11.524-15.089c3.59 0 6.188 1.604 6.188 4.694h-4.057c-.088-.816-.803-1.618-2.19-1.618-1.357 0-2.101.627-2.101 1.546 0 1.428 2.495 1.603 4.13 1.88 2.875.467 4.744 1.692 4.744 4.433 0 3.222-2.51 5.22-6.977 5.22-4.276 0-6.626-1.97-6.626-4.74h4.51c.102.948.89 1.648 2.335 1.648 1.59 0 2.262-.7 2.262-1.589 0-1.327-1.897-1.443-3.838-1.808-2.73-.54-4.933-1.662-4.933-4.695 0-3.586 3.064-4.971 6.553-4.971m16.47 10.73V54.27h-2.408c-1.46 0-2.234.729-2.234 1.764 0 1.21 1.052 1.823 2.175 1.823 1.314 0 2.467-.846 2.467-2.07m-9.224.612c0-2.829 1.97-4.68 5.59-4.68h3.634v-1.298c0-1.24-.846-1.88-2.16-1.88-1.328 0-2.014.655-2.131 1.545h-4.364c.117-2.508 1.78-4.972 6.568-4.972 3.692 0 6.67 1.414 6.67 5.467v10.337h-4.364v-1.91h-.219c-.525 1.065-1.78 2.143-4.072 2.143-3.05 0-5.152-1.778-5.152-4.752m17.156-7.29h-2.51V45.58h2.51v-1.53c0-3.164 1.562-4.447 5.634-4.447.846 0 1.897.073 2.452.145v3.194c-.277-.044-.993-.073-1.474-.073-1.46 0-2.117.422-2.117 1.574v1.137h3.43v3.529h-3.313v11.81h-4.612V49.108z"/>
    <g transform="translate(93 44.886)">
      <mask id="d" fill="#fff">
        <use xlink:href="#c"/>
      </mask>
      <path fill="#3E4E57" d="M10.31 6.57v-.087c0-1.765-1.036-2.945-2.641-2.945s-2.715 1.18-2.715 2.945v.087h5.357zM.43 8.961V7.49C.43 2.605 3.655.17 7.625.17c4.218 0 7.137 2.77 7.137 7.32v1.72H4.954v.715c0 1.778 1.212 2.916 2.86 2.916 1.402 0 2.467-.671 2.584-1.648h4.262c-.102 2.114-2.058 5.132-6.83 5.132-4.423 0-7.4-2.493-7.4-7.363z" mask="url(#d)"/>
    </g>
  </g>
</svg>