<?xml version="1.0" encoding="UTF-8"?>
<svg width="160px" height="160px" viewBox="0 0 160 160" version="1.1" xmlns="http://www.w3.org/2000/svg" xmlns:xlink="http://www.w3.org/1999/xlink">
    <!-- Generator: sketchtool 64 (101010) - https://sketch.com -->
    <title>63459531-1FEB-4C29-96DA-4978A439550C</title>
    <desc>Created with sketchtool.</desc>
    <defs>
        <path d="M4.21836478,0.753710692 C1.95220126,0.753710692 0.11672956,2.59119497 0.11672956,4.8563522 L0.11672956,4.8563522 L0.11672956,155.645786 C0.11672956,157.910943 1.95220126,159.747421 4.21836478,159.747421 L4.21836478,159.747421 L154.930314,159.747421 C157.195472,159.747421 159.03195,157.910943 159.03195,155.645786 L159.03195,155.645786 L159.03195,4.8563522 C159.03195,2.59119497 157.195472,0.753710692 154.930314,0.753710692 L154.930314,0.753710692 L4.21836478,0.753710692 Z" id="path-1"></path>
        <path d="M4.21836478,0.753710692 C1.95220126,0.753710692 0.11672956,2.59119497 0.11672956,4.8563522 L0.11672956,4.8563522 L0.11672956,70.6706918 C43.238239,36.4437736 116.029182,37.5315723 159.03195,63.8621384 L159.03195,63.8621384 L159.03195,4.8563522 C159.03195,2.59119497 157.195472,0.753710692 154.930314,0.753710692 L154.930314,0.753710692 L4.21836478,0.753710692 Z" id="path-3"></path>
        <path d="M0.11672956,1.28301887 C1.36352201,5.01836478 2.67572327,8.33408805 3.90842767,11.4455346 L3.90842767,11.4455346 C7.19396226,19.749434 10.0337107,26.9192453 10.0337107,37.5416352 L10.0337107,37.5416352 C10.0337107,51.3137107 5.22867925,64.4840252 0.11672956,77.2447799 L0.11672956,77.2447799 L0.11672956,78.1977358 C5.35446541,65.1622642 10.3587421,51.6981132 10.3587421,37.5416352 L10.3587421,37.5416352 C10.3587421,26.7763522 7.49886792,19.5501887 4.18515723,11.1828931 L4.18515723,11.1828931 C2.86188679,7.83597484 1.44503145,4.25358491 0.11672956,0.168050314 L0.11672956,0.168050314 L0.11672956,1.28301887 Z" id="path-5"></path>
        <path d="M26.5922013,0.753710692 C24.3451572,25.8344654 21.5527044,52.6249057 13.6291824,57.0083019 L13.6291824,57.0083019 C8.92981132,54.5418868 5.26188679,47.6528302 2.73106918,36.5403774 L2.73106918,36.5403774 C1.76704403,31.4586164 0.895597484,26.2249057 0.11672956,20.9469182 L0.11672956,20.9469182 L0.11672956,23.1597484 C0.81509434,27.7403774 1.58289308,32.2757233 2.42113208,36.6953459 L2.42113208,36.6953459 C4.99924528,48.0150943 8.7527044,55.0208805 13.5788679,57.5134591 L13.5788679,57.5134591 L13.6322013,57.5406289 L13.6845283,57.5114465 C21.836478,53.1179874 24.6550943,26.0558491 26.9212579,0.753710692 L26.9212579,0.753710692 L26.5922013,0.753710692 Z" id="path-7"></path>
        <path d="M30.6183648,0.753710692 C25.3484277,64.236478 16.32,95.4908176 9.43396226,119.320755 L9.43396226,119.320755 C5.26389937,133.744906 1.89987421,145.393711 0.700377358,159.747421 L0.700377358,159.747421 L1.02842767,159.747421 C2.22993711,145.491321 5.57886792,133.888805 9.72981132,119.526038 L9.72981132,119.526038 C16.6279245,95.6578616 25.6714465,64.3501887 30.9474214,0.753710692 L30.9474214,0.753710692 L30.6183648,0.753710692 Z" id="path-9"></path>
        <path d="M15.2372327,0.251572327 C15.2372327,2.44427673 15.2674214,4.67522013 15.2955975,6.82968553 L15.2955975,6.82968553 C15.3257862,8.98616352 15.3559748,11.2150943 15.3559748,13.4077987 L15.3559748,13.4077987 C15.3559748,30.7371069 13.5366038,33.9119497 11.7766038,36.9831447 L11.7766038,36.9831447 C11.1798742,38.0236478 10.6153459,39.0067925 10.1283019,40.518239 L10.1283019,40.518239 C6.2118239,53.3293082 1.65937107,106.500629 0.235471698,136.602767 L0.235471698,136.602767 L0.559496855,136.602767 C1.98138365,106.546918 6.51874214,53.5023899 10.4211321,40.7386164 L10.4211321,40.7386164 C10.8860377,39.2925786 11.436478,38.3315723 12.0201258,37.3172327 L12.0201258,37.3172327 C13.8193711,34.1766038 15.68,30.9303145 15.68,13.4077987 L15.68,13.4077987 C15.68,11.2100629 15.6508176,8.97811321 15.6216352,6.82062893 L15.6216352,6.82062893 C15.5924528,4.66616352 15.5622642,2.43924528 15.5622642,0.251572327 L15.5622642,0.251572327 L15.2372327,0.251572327 Z" id="path-11"></path>
        <path d="M21.0767296,0.753710692 C19.2402516,26.0095597 14.8930818,41.6603774 10.6545912,56.9116981 L10.6545912,56.9116981 C5.34339623,76.0241509 0.328050314,94.0769811 0.328050314,129.166289 L0.328050314,129.166289 C0.328050314,138.574088 0.664150943,148.511195 1.37257862,159.747421 L1.37257862,159.747421 L1.69861635,159.747421 C0.990188679,148.509182 0.652075472,138.570063 0.652075472,129.166289 L0.652075472,129.166289 C0.652075472,94.1816352 5.65534591,76.1750943 10.9524528,57.1119497 L10.9524528,57.1119497 C15.2050314,41.8103145 19.5662893,26.111195 21.4047799,0.753710692 L21.4047799,0.753710692 L21.0767296,0.753710692 Z" id="path-13"></path>
        <path d="M7.67496855,0.753710692 C7.78062893,3.44352201 7.84503145,6.13433962 7.84503145,8.82012579 L7.84503145,8.82012579 C7.84503145,17.5205031 6.9081761,35.488805 4.01408805,35.488805 L4.01408805,35.488805 C1.40981132,35.488805 0.840251572,17.4108176 0.840251572,10.445283 L0.840251572,10.445283 C0.840251572,7.22415094 0.903647799,3.9627673 0.982138365,0.753710692 L0.982138365,0.753710692 L0.656100629,0.753710692 C0.578616352,3.96075472 0.515220126,7.22113208 0.515220126,10.445283 L0.515220126,10.445283 C0.515220126,11.4877987 0.555471698,35.9919497 4.01408805,35.9919497 L4.01408805,35.9919497 C8.05735849,35.9919497 8.17006289,9.0918239 8.17006289,8.82012579 L8.17006289,8.82012579 C8.17006289,6.13232704 8.10566038,3.44251572 8.00100629,0.753710692 L8.00100629,0.753710692 L7.67496855,0.753710692 Z" id="path-15"></path>
        <path d="M14.0155975,0.753710692 C11.3006289,25.0968553 8.29383648,30.956478 6.03169811,30.956478 L6.03169811,30.956478 C4.07949686,30.956478 2.37283019,15.4405031 0.948930818,0.753710692 L0.948930818,0.753710692 L0.623899371,0.753710692 C2.44830189,19.5018868 3.91849057,31.4606289 6.03169811,31.4606289 L6.03169811,31.4606289 C9.2991195,31.4606289 12.0845283,21.1552201 14.3496855,0.753710692 L14.3496855,0.753710692 L14.0155975,0.753710692 Z" id="path-17"></path>
        <path d="M0.868427673,0.753710692 C0.853333333,2.90616352 0.842264151,5.07572327 0.842264151,7.23320755 L0.842264151,7.23320755 C0.842264151,28.8845283 4.44578616,56.8593711 7.93056604,83.9124528 L7.93056604,83.9124528 C11.3771069,110.672704 14.9403774,138.339623 14.9896855,159.747421 L14.9896855,159.747421 L15.3137107,159.747421 C15.2654088,138.289308 11.6991195,110.599245 8.24855346,83.8138365 L8.24855346,83.8138365 C4.76779874,56.7838994 1.1672956,28.8352201 1.1672956,7.23320755 L1.1672956,7.23320755 C1.1672956,5.07672956 1.17937107,2.90716981 1.19446541,0.753710692 L1.19446541,0.753710692 L0.868427673,0.753710692 Z" id="path-19"></path>
        <path d="M13.0344654,0.753710692 C13.8384906,12.9167296 14.2983648,25.005283 14.2983648,30.7833962 L14.2983648,30.7833962 C14.2983648,37.2236478 14.1283019,43.7645283 13.9813836,49.5325786 L13.9813836,49.5325786 C13.3937107,64.0573585 10.514717,73.6442767 9.88779874,73.7469182 L9.88779874,73.7469182 C6.38289308,73.7469182 2.39194969,33.4802516 0.925786164,0.753710692 L0.925786164,0.753710692 L0.602767296,0.753710692 C2.02666667,32.8915723 5.85559748,74.2490566 9.88779874,74.2490566 L9.88779874,74.2490566 C10.9091824,74.2490566 13.728805,63.8249057 14.3054088,49.5587421 L14.3054088,49.5587421 C14.4533333,43.7816352 14.6233962,37.2327044 14.6233962,30.7833962 L14.6233962,30.7833962 C14.6233962,25.005283 14.163522,12.9247799 13.3594969,0.753710692 L13.3594969,0.753710692 L13.0344654,0.753710692 Z" id="path-21"></path>
        <path d="M3.88125786,46.8548428 C1.75396226,69.9350943 0.447798742,96.4337107 0.447798742,105.270943 L0.447798742,105.270943 C0.447798742,106.701887 0.468930818,108.085535 0.511194969,109.432956 L0.511194969,109.432956 L0.836226415,109.432956 C0.793962264,108.086541 0.772830189,106.701887 0.772830189,105.270943 L0.772830189,105.270943 C0.772830189,87.3398742 5.88075472,1.09283019 13.4883019,1.09283019 L13.4883019,1.09283019 C16.3441509,1.09283019 16.5625157,24.1499371 16.7738365,46.4472956 L16.7738365,46.4472956 C16.8895597,58.758239 17.0113208,71.4857862 17.5818868,80.5212579 L17.5818868,80.5212579 C18.2540881,90.9333333 20.2877987,100.332075 22.8588679,109.432956 L22.8588679,109.432956 L23.2150943,109.432956 C20.6259119,100.305912 18.5781132,90.8930818 17.9059119,80.4719497 L17.9059119,80.4719497 C17.3353459,71.4586164 17.2155975,58.7401258 17.0998742,46.4392453 L17.0998742,46.4392453 C16.8754717,22.8598742 16.6651572,0.588679245 13.4883019,0.588679245 L13.4883019,0.588679245 C9.07371069,0.588679245 5.82742138,25.7489308 3.88125786,46.8548428 L3.88125786,46.8548428 Z" id="path-23"></path>
        <path d="M0.970062893,4.7527044 C0.526289308,6.90314465 0.0704402516,9.12503145 0.0704402516,11.5552201 L0.0704402516,11.5552201 C0.235471698,17.4571069 0.383396226,23.4998742 0.525283019,29.3444025 L0.525283019,29.3444025 C0.932830189,46.0930818 1.35748428,63.3942138 2.27522013,80.250566 L2.27522013,80.250566 L2.60025157,80.250566 C1.68251572,63.3932075 1.25786164,46.0810063 0.850314465,29.325283 L0.850314465,29.325283 C0.707421384,23.4797484 0.561509434,17.4369811 0.395471698,11.5441509 L0.395471698,11.5441509 C0.395471698,9.2045283 0.84427673,7.01886792 1.27798742,4.90566038 L1.27798742,4.90566038 C1.58993711,3.39119497 1.88377358,1.95924528 2.02062893,0.492075472 L2.02062893,0.492075472 L1.69761006,0.420628931 C1.56578616,1.84553459 1.27597484,3.25735849 0.970062893,4.7527044 L0.970062893,4.7527044 Z" id="path-25"></path>
        <path d="M5.28201258,0.753710692 C4.83421384,15.1969811 4.48402516,29.7871698 4.48402516,41.7720755 L4.48402516,41.7720755 C4.48402516,50.9866667 3.27144654,60.5272956 2.0991195,69.7549686 L2.0991195,69.7549686 C1.10893082,77.561761 0.172075472,84.9348428 0.172075472,90.970566 L0.172075472,90.970566 C0.172075472,101.379623 2.50062893,111.39522 4.7527044,121.079748 L4.7527044,121.079748 C7.0118239,130.796478 9.14616352,139.975849 9.14616352,149.546667 L9.14616352,149.546667 C9.14616352,153.130063 8.90666667,156.497107 8.42062893,159.747421 L8.42062893,159.747421 L8.75471698,159.747421 C9.23471698,156.496101 9.47018868,153.127044 9.47018868,149.546667 L9.47018868,149.546667 C9.47018868,139.887296 7.2281761,130.238994 5.05761006,120.908679 L5.05761006,120.908679 C2.81559748,111.263396 0.497106918,101.290063 0.497106918,90.970566 L0.497106918,90.970566 C0.497106918,84.9831447 1.42993711,77.6342138 2.4191195,69.8535849 L2.4191195,69.8535849 C3.59446541,60.6027673 4.8090566,51.0359748 4.8090566,41.7720755 L4.8090566,41.7720755 C4.8090566,29.7901887 5.15924528,15.1989937 5.60704403,0.753710692 L5.60704403,0.753710692 L5.28201258,0.753710692 Z" id="path-27"></path>
        <path d="M13.8857862,0.753710692 C13.4077987,11.6940881 12.8372327,22.8508176 12.212327,33.1532075 L12.212327,33.1532075 C10.0065409,69.4611321 7.5109434,90.2842767 5.3645283,90.2842767 L5.3645283,90.2842767 C4.6118239,90.2842767 4.28981132,89.227673 4.00503145,88.2948428 L4.00503145,88.2948428 C3.96477987,88.1589937 3.92352201,88.0281761 3.89031447,87.9265409 L3.89031447,87.9265409 C1.20754717,77.1139623 1.26289308,69.5828931 1.31320755,62.9373585 L1.31320755,62.9373585 C1.32025157,62.048805 1.32528302,61.1753459 1.32528302,60.3089308 L1.32528302,60.3089308 C1.32528302,45.1210063 0.981132075,29.7428931 0.649056604,14.8709434 L0.649056604,14.8709434 C0.545408805,10.208805 0.440754717,5.49433962 0.346163522,0.753710692 L0.346163522,0.753710692 L0.0211320755,0.753710692 C0.114716981,5.49836478 0.220377358,10.2208805 0.325031447,14.8880503 L0.325031447,14.8880503 C0.656100629,29.7569811 1.00025157,45.1300629 1.00025157,60.3089308 L1.00025157,60.3089308 C1.00025157,61.172327 0.995220126,62.0457862 0.988176101,62.9313208 L0.988176101,62.9313208 C0.938867925,69.6221384 0.881509434,77.2045283 3.59446541,88.1298113 L3.59446541,88.1298113 C3.6327044,88.250566 3.6709434,88.3783648 3.71220126,88.511195 L3.71220126,88.511195 C4.00503145,89.471195 4.4045283,90.789434 5.3645283,90.789434 L5.3645283,90.789434 C8.40050314,90.789434 10.9393711,59.4727044 12.5363522,33.2015094 L12.5363522,33.2015094 C13.1612579,22.8850314 13.7348428,11.711195 14.2118239,0.753710692 L14.2118239,0.753710692 L13.8857862,0.753710692 Z" id="path-29"></path>
        <path d="M9.17031447,0.753710692 C8.8472956,5.08377358 8.49811321,9.56578616 8.13786164,14.1987421 L8.13786164,14.1987421 C6.76930818,31.7846541 5.21761006,51.718239 4.52025157,71.9033962 L4.52025157,71.9033962 C3.98993711,79.2955975 3.13559748,84.5514465 2.30943396,89.6342138 L2.30943396,89.6342138 C1.21559748,96.3562264 0.183144654,102.706918 0.183144654,112.875472 L0.183144654,112.875472 C0.183144654,122.252075 1.09383648,131.521006 1.9763522,140.484025 L1.9763522,140.484025 C2.44427673,145.254843 2.92930818,150.187673 3.27044025,155.073208 L3.27044025,155.073208 L3.59345912,155.018868 C3.25132075,150.12327 2.76628931,145.184403 2.2963522,140.406541 L2.2963522,140.406541 C1.41786164,131.463648 0.50918239,122.21283 0.50918239,112.875472 L0.50918239,112.875472 C0.50918239,102.769308 1.53660377,96.448805 2.62440252,89.7569811 L2.62440252,89.7569811 C3.45358491,84.6581132 4.3109434,79.3851572 4.84427673,71.9456604 L4.84427673,71.9456604 C5.54163522,51.7625157 7.09232704,31.8379874 8.45987421,14.2591195 L8.45987421,14.2591195 C8.82314465,9.60503145 9.17333333,5.10188679 9.49735849,0.753710692 L9.49735849,0.753710692 L9.17031447,0.753710692 Z" id="path-31"></path>
        <path d="M6.62641509,0.753710692 C6.64654088,1.27396226 6.66666667,1.79421384 6.68679245,2.31144654 L6.68679245,2.31144654 C7.14867925,14.2249057 7.62666667,26.5438994 7.62666667,38.6284277 L7.62666667,38.6284277 C7.62666667,50.7371069 6.95245283,63.9144654 5.77509434,74.7813836 L5.77509434,74.7813836 C4.60679245,85.568805 3.34691824,90.4825157 2.66968553,90.4825157 L2.66968553,90.4825157 C1.66339623,90.4825157 1.21257862,85.2085535 1.21257862,81.4651572 L1.21257862,81.4651572 C1.21257862,73.3363522 1.17735849,65.0737107 1.14415094,57.0837736 L1.14415094,57.0837736 C1.1109434,49.0928302 1.07471698,40.8301887 1.07471698,32.7054088 L1.07471698,32.7054088 C1.07471698,22.688805 1.12603774,11.9275472 1.33333333,0.753710692 L1.33333333,0.753710692 L1.00830189,0.753710692 C0.801006289,11.9275472 0.749685535,22.688805 0.749685535,32.7054088 L0.749685535,32.7054088 C0.749685535,40.8332075 0.78490566,49.0968553 0.819119497,57.0877987 L0.819119497,57.0877987 C0.852327044,65.0767296 0.88754717,73.3393711 0.88754717,81.4651572 L0.88754717,81.4651572 C0.88754717,81.8535849 0.908679245,90.9856604 2.66968553,90.9856604 L2.66968553,90.9856604 C4.87748428,90.9856604 7.9527044,64.6027673 7.9527044,38.6284277 L7.9527044,38.6284277 C7.9527044,26.528805 7.47371069,14.2027673 7.01081761,2.28125786 L7.01081761,2.28125786 C6.99169811,1.77509434 6.97157233,1.26389937 6.95245283,0.753710692 L6.95245283,0.753710692 L6.62641509,0.753710692 Z" id="path-33"></path>
        <path d="M4.6118239,34.1695597 C2.17660377,38.9222642 0.252578616,42.6757233 0.252578616,55.0661635 L0.252578616,55.0661635 C0.252578616,60.4508176 0.762767296,65.8797484 1.34842767,71.1939623 L1.34842767,71.1939623 L1.67647799,71.1939623 C1.09081761,65.8727044 0.579622642,60.4387421 0.579622642,55.0661635 L0.579622642,55.0661635 C0.579622642,42.8508176 2.47144654,39.1577358 4.86742138,34.483522 L4.86742138,34.483522 C7.52100629,29.3051572 10.7934591,22.9212579 13.0515723,3.08125786 L13.0515723,3.08125786 C13.1099371,27.6115723 13.8938365,50.0558491 15.4344654,71.1939623 L15.4344654,71.1939623 L15.7625157,71.1939623 C14.1584906,49.1984906 13.3725786,25.7841509 13.3725786,0.0754716981 L13.3725786,0.0754716981 L13.0495597,0.0342138365 C10.803522,22.0920755 7.37106918,28.7889308 4.6118239,34.1695597 L4.6118239,34.1695597 Z" id="path-35"></path>
        <path d="M1.69358491,1.18742138 C2.78138365,5.26188679 3.30968553,9.68955975 3.30968553,14.7230189 L3.30968553,14.7230189 C3.30968553,20.907673 2.51069182,27.2352201 1.73685535,33.3534591 L1.73685535,33.3534591 C1.30616352,36.7537107 0.863396226,40.2515723 0.568553459,43.6789937 L0.568553459,43.6789937 C0.428679245,41.3826415 0.360251572,38.9293082 0.360251572,36.2425157 L0.360251572,36.2425157 C0.360251572,32.7949686 0.471949686,29.3001258 0.579622642,25.9220126 L0.579622642,25.9220126 C0.687295597,22.5157233 0.798993711,18.994717 0.798993711,15.4948428 L0.798993711,15.4948428 C0.798993711,14.0910692 0.781886792,12.7899371 0.746666667,11.5210063 L0.746666667,11.5210063 L0.42163522,11.5431447 C0.456855346,12.8050314 0.473962264,14.0981132 0.473962264,15.4948428 L0.473962264,15.4948428 C0.473962264,18.9826415 0.36327044,22.4966038 0.255597484,25.8948428 L0.255597484,25.8948428 C0.146918239,29.2810063 0.0362264151,32.7808805 0.0362264151,36.2425157 L0.0362264151,36.2425157 C0.0362264151,39.8118239 0.155974843,42.9735849 0.401509434,45.9059119 L0.401509434,45.9059119 L0.58163522,48.0412579 L0.725534591,45.8998742 C0.998238994,41.8133333 1.53459119,37.5607547 2.05584906,33.4490566 L2.05584906,33.4490566 C2.8327044,27.3066667 3.63471698,20.9559748 3.63471698,14.7230189 L3.63471698,14.7230189 C3.63471698,9.62213836 3.09937107,5.13207547 1.99345912,0.994213836 L1.99345912,0.994213836 L1.69358491,1.18742138 Z" id="path-37"></path>
        <path d="M3.03295597,0.753710692 C3.12352201,3.52503145 3.17886792,5.68050314 3.17886792,7.17081761 L3.17886792,7.17081761 C3.17886792,21.631195 1.54062893,43.7745912 0.846289308,46.5177358 L0.846289308,46.5177358 C0.790943396,46.0981132 0.724528302,45.0576101 0.724528302,42.4915723 L0.724528302,42.4915723 C0.724528302,41.318239 0.866415094,40.1167296 1.16830189,38.7069182 L1.16830189,38.7069182 L0.859371069,38.5469182 C0.545408805,40.0100629 0.398490566,41.2638994 0.398490566,42.4915723 L0.398490566,42.4915723 C0.398490566,44.0191195 0.422641509,45.1813836 0.469937107,45.9441509 L0.469937107,45.9441509 C0.522264151,46.7844025 0.592704403,47.2412579 0.823144654,47.2412579 L0.823144654,47.2412579 C0.997232704,47.2412579 1.21459119,47.2412579 1.66842767,42.9142138 L1.66842767,42.9142138 C1.93811321,40.3451572 2.23396226,36.7265409 2.5036478,32.7225157 L2.5036478,32.7225157 C3.13056604,23.398239 3.50389937,13.8465409 3.50389937,7.17081761 L3.50389937,7.17081761 C3.50389937,5.67446541 3.44855346,3.52201258 3.35798742,0.753710692 L3.35798742,0.753710692 L3.03295597,0.753710692 Z" id="path-39"></path>
        <path d="M0.147924528,0.753710692 C1.22566038,7.66289308 2.60025157,13.1189937 4.18716981,19.4254088 L4.18716981,19.4254088 C8.55949686,36.7899371 14.5479245,60.5715723 20.9750943,136.931824 L20.9750943,136.931824 C21.5859119,144.884528 21.728805,152.793962 21.7549686,159.747421 L21.7549686,159.747421 L22.08,159.747421 C22.0538365,152.777862 21.9099371,144.850314 21.2971069,136.87044 L21.2971069,136.87044 C14.8669182,60.4457862 8.86842767,36.6319497 4.49006289,19.2422642 L4.49006289,19.2422642 C2.88100629,12.8493082 1.52050314,7.44754717 0.459874214,0.753710692 L0.459874214,0.753710692 L0.147924528,0.753710692 Z" id="path-41"></path>
        <path d="M2.22289308,1.4490566 C2.22289308,6.53786164 1.75295597,11.6236478 1.2991195,16.5403774 L1.2991195,16.5403774 C0.846289308,21.4349686 0.37836478,26.4945912 0.37836478,31.5361006 L0.37836478,31.5361006 C0.37836478,37.9974843 1.91597484,50.5539623 3.69710692,65.0908176 L3.69710692,65.0908176 C4.64704403,72.8271698 5.65937107,81.1149686 6.5408805,89.3071698 L6.5408805,89.3071698 L6.8709434,89.3071698 C5.98641509,81.0837736 4.9690566,72.7627673 4.01710692,64.998239 L4.01710692,64.998239 C2.23899371,50.4855346 0.703396226,37.951195 0.703396226,31.5361006 L0.703396226,31.5361006 C0.703396226,26.5308176 1.17031447,21.4893082 1.62113208,16.6138365 L1.62113208,16.6138365 C2.03672956,12.1116981 2.46641509,7.46968553 2.53786164,2.80050314 L2.53786164,2.80050314 C6.81861635,20.6490566 9.13308176,33.8555975 9.13308176,51.3428931 L9.13308176,51.3428931 C9.13308176,53.4037736 9.11295597,55.5099371 9.09383648,57.5446541 L9.09383648,57.5446541 C9.0727044,59.627673 9.05157233,61.7831447 9.05157233,63.9436478 L9.05157233,63.9436478 C9.05157233,68.052327 9.12503145,72.2757233 9.1954717,76.3602516 L9.1954717,76.3602516 C9.26792453,80.4910692 9.34138365,84.7637736 9.34138365,88.9680503 L9.34138365,88.9680503 C9.34138365,89.081761 9.34138365,89.1944654 9.34138365,89.3071698 L9.34138365,89.3071698 L9.66742138,89.3071698 C9.66742138,89.1944654 9.66742138,89.0827673 9.66742138,88.9680503 L9.66742138,88.9680503 C9.66742138,84.7557233 9.59396226,80.4810063 9.52150943,76.3461635 L9.52150943,76.3461635 C9.45006289,72.2666667 9.37660377,68.045283 9.37660377,63.9436478 L9.37660377,63.9436478 C9.37660377,61.7871698 9.39773585,59.6337107 9.41886792,57.5506918 L9.41886792,57.5506918 C9.43798742,55.5149686 9.45811321,53.4077987 9.45811321,51.3428931 L9.45811321,51.3428931 C9.45811321,33.3685535 7.02691824,19.9104403 2.53786164,1.36050314 L2.53786164,1.36050314 L2.22289308,0.0593710692 L2.22289308,1.4490566 Z" id="path-43"></path>
        <path d="M0.845283019,0.753710692 C1.26289308,4.47798742 1.31220126,8.28981132 1.31220126,12.1730818 L1.31220126,12.1730818 L1.31119497,14.3738365 C1.31119497,26.6787421 2.46943396,30.4231447 3.40125786,33.4309434 L3.40125786,33.4309434 C4.0754717,35.6115723 4.6591195,37.4953459 4.6591195,42.0689308 L4.6591195,42.0689308 C4.6591195,45.7821384 4.19119497,49.5768553 3.69610063,53.5949686 L3.69610063,53.5949686 C3.19798742,57.631195 2.68477987,61.805283 2.68477987,65.9079245 L2.68477987,65.9079245 C2.68477987,70.0548428 3.05811321,74.1122013 3.45459119,78.4080503 L3.45459119,78.4080503 L3.50893082,78.9937107 C5.04855346,90.9212579 5.56578616,102.155472 6.06389937,113.019371 L6.06389937,113.019371 C6.78943396,128.809057 7.47874214,143.739371 11.109434,159.747421 L11.109434,159.747421 L11.4525786,159.747421 C7.8027673,143.739371 7.1154717,128.79195 6.38893082,112.983145 L6.38893082,112.983145 C5.88880503,102.106164 5.37157233,90.8528302 3.82993711,78.9101887 L3.82993711,78.9101887 L3.77660377,78.3366038 C3.38314465,74.0588679 3.00981132,70.0186164 3.00981132,65.9079245 L3.00981132,65.9079245 C3.00981132,61.8525786 3.52100629,57.7026415 4.01610063,53.6895597 L4.01610063,53.6895597 C4.51320755,49.6472956 4.98515723,45.8304403 4.98515723,42.0689308 L4.98515723,42.0689308 C4.98515723,37.3816352 4.38641509,35.4495597 3.69408805,33.2135849 L3.69408805,33.2135849 C2.77735849,30.2500629 1.63622642,26.5640252 1.63622642,14.3738365 L1.63622642,14.3738365 L1.63823899,12.1730818 C1.63823899,8.29584906 1.58893082,4.48704403 1.17433962,0.753710692 L1.17433962,0.753710692 L0.845283019,0.753710692 Z" id="path-45"></path>
        <path d="M0.593710692,0.753710692 C2.2591195,41.8465409 7.9436478,59.968805 11.565283,71.5079245 L11.565283,71.5079245 C12.4528302,74.3355975 13.2186164,76.7758491 13.7539623,79.0228931 L13.7539623,79.0228931 C16.1922013,90.5227673 17.9008805,102.243019 19.1577358,114.040755 L19.1577358,114.040755 L19.1577358,111.073208 C17.9300629,100.227421 16.3069182,89.4510692 14.0598742,78.8578616 L14.0598742,78.8578616 C13.5184906,76.5786164 12.7486792,74.1272956 11.8571069,71.2865409 L11.8571069,71.2865409 C8.24754717,59.7846541 2.58213836,41.7267925 0.918742138,0.753710692 L0.918742138,0.753710692 L0.593710692,0.753710692 Z" id="path-47"></path>
        <path d="M1.03144654,0.268679245 C0.615849057,0.510188679 0.43572327,2.27522013 0.423647799,5.03647799 L0.423647799,5.03647799 L0.423647799,5.66339623 C0.451823899,12.4095597 1.3554717,24.3109434 2.2772327,34.7622642 L2.2772327,34.7622642 C3.06616352,43.7152201 4.01811321,53.2095597 4.90062893,61.1310692 L4.90062893,61.1310692 L4.99320755,61.1310692 C5.0727044,61.1310692 5.15119497,61.1280503 5.22968553,61.1250314 L5.22968553,61.1250314 C4.34716981,53.1954717 3.39119497,43.6739623 2.60025157,34.6938365 L2.60025157,34.6938365 C0.447798742,10.2883019 0.438742138,1.15320755 1.14616352,0.740628931 L1.14616352,0.740628931 C1.17433962,0.723522013 1.43698113,0.643018868 2.06289308,2.57408805 L2.06289308,2.57408805 C3.68704403,11.1325786 4.92679245,19.968805 6.12528302,28.5122013 L6.12528302,28.5122013 C7.03899371,35.0269182 7.97987421,41.7127044 9.09484277,48.3189937 L9.09484277,48.3189937 L9.09484277,46.3104403 C8.11572327,40.3260377 7.26943396,34.2963522 6.44226415,28.4045283 L6.44226415,28.4045283 C5.2427673,19.8520755 4.00201258,11.0077987 2.36477987,2.39194969 L2.36477987,2.39194969 C1.88880503,0.914716981 1.51345912,0.227421384 1.17433962,0.227421384 L1.17433962,0.227421384 C1.12603774,0.227421384 1.07874214,0.241509434 1.03144654,0.268679245 L1.03144654,0.268679245 Z" id="path-49"></path>
        <path d="M0.78591195,0.753710692 C1.33433962,43.9456604 6.81056604,64.6238994 12.594717,86.4513208 L12.594717,86.4513208 C12.7698113,87.1114465 12.9449057,87.7725786 13.12,88.434717 L13.12,88.434717 L13.12,87.1074214 C13.0445283,86.8256604 12.9700629,86.5438994 12.8955975,86.2611321 L12.8955975,86.2611321 C7.12654088,64.4810063 1.65937107,43.8420126 1.1109434,0.753710692 L1.1109434,0.753710692 L0.78591195,0.753710692 Z" id="path-51"></path>
        <path d="M9.84955975,28.890566 L9.84955975,31.6196226 C9.78616352,31.6186164 9.72578616,31.6095597 9.66440252,31.6095597 L9.66440252,31.6095597 C4.74968553,31.6095597 0.764779874,35.5532075 0.764779874,40.4176101 L0.764779874,40.4176101 C0.764779874,45.2820126 4.74968553,49.2256604 9.66440252,49.2256604 L9.66440252,49.2256604 C9.98742138,49.2256604 10.3054088,49.2065409 10.6193711,49.172327 L10.6193711,49.172327 C13.6301887,61.9451572 25.1984906,71.4626415 39.0208805,71.4626415 L39.0208805,71.4626415 C52.8432704,71.4626415 64.4115723,61.9451572 67.4223899,49.172327 L67.4223899,49.172327 C67.7363522,49.2065409 68.0543396,49.2256604 68.3763522,49.2256604 L68.3763522,49.2256604 C73.2920755,49.2256604 77.2769811,45.2820126 77.2769811,40.4176101 L77.2769811,40.4176101 C77.2769811,35.5532075 73.2920755,31.6095597 68.3763522,31.6095597 L68.3763522,31.6095597 C68.3149686,31.6095597 68.2555975,31.6186164 68.1922013,31.6196226 L68.1922013,31.6196226 L68.1922013,28.890566 C68.1922013,12.9459119 55.1325786,0.0211320755 39.0208805,0.0211320755 L39.0208805,0.0211320755 C22.9091824,0.0211320755 9.84955975,12.9459119 9.84955975,28.890566 L9.84955975,28.890566 Z" id="path-53"></path>
        <path d="M19.0963522,0.312955975 C8.98113208,0.312955975 0.781886792,7.34289308 0.781886792,16.0150943 L0.781886792,16.0150943 L0.781886792,24.9046541 L79.2714465,24.9046541 L79.2714465,16.0150943 C79.2714465,7.34289308 71.0732075,0.312955975 60.9569811,0.312955975 L60.9569811,0.312955975 L19.0963522,0.312955975 Z" id="path-55"></path>
        <path d="M17.0254088,3.95371069 C16.907673,3.9627673 16.7899371,3.97283019 16.6722013,3.9808805 L16.6722013,3.9808805 C16.4890566,3.99295597 16.3059119,4.00100629 16.1207547,4.0090566 L16.1207547,4.0090566 C15.7061635,4.0281761 15.2885535,4.04025157 14.8699371,4.04025157 L14.8699371,4.04025157 C14.4493082,4.04025157 14.0327044,4.0281761 13.6171069,4.0090566 L13.6171069,4.0090566 C13.432956,4.00100629 13.2498113,3.9909434 13.0666667,3.9808805 L13.0666667,3.9808805 C12.9489308,3.97283019 12.8322013,3.9627673 12.7144654,3.95371069 L12.7144654,3.95371069 C8.41861635,3.64176101 4.37937107,2.41710692 0.802012579,0.461886792 L0.802012579,0.461886792 L0.802012579,3.81484277 C0.802012579,11.6085535 6.89811321,17.9260377 14.4181132,17.9260377 L14.4181132,17.9260377 L15.3227673,17.9260377 C22.8407547,17.9260377 28.9368553,11.6085535 28.9368553,3.81484277 L28.9368553,3.81484277 L28.9368553,0.461886792 C25.3594969,2.41710692 21.3222642,3.64176101 17.0254088,3.95371069 L17.0254088,3.95371069 Z" id="path-57"></path>
        <path d="M13.989434,0.437735849 C7.92553459,1.5909434 2.97962264,5.97232704 1.10289308,11.8530818 L1.10289308,11.8530818 L1.00427673,12.1610063 C-0.142893082,15.7554717 -0.0483018868,19.6316981 1.2709434,23.1667925 L1.2709434,23.1667925 L5.65836478,34.9162264 C7.08628931,33.9522013 8.81106918,33.3856604 10.6706918,33.3856604 L10.6706918,33.3856604 L17.4752201,34.9625157 L20.9851572,31.4022642 L20.9851572,31.4012579 C23.6578616,28.8805031 27.1657862,24.327044 30.0306918,16.3411321 L30.0306918,16.3411321 C26.7290566,12.0543396 24.2968553,7.06616352 22.9745912,1.65333333 L22.9745912,1.65333333 C22.932327,1.48628931 22.9041509,1.31823899 22.8860377,1.15119497 L22.8860377,1.15119497 L22.5640252,1.04251572 C20.8090566,0.443773585 18.9725786,0.140880503 17.1330818,0.140880503 L17.1330818,0.140880503 C16.0825157,0.140880503 15.0299371,0.239496855 13.989434,0.437735849 L13.989434,0.437735849 Z" id="path-59"></path>
        <path d="M1.91194969,6.97459119 C0.943899371,7.90641509 0.49509434,9.32125786 0.835220126,10.7099371 L0.835220126,10.7099371 C3.53207547,21.7368553 10.7994969,31.0198742 20.7456604,36.1428931 L20.7456604,36.1428931 L20.7597484,36.1499371 C22.9061635,37.2568553 25.1481761,38.1594969 27.4566038,38.848805 L27.4566038,38.848805 C28.0322013,39.0188679 28.4940881,38.3557233 28.1469182,37.8596226 L28.1469182,37.8596226 L23.3157233,30.9645283 C22.8940881,30.3627673 23.6337107,29.6291824 24.2083019,30.0789937 L24.2083019,30.0789937 C29.5516981,34.2641509 39.930566,41.1924528 50.4301887,41.5416352 L50.4301887,41.5416352 L52.1398742,36.8583648 C54.1061635,31.4767296 54.2178616,25.5728302 52.4598742,20.1177358 L52.4598742,20.1177358 C50.1715723,13.0163522 44.9428931,7.37308176 38.2581132,4.59069182 L38.2581132,4.59069182 L38.2591195,4.58767296 C31.3740881,1.19849057 25.4027673,0.00100628931 20.4015094,0.00100628931 L20.4015094,0.00100628931 C8.33408805,0.00100628931 1.91194969,6.97459119 1.91194969,6.97459119 L1.91194969,6.97459119 Z" id="path-61"></path>
        <path d="M0.968050314,1.14213836 C0.604779874,1.48327044 0.586666667,2.05383648 0.927798742,2.41710692 L0.927798742,2.41710692 C1.13207547,2.63446541 5.71572327,7.41735849 12.9942138,7.41735849 L12.9942138,7.41735849 C13.4802516,7.41735849 13.9823899,7.39622642 14.4925786,7.3509434 L14.4925786,7.3509434 C14.9896855,7.30566038 15.3559748,6.86792453 15.3116981,6.3718239 L15.3116981,6.3718239 C15.2664151,5.87471698 14.8316981,5.51345912 14.3315723,5.55169811 L14.3315723,5.55169811 C7.10339623,6.19572327 2.30943396,1.24981132 2.24301887,1.18037736 L2.24301887,1.18037736 C2.06591195,0.992201258 1.82641509,0.896603774 1.58691824,0.896603774 L1.58691824,0.896603774 C1.3645283,0.896603774 1.14314465,0.978113208 0.968050314,1.14213836 L0.968050314,1.14213836 Z" id="path-63"></path>
        <path d="M1.58691824,0.104654088 C1.08779874,0.104654088 0.68327044,0.50918239 0.68327044,1.0072956 L0.68327044,1.0072956 C0.68327044,1.50641509 1.08779874,1.9109434 1.58691824,1.9109434 L1.58691824,1.9109434 L13.2810063,1.9109434 C13.7801258,1.9109434 14.1846541,1.50641509 14.1846541,1.0072956 L14.1846541,1.0072956 C14.1846541,0.50918239 13.7801258,0.104654088 13.2810063,0.104654088 L13.2810063,0.104654088 L1.58691824,0.104654088 Z" id="path-65"></path>
        <path d="M13.6724528,1.18138365 C13.6251572,1.2327044 8.86138365,6.20075472 1.58490566,5.55169811 L1.58490566,5.55169811 C1.09383648,5.51044025 0.650062893,5.87471698 0.605786164,6.3718239 L0.605786164,6.3718239 C0.560503145,6.86792453 0.927798742,7.30566038 1.42389937,7.3509434 L1.42389937,7.3509434 C1.93509434,7.39622642 2.43421384,7.41735849 2.92226415,7.41735849 L2.92226415,7.41735849 C10.2007547,7.41735849 14.7854088,2.63446541 14.987673,2.41710692 L14.987673,2.41710692 C15.3298113,2.05383648 15.3116981,1.48327044 14.9484277,1.14213836 L14.9484277,1.14213836 C14.7733333,0.978113208 14.5519497,0.896603774 14.3295597,0.896603774 L14.3295597,0.896603774 C14.0900629,0.896603774 13.8495597,0.992201258 13.6724528,1.18138365 L13.6724528,1.18138365 Z" id="path-67"></path>
        <path d="M1.6281761,0.104654088 C1.13006289,0.104654088 0.725534591,0.50918239 0.725534591,1.0072956 L0.725534591,1.0072956 C0.725534591,1.50641509 1.13006289,1.9109434 1.6281761,1.9109434 L1.6281761,1.9109434 L13.3242767,1.9109434 C13.8233962,1.9109434 14.2269182,1.50641509 14.2269182,1.0072956 L14.2269182,1.0072956 C14.2269182,0.50918239 13.8233962,0.104654088 13.3242767,0.104654088 L13.3242767,0.104654088 L1.6281761,0.104654088 Z" id="path-69"></path>
        <path d="M0.890566038,6.23295597 C0.890566038,9.35044025 4.42767296,11.8762264 8.79194969,11.8762264 L8.79194969,11.8762264 C13.1542138,11.8762264 16.692327,9.35044025 16.692327,6.23295597 L16.692327,6.23295597 C16.692327,3.11647799 13.1542138,0.589685535 8.79194969,0.589685535 L8.79194969,0.589685535 C4.42767296,0.589685535 0.890566038,3.11647799 0.890566038,6.23295597 L0.890566038,6.23295597 Z" id="path-71"></path>
        <path d="M0.993207547,7.23924528 C0.993207547,10.8477987 4.94289308,13.7851572 9.79823899,13.7851572 L9.79823899,13.7851572 C14.6515723,13.7851572 18.6012579,10.8477987 18.6012579,7.23924528 L18.6012579,7.23924528 C18.6012579,3.62968553 14.6515723,0.693333333 9.79823899,0.693333333 L9.79823899,0.693333333 C4.94289308,0.693333333 0.993207547,3.62968553 0.993207547,7.23924528 L0.993207547,7.23924528 Z M2.80050314,7.23924528 C2.80050314,4.62490566 5.93811321,2.49761006 9.79823899,2.49761006 L9.79823899,2.49761006 C13.6553459,2.49761006 16.7949686,4.62490566 16.7949686,7.23924528 L16.7949686,7.23924528 C16.7949686,9.85257862 13.6553459,11.9798742 9.79823899,11.9798742 L9.79823899,11.9798742 C5.93811321,11.9798742 2.80050314,9.85257862 2.80050314,7.23924528 L2.80050314,7.23924528 Z" id="path-73"></path>
        <path d="M0.359245283,7.46062893 C0.359245283,11.0983648 4.01509434,14.0467925 8.5272956,14.0467925 L8.5272956,14.0467925 C13.0384906,14.0467925 16.6963522,11.0983648 16.6963522,7.46062893 L16.6963522,7.46062893 C16.6963522,3.82289308 13.0384906,0.874465409 8.5272956,0.874465409 L8.5272956,0.874465409 C4.01509434,0.874465409 0.359245283,3.82289308 0.359245283,7.46062893 L0.359245283,7.46062893 Z" id="path-75"></path>
        <path d="M0.549433962,7.46062893 C0.549433962,11.5421384 4.57962264,14.8628931 9.53358491,14.8628931 L9.53358491,14.8628931 C14.4885535,14.8628931 18.5177358,11.5421384 18.5177358,7.46062893 L18.5177358,7.46062893 C18.5177358,3.3791195 14.4885535,0.0583647799 9.53358491,0.0583647799 L9.53358491,0.0583647799 C4.57962264,0.0583647799 0.549433962,3.38012579 0.549433962,7.46062893 L0.549433962,7.46062893 Z M2.18062893,7.46062893 C2.18062893,4.27773585 5.47924528,1.68955975 9.53358491,1.68955975 L9.53358491,1.68955975 C13.5889308,1.68955975 16.8865409,4.27773585 16.8865409,7.46062893 L16.8865409,7.46062893 C16.8865409,10.6425157 13.5889308,13.2306918 9.53358491,13.2306918 L9.53358491,13.2306918 C5.47924528,13.2306918 2.18062893,10.6425157 2.18062893,7.46062893 L2.18062893,7.46062893 Z" id="path-77"></path>
        <path d="M0.113710692,1.53761006 C0.113710692,2.13836478 0.600754717,2.62540881 1.20050314,2.62540881 L1.20050314,2.62540881 C6.59823899,2.62540881 10.987673,7.01484277 10.987673,12.4115723 L10.987673,12.4115723 C10.987673,13.0113208 11.474717,13.4993711 12.0744654,13.4993711 L12.0744654,13.4993711 C12.6752201,13.4993711 13.1622642,13.0113208 13.1622642,12.4115723 L13.1622642,12.4115723 C13.1622642,5.81735849 7.79572327,0.45081761 1.20050314,0.45081761 L1.20050314,0.45081761 C0.600754717,0.45081761 0.113710692,0.937861635 0.113710692,1.53761006 L0.113710692,1.53761006 Z" id="path-79"></path>
        <path d="M0,1.70566038 C0,2.30641509 0.486037736,2.79345912 1.08679245,2.79345912 L1.08679245,2.79345912 C4.66012579,2.79345912 7.56830189,5.70062893 7.56830189,9.27496855 L7.56830189,9.27496855 C7.56830189,9.87471698 8.05433962,10.361761 8.65408805,10.361761 L8.65408805,10.361761 C9.25484277,10.361761 9.7408805,9.87471698 9.7408805,9.27496855 L9.7408805,9.27496855 C9.7408805,4.50113208 5.85861635,0.618867925 1.08679245,0.618867925 L1.08679245,0.618867925 C0.486037736,0.618867925 0,1.10591195 0,1.70566038 L0,1.70566038 Z" id="path-81"></path>
        <path d="M0,12.4115723 C0,13.0113208 0.487044025,13.4993711 1.08679245,13.4993711 L1.08679245,13.4993711 C1.68754717,13.4993711 2.17358491,13.0113208 2.17358491,12.4115723 L2.17358491,12.4115723 C2.17358491,7.01484277 6.56301887,2.62540881 11.9607547,2.62540881 L11.9607547,2.62540881 C12.5605031,2.62540881 13.0475472,2.13836478 13.0475472,1.53761006 L13.0475472,1.53761006 C13.0475472,0.937861635 12.5605031,0.45081761 11.9607547,0.45081761 L11.9607547,0.45081761 C5.36654088,0.45081761 0,5.8163522 0,12.4115723 L0,12.4115723 Z" id="path-83"></path>
        <path d="M0.400503145,9.50742138 C0.400503145,10.1081761 0.88754717,10.5942138 1.48830189,10.5942138 L1.48830189,10.5942138 C2.08805031,10.5942138 2.57408805,10.1081761 2.57408805,9.50742138 L2.57408805,9.50742138 C2.57408805,5.93308176 5.48226415,3.02591195 9.05559748,3.02591195 L9.05559748,3.02591195 C9.6563522,3.02591195 10.1423899,2.53987421 10.1423899,1.9391195 L10.1423899,1.9391195 C10.1423899,1.33937107 9.6563522,0.852327044 9.05559748,0.852327044 L9.05559748,0.852327044 C4.28377358,0.852327044 0.400503145,4.73559748 0.400503145,9.50742138 L0.400503145,9.50742138 Z" id="path-85"></path>
        <path d="M1.96528302,1.21056604 L0.75572327,15.0269182 C0.700377358,15.6437736 1.15823899,16.1871698 1.77408805,16.2415094 L1.77408805,16.2415094 C2.3909434,16.2948428 2.93433962,15.8389937 2.98867925,15.2241509 L2.98867925,15.2241509 L4.1972327,1.40578616 C4.25257862,0.787924528 3.79572327,0.244528302 3.17987421,0.190188679 L3.17987421,0.190188679 C3.14666667,0.188176101 3.11345912,0.186163522 3.08125786,0.186163522 L3.08125786,0.186163522 C2.50465409,0.186163522 2.01559748,0.62591195 1.96528302,1.21056604 L1.96528302,1.21056604 Z" id="path-87"></path>
        <path d="M0.648050314,1.90188679 L0.648050314,15.7735849 C0.648050314,16.3914465 1.15119497,16.8935849 1.77006289,16.8935849 L1.77006289,16.8935849 C2.38792453,16.8935849 2.89006289,16.3914465 2.89207547,15.7735849 L2.89207547,15.7735849 L2.89207547,1.90188679 C2.89207547,1.28301887 2.38893082,0.780880503 1.77006289,0.780880503 L1.77006289,0.780880503 C1.15119497,0.780880503 0.648050314,1.28301887 0.648050314,1.90188679 L0.648050314,1.90188679 Z" id="path-89"></path>
        <path d="M1.12201258,0.190188679 C0.505157233,0.244528302 0.0483018868,0.788930818 0.102641509,1.40578616 L0.102641509,1.40578616 L1.31119497,15.2241509 C1.36553459,15.8389937 1.90993711,16.2948428 2.52578616,16.2415094 L2.52578616,16.2415094 C3.14163522,16.1871698 3.59849057,15.6437736 3.54515723,15.0269182 L3.54515723,15.0269182 L2.33459119,1.21056604 C2.28327044,0.62591195 1.79421384,0.186163522 1.21962264,0.186163522 L1.21962264,0.186163522 C1.18641509,0.186163522 1.15421384,0.188176101 1.12201258,0.190188679 L1.12201258,0.190188679 Z" id="path-91"></path>
    </defs>
    <g id="Page-1" stroke="none" stroke-width="1" fill="none" fill-rule="evenodd">
        <g id="Learn-/-Ideal-state-" transform="translate(-831.000000, -1472.000000)">
            <g id="df" transform="translate(831.000000, 1472.000000)">
                <g id="Group-3">
                    <mask id="mask-2" fill="white">
                        <use xlink:href="#path-1"></use>
                    </mask>
                    <g id="Clip-2"></g>
                    <polygon id="Fill-1" fill="#0071BC" mask="url(#mask-2)" points="-5.50440252 165.395723 164.39044 165.395723 164.39044 -5.03144654 -5.50440252 -5.03144654"></polygon>
                </g>
                <g id="Group-6">
                    <mask id="mask-4" fill="white">
                        <use xlink:href="#path-3"></use>
                    </mask>
                    <g id="Clip-5"></g>
                    <polygon id="Fill-4" fill="#00507C" mask="url(#mask-4)" points="-5.50440252 76.1720755 164.39044 76.1720755 164.39044 -5.03144654 -5.50440252 -5.03144654"></polygon>
                </g>
                <g id="Group-9" transform="translate(0.000000, 49.308176)">
                    <mask id="mask-6" fill="white">
                        <use xlink:href="#path-5"></use>
                    </mask>
                    <g id="Clip-8"></g>
                    <polygon id="Fill-7" fill="#0C84C5" mask="url(#mask-6)" points="-5.50440252 84.6933333 15.391195 84.6933333 15.391195 -6.73106918 -5.50440252 -6.73106918"></polygon>
                </g>
                <g id="Group-13">
                    <mask id="mask-8" fill="white">
                        <use xlink:href="#path-7"></use>
                    </mask>
                    <g id="Clip-12"></g>
                    <polygon id="Fill-11" fill="#0C84C5" mask="url(#mask-8)" points="-5.50440252 62.5720755 32.0201258 62.5720755 32.0201258 -5.03144654 -5.50440252 -5.03144654"></polygon>
                </g>
                <g id="Group-16" transform="translate(5.031447, 0.000000)">
                    <mask id="mask-10" fill="white">
                        <use xlink:href="#path-9"></use>
                    </mask>
                    <g id="Clip-15"></g>
                    <polygon id="Fill-14" fill="#0C84C5" mask="url(#mask-10)" points="-4.38037736 165.395723 36.0412579 165.395723 36.0412579 -5.03144654 -4.38037736 -5.03144654"></polygon>
                </g>
                <g id="Group-19" transform="translate(22.138365, 23.144654)">
                    <mask id="mask-12" fill="white">
                        <use xlink:href="#path-11"></use>
                    </mask>
                    <g id="Clip-18"></g>
                    <polygon id="Fill-17" fill="#0C84C5" mask="url(#mask-12)" points="-4.82515723 142.251069 20.7114465 142.251069 20.7114465 -4.77987421 -4.82515723 -4.77987421"></polygon>
                </g>
                <g id="Group-22" transform="translate(34.213836, 0.000000)">
                    <mask id="mask-14" fill="white">
                        <use xlink:href="#path-13"></use>
                    </mask>
                    <g id="Clip-21"></g>
                    <polygon id="Fill-20" fill="#0C84C5" mask="url(#mask-14)" points="-4.70440252 165.395723 26.4895597 165.395723 26.4895597 -5.03144654 -4.70440252 -5.03144654"></polygon>
                </g>
                <g id="Group-25" transform="translate(41.257862, 0.000000)">
                    <mask id="mask-16" fill="white">
                        <use xlink:href="#path-15"></use>
                    </mask>
                    <g id="Clip-24"></g>
                    <polygon id="Fill-23" fill="#0C84C5" mask="url(#mask-16)" points="-4.51622642 41.0244025 13.2015094 41.0244025 13.2015094 -5.03144654 -4.51622642 -5.03144654"></polygon>
                </g>
                <g id="Group-28" transform="translate(6.037736, 0.000000)">
                    <mask id="mask-18" fill="white">
                        <use xlink:href="#path-17"></use>
                    </mask>
                    <g id="Clip-27"></g>
                    <polygon id="Fill-26" fill="#0C84C5" mask="url(#mask-18)" points="-4.48100629 36.4920755 19.4646541 36.4920755 19.4646541 -5.03144654 -4.48100629 -5.03144654"></polygon>
                </g>
                <g id="Group-31" transform="translate(60.377358, 0.000000)">
                    <mask id="mask-20" fill="white">
                        <use xlink:href="#path-19"></use>
                    </mask>
                    <g id="Clip-30"></g>
                    <polygon id="Fill-29" fill="#0C84C5" mask="url(#mask-20)" points="-4.18918239 165.395723 20.3461635 165.395723 20.3461635 -5.03144654 -4.18918239 -5.03144654"></polygon>
                </g>
                <g id="Group-34" transform="translate(66.415094, 0.000000)">
                    <mask id="mask-22" fill="white">
                        <use xlink:href="#path-21"></use>
                    </mask>
                    <g id="Clip-33"></g>
                    <polygon id="Fill-32" fill="#0C84C5" mask="url(#mask-22)" points="-4.4608805 79.2805031 19.6548428 79.2805031 19.6548428 -5.03144654 -4.4608805 -5.03144654"></polygon>
                </g>
                <g id="Group-37" transform="translate(43.270440, 50.314465)">
                    <mask id="mask-24" fill="white">
                        <use xlink:href="#path-23"></use>
                    </mask>
                    <g id="Clip-36"></g>
                    <polygon id="Fill-35" fill="#0C84C5" mask="url(#mask-24)" points="-4.5836478 115.081258 28.4236478 115.081258 28.4236478 -4.4427673 -4.5836478 -4.4427673"></polygon>
                </g>
                <g id="Group-40" transform="translate(55.345912, 79.496855)">
                    <mask id="mask-26" fill="white">
                        <use xlink:href="#path-25"></use>
                    </mask>
                    <g id="Clip-39"></g>
                    <polygon id="Fill-38" fill="#0C84C5" mask="url(#mask-26)" points="-4.96100629 85.8988679 7.66591195 85.8988679 7.66591195 -4.61081761 -4.96100629 -4.61081761"></polygon>
                </g>
                <g id="Group-43" transform="translate(81.509434, 0.000000)">
                    <mask id="mask-28" fill="white">
                        <use xlink:href="#path-27"></use>
                    </mask>
                    <g id="Clip-42"></g>
                    <polygon id="Fill-41" fill="#0C84C5" mask="url(#mask-28)" points="-4.85937107 165.395723 14.5016352 165.395723 14.5016352 -5.03144654 -4.85937107 -5.03144654"></polygon>
                </g>
                <g id="Group-46" transform="translate(89.559748, 0.000000)">
                    <mask id="mask-30" fill="white">
                        <use xlink:href="#path-29"></use>
                    </mask>
                    <g id="Clip-45"></g>
                    <polygon id="Fill-44" fill="#0C84C5" mask="url(#mask-30)" points="-5.02641509 95.8208805 19.2754717 95.8208805 19.2754717 -5.03144654 -5.02641509 -5.03144654"></polygon>
                </g>
                <g id="Group-49" transform="translate(99.622642, 0.000000)">
                    <mask id="mask-32" fill="white">
                        <use xlink:href="#path-31"></use>
                    </mask>
                    <g id="Clip-48"></g>
                    <polygon id="Fill-47" fill="#0C84C5" mask="url(#mask-32)" points="-4.8472956 160.104654 14.5851572 160.104654 14.5851572 -5.03144654 -4.8472956 -5.03144654"></polygon>
                </g>
                <g id="Group-52" transform="translate(113.710692, 0.000000)">
                    <mask id="mask-34" fill="white">
                        <use xlink:href="#path-33"></use>
                    </mask>
                    <g id="Clip-51"></g>
                    <polygon id="Fill-50" fill="#0C84C5" mask="url(#mask-34)" points="-4.28176101 96.0171069 12.9831447 96.0171069 12.9831447 -5.03144654 -4.28176101 -5.03144654"></polygon>
                </g>
                <g id="Group-55" transform="translate(110.691824, 88.553459)">
                    <mask id="mask-36" fill="white">
                        <use xlink:href="#path-35"></use>
                    </mask>
                    <g id="Clip-54"></g>
                    <polygon id="Fill-53" fill="#0C84C5" mask="url(#mask-36)" points="-4.77886792 76.8422642 20.8392453 76.8422642 20.8392453 -4.9972327 -4.77886792 -4.9972327"></polygon>
                </g>
                <g id="Group-58" transform="translate(107.672956, 72.452830)">
                    <mask id="mask-38" fill="white">
                        <use xlink:href="#path-37"></use>
                    </mask>
                    <g id="Clip-57"></g>
                    <polygon id="Fill-56" fill="#0C84C5" mask="url(#mask-38)" points="-4.99622642 53.0737107 8.66616352 53.0737107 8.66616352 -4.0372327 -4.99622642 -4.0372327"></polygon>
                </g>
                <g id="Group-61" transform="translate(93.584906, 0.000000)">
                    <mask id="mask-40" fill="white">
                        <use xlink:href="#path-39"></use>
                    </mask>
                    <g id="Clip-60"></g>
                    <polygon id="Fill-59" fill="#0C84C5" mask="url(#mask-40)" points="-4.63194969 52.2716981 8.5363522 52.2716981 8.5363522 -5.03144654 -4.63194969 -5.03144654"></polygon>
                </g>
                <g id="Group-64" transform="translate(126.792453, 0.000000)">
                    <mask id="mask-42" fill="white">
                        <use xlink:href="#path-41"></use>
                    </mask>
                    <g id="Clip-63"></g>
                    <polygon id="Fill-62" fill="#0C84C5" mask="url(#mask-42)" points="-4.99924528 165.395723 27.1124528 165.395723 27.1124528 -5.03144654 -4.99924528 -5.03144654"></polygon>
                </g>
                <g id="Group-67" transform="translate(133.836478, 70.440252)">
                    <mask id="mask-44" fill="white">
                        <use xlink:href="#path-43"></use>
                    </mask>
                    <g id="Clip-66"></g>
                    <polygon id="Fill-65" fill="#0C84C5" mask="url(#mask-44)" points="-4.65308176 94.956478 14.6978616 94.956478 14.6978616 -4.97207547 -4.65308176 -4.97207547"></polygon>
                </g>
                <g id="Group-70" transform="translate(123.773585, 0.000000)">
                    <mask id="mask-46" fill="white">
                        <use xlink:href="#path-45"></use>
                    </mask>
                    <g id="Clip-69"></g>
                    <polygon id="Fill-68" fill="#0C84C5" mask="url(#mask-46)" points="-4.27672956 165.395723 16.6259119 165.395723 16.6259119 -5.03144654 -4.27672956 -5.03144654"></polygon>
                </g>
                <g id="Group-73" transform="translate(139.874214, 0.000000)">
                    <mask id="mask-48" fill="white">
                        <use xlink:href="#path-47"></use>
                    </mask>
                    <g id="Clip-72"></g>
                    <polygon id="Fill-71" fill="#0C84C5" mask="url(#mask-48)" points="-4.46792453 122.241006 24.5162264 122.241006 24.5162264 -5.03144654 -4.46792453 -5.03144654"></polygon>
                </g>
                <g id="Group-76" transform="translate(149.937107, 98.616352)">
                    <mask id="mask-50" fill="white">
                        <use xlink:href="#path-49"></use>
                    </mask>
                    <g id="Clip-75"></g>
                    <polygon id="Fill-74" fill="#0C84C5" mask="url(#mask-50)" points="-4.60779874 66.7803774 14.452327 66.7803774 14.452327 -4.80402516 -4.60779874 -4.80402516"></polygon>
                </g>
                <g id="Group-79" transform="translate(145.911950, 0.000000)">
                    <mask id="mask-52" fill="white">
                        <use xlink:href="#path-51"></use>
                    </mask>
                    <g id="Clip-78"></g>
                    <polygon id="Fill-77" fill="#0C84C5" mask="url(#mask-52)" points="-4.25459119 94.7028931 18.4784906 94.7028931 18.4784906 -5.03144654 -4.25459119 -5.03144654"></polygon>
                </g>
                <g id="Group-82" transform="translate(41.257862, 62.389937)">
                    <mask id="mask-54" fill="white">
                        <use xlink:href="#path-53"></use>
                    </mask>
                    <g id="Clip-81"></g>
                    <polygon id="Fill-80" fill="#F9CFCF" mask="url(#mask-54)" points="-4.26666667 76.4940881 82.3084277 76.4940881 82.3084277 -5.00930818 -4.26666667 -5.00930818"></polygon>
                </g>
                <g id="Group-85" transform="translate(40.251572, 134.842767)">
                    <mask id="mask-56" fill="white">
                        <use xlink:href="#path-55"></use>
                    </mask>
                    <g id="Clip-84"></g>
                    <polygon id="Fill-83" fill="#B4E0FA" mask="url(#mask-56)" points="-4.24955975 30.507673 84.3038994 30.507673 84.3038994 -4.71849057 -4.24955975 -4.71849057"></polygon>
                </g>
                <g id="Group-88" transform="translate(65.408805, 129.811321)">
                    <mask id="mask-58" fill="white">
                        <use xlink:href="#path-57"></use>
                    </mask>
                    <g id="Clip-87"></g>
                    <polygon id="Fill-86" fill="#F9CFCF" mask="url(#mask-58)" points="-4.22943396 22.956478 33.9683019 22.956478 33.9683019 -4.56955975 -4.22943396 -4.56955975"></polygon>
                </g>
                <g id="Group-91" transform="translate(40.251572, 62.389937)">
                    <mask id="mask-60" fill="white">
                        <use xlink:href="#path-59"></use>
                    </mask>
                    <g id="Clip-90"></g>
                    <polygon id="Fill-89" fill="#00507C" mask="url(#mask-60)" points="-4.82415094 39.9949686 35.0621384 39.9949686 35.0621384 -4.88955975 -4.82415094 -4.88955975"></polygon>
                </g>
                <g id="Group-94" transform="translate(62.389937, 53.333333)">
                    <mask id="mask-62" fill="white">
                        <use xlink:href="#path-61"></use>
                    </mask>
                    <g id="Clip-93"></g>
                    <polygon id="Fill-92" fill="#00507C" mask="url(#mask-62)" points="-4.30893082 46.5720755 58.7320755 46.5720755 58.7320755 -5.03144654 -4.30893082 -5.03144654"></polygon>
                </g>
                <g id="Group-97" transform="translate(87.547170, 94.591195)">
                    <mask id="mask-64" fill="white">
                        <use xlink:href="#path-63"></use>
                    </mask>
                    <g id="Clip-96"></g>
                    <polygon id="Fill-95" fill="#00507C" mask="url(#mask-64)" points="-4.3481761 12.448805 20.3461635 12.448805 20.3461635 -4.13484277 -4.3481761 -4.13484277"></polygon>
                </g>
                <g id="Group-100" transform="translate(87.547170, 104.654088)">
                    <mask id="mask-66" fill="white">
                        <use xlink:href="#path-65"></use>
                    </mask>
                    <g id="Clip-99"></g>
                    <polygon id="Fill-98" fill="#00507C" mask="url(#mask-66)" points="-4.3481761 6.94238994 19.2161006 6.94238994 19.2161006 -4.92679245 -4.3481761 -4.92679245"></polygon>
                </g>
                <g id="Group-103" transform="translate(57.358491, 94.591195)">
                    <mask id="mask-68" fill="white">
                        <use xlink:href="#path-67"></use>
                    </mask>
                    <g id="Clip-102"></g>
                    <polygon id="Fill-101" fill="#00507C" mask="url(#mask-68)" points="-4.42968553 12.448805 20.2646541 12.448805 20.2646541 -4.13484277 -4.42968553 -4.13484277"></polygon>
                </g>
                <g id="Group-106" transform="translate(58.364780, 104.654088)">
                    <mask id="mask-70" fill="white">
                        <use xlink:href="#path-69"></use>
                    </mask>
                    <g id="Clip-105"></g>
                    <polygon id="Fill-104" fill="#00507C" mask="url(#mask-70)" points="-4.30591195 6.94238994 19.2583648 6.94238994 19.2583648 -4.92679245 -4.30591195 -4.92679245"></polygon>
                </g>
                <g id="Group-109" transform="translate(71.446541, 113.710692)">
                    <mask id="mask-72" fill="white">
                        <use xlink:href="#path-71"></use>
                    </mask>
                    <g id="Clip-108"></g>
                    <polygon id="Fill-107" fill="#F9A7A7" mask="url(#mask-72)" points="-4.1408805 16.907673 21.7237736 16.907673 21.7237736 -4.44176101 -4.1408805 -4.44176101"></polygon>
                </g>
                <g id="Group-112" transform="translate(70.440252, 112.704403)">
                    <mask id="mask-74" fill="white">
                        <use xlink:href="#path-73"></use>
                    </mask>
                    <g id="Clip-111"></g>
                    <polygon id="Fill-110" fill="#3762CC" mask="url(#mask-74)" points="-4.0372327 18.8176101 23.6327044 18.8176101 23.6327044 -4.33811321 -4.0372327 -4.33811321"></polygon>
                </g>
                <g id="Group-115" transform="translate(71.446541, 112.704403)">
                    <mask id="mask-76" fill="white">
                        <use xlink:href="#path-75"></use>
                    </mask>
                    <g id="Clip-114"></g>
                    <polygon id="Fill-113" fill="#F9A7A7" mask="url(#mask-76)" points="-4.67220126 19.078239 21.7277987 19.078239 21.7277987 -4.15798742 -4.67220126 -4.15798742"></polygon>
                </g>
                <g id="Group-118" transform="translate(70.440252, 112.704403)">
                    <mask id="mask-78" fill="white">
                        <use xlink:href="#path-77"></use>
                    </mask>
                    <g id="Clip-117"></g>
                    <polygon id="Fill-116" fill="#00507C" mask="url(#mask-78)" points="-4.48201258 19.8943396 23.5491824 19.8943396 23.5491824 -4.97308176 -4.48201258 -4.97308176"></polygon>
                </g>
                <g id="Group-121" transform="translate(114.716981, 123.773585)">
                    <mask id="mask-80" fill="white">
                        <use xlink:href="#path-79"></use>
                    </mask>
                    <g id="Clip-120"></g>
                    <polygon id="Fill-119" fill="#F0F6FF" mask="url(#mask-80)" points="-4.91672956 18.5298113 18.1937107 18.5298113 18.1937107 -4.58062893 -4.91672956 -4.58062893"></polygon>
                </g>
                <g id="Group-124" transform="translate(113.710692, 127.798742)">
                    <mask id="mask-82" fill="white">
                        <use xlink:href="#path-81"></use>
                    </mask>
                    <g id="Clip-123"></g>
                    <polygon id="Fill-122" fill="#F0F6FF" mask="url(#mask-82)" points="-5.03144654 15.3922013 14.7733333 15.3922013 14.7733333 -4.41257862 -5.03144654 -4.41257862"></polygon>
                </g>
                <g id="Group-127" transform="translate(31.194969, 123.773585)">
                    <mask id="mask-84" fill="white">
                        <use xlink:href="#path-83"></use>
                    </mask>
                    <g id="Clip-126"></g>
                    <polygon id="Fill-125" fill="#F0F6FF" mask="url(#mask-84)" points="-5.03144654 18.5298113 18.0789937 18.5298113 18.0789937 -4.58062893 -5.03144654 -4.58062893"></polygon>
                </g>
                <g id="Group-130" transform="translate(35.220126, 127.798742)">
                    <mask id="mask-86" fill="white">
                        <use xlink:href="#path-85"></use>
                    </mask>
                    <g id="Clip-129"></g>
                    <polygon id="Fill-128" fill="#F0F6FF" mask="url(#mask-86)" points="-4.62993711 15.6256604 15.1748428 15.6256604 15.1748428 -4.1791195 -4.62993711 -4.1791195"></polygon>
                </g>
                <g id="Group-133" transform="translate(71.446541, 128.805031)">
                    <mask id="mask-88" fill="white">
                        <use xlink:href="#path-87"></use>
                    </mask>
                    <g id="Clip-132"></g>
                    <polygon id="Fill-131" fill="#F0F6FF" mask="url(#mask-88)" points="-4.28075472 21.2779874 9.23371069 21.2779874 9.23371069 -4.84427673 -4.28075472 -4.84427673"></polygon>
                </g>
                <g id="Group-136" transform="translate(78.490566, 122.767296)">
                    <mask id="mask-90" fill="white">
                        <use xlink:href="#path-89"></use>
                    </mask>
                    <g id="Clip-135"></g>
                    <polygon id="Fill-134" fill="#F0F6FF" mask="url(#mask-90)" points="-4.38238994 21.9250314 7.92352201 21.9250314 7.92352201 -4.25056604 -4.38238994 -4.25056604"></polygon>
                </g>
                <g id="Group-139" transform="translate(84.528302, 128.805031)">
                    <mask id="mask-92" fill="white">
                        <use xlink:href="#path-91"></use>
                    </mask>
                    <g id="Clip-138"></g>
                    <polygon id="Fill-137" fill="#F0F6FF" mask="url(#mask-92)" points="-4.93283019 21.2779874 8.58062893 21.2779874 8.58062893 -4.84427673 -4.93283019 -4.84427673"></polygon>
                </g>
            </g>
        </g>
    </g>
</svg>