<?xml version="1.0" encoding="UTF-8"?>
<svg width="160px" height="159px" viewBox="0 0 160 159" version="1.1" xmlns="http://www.w3.org/2000/svg" xmlns:xlink="http://www.w3.org/1999/xlink">
    <!-- Generator: sketchtool 64 (101010) - https://sketch.com -->
    <title>02BE1226-E6C6-4BD2-80C9-70248DE2ED18</title>
    <desc>Created with sketchtool.</desc>
    <defs>
        <path d="M4.55345912,0.007 C2.56,0.007 0.898616352,1.42 0.529308176,3.294 L0.529308176,3.294 L0.529308176,154.72 C0.898616352,156.594 2.56,158.007 4.55345912,158.007 L4.55345912,158.007 L155.266415,158.007 C157.532579,158.007 159.36805,156.182 159.36805,153.93 L159.36805,153.93 L159.36805,4.083 C159.36805,1.832 157.532579,0.007 155.266415,0.007 L155.266415,0.007 L4.55345912,0.007 Z" id="path-1"></path>
        <path d="M4.55345912,0.007 C2.56,0.007 0.899622642,1.42 0.529308176,3.293 L0.529308176,3.293 L0.529308176,70.55 C43.4163522,36.052 116.482013,37.111 159.36805,63.532 L159.36805,63.532 L159.36805,4.083 C159.36805,1.832 157.532579,0.007 155.266415,0.007 L155.266415,0.007 L4.55345912,0.007 Z" id="path-3"></path>
        <path d="M0.530314465,1.373 C1.9391195,5.827 3.46465409,9.674 4.88352201,13.251 L4.88352201,13.251 C8.14993711,21.484 10.9715723,28.594 10.9715723,39.128 L10.9715723,39.128 C10.9715723,53.308 5.82238994,66.845 0.530314465,79.952 L0.530314465,79.952 L0.530314465,80.894 C5.94213836,67.516 11.2945912,53.691 11.2945912,39.128 L11.2945912,39.128 C11.2945912,28.453 8.4518239,21.287 5.15924528,12.99 L5.15924528,12.99 C3.64679245,9.176 2.01257862,5.049 0.530314465,0.215 L0.530314465,0.215 L0.530314465,1.373 Z" id="path-5"></path>
        <path d="M0.529308176,2.152 C0.783899371,4.32 0.768805031,6.845 0.529308176,9.544 L0.529308176,9.544 L0.529308176,12.319 C1.16528302,7.685 1.21559748,3.379 0.529308176,0.153 L0.529308176,0.153 L0.529308176,2.152 Z" id="path-7"></path>
        <path d="M27.4938365,0.007 C25.2498113,25.092 22.4986164,52.146 14.5449057,56.536 L14.5449057,56.536 C9.87371069,54.091 6.22792453,47.259 3.71421384,36.24 L3.71421384,36.24 C2.50566038,29.891 1.44603774,23.301 0.529308176,16.685 L0.529308176,16.685 L0.529308176,19.018 C1.37358491,24.9 2.33157233,30.742 3.40628931,36.394 L3.40628931,36.394 C5.96830189,47.618 9.69962264,54.565 14.4955975,57.038 L14.4955975,57.038 L14.5479245,57.064 L14.5992453,57.037 C22.7803774,52.635 25.5577358,25.308 27.8208805,0.007 L27.8208805,0.007 L27.4938365,0.007 Z" id="path-9"></path>
        <path d="M30.4533333,0.007 C25.2236478,63.456 16.2083019,94.604 9.33735849,118.326 L9.33735849,118.326 C5.2327044,132.493 1.91597484,143.959 0.694339623,158.007 L0.694339623,158.007 L1.02037736,158.007 C2.24201258,144.056 5.54465409,132.636 9.63320755,118.529 L9.63320755,118.529 C16.5142138,94.768 25.5456604,63.57 30.7793711,0.007 L30.7793711,0.007 L30.4533333,0.007 Z" id="path-11"></path>
        <path d="M14.9987421,0.207 C14.9987421,2.381 15.0289308,4.592 15.0571069,6.73 L15.0571069,6.73 C15.0872956,8.867 15.1154717,11.079 15.1154717,13.251 L15.1154717,13.251 C15.1154717,30.437 13.3081761,33.584 11.5592453,36.629 L11.5592453,36.629 C10.9665409,37.66 10.4050314,38.636 9.92100629,40.135 L9.92100629,40.135 C6.04779874,52.782 1.54767296,105.088 0.108679245,135.007 L0.108679245,135.007 L0.432704403,135.007 C1.86666667,105.134 6.3527044,52.954 10.2128302,40.353 L10.2128302,40.353 C10.6757233,38.919 11.2221384,37.967 11.8007547,36.96 L11.8007547,36.96 C13.5899371,33.847 15.4394969,30.628 15.4394969,13.251 L15.4394969,13.251 C15.4394969,11.072 15.4093082,8.859 15.3811321,6.719 L15.3811321,6.719 C15.3519497,4.584 15.321761,2.376 15.321761,0.207 L15.321761,0.207 L14.9987421,0.207 Z" id="path-13"></path>
        <path d="M20.7808805,0.007 C18.9886792,25.492 14.6244025,41.167 10.3698113,56.441 L10.3698113,56.441 C5.09081761,75.393 0.105660377,93.294 0.105660377,128.089 L0.105660377,128.089 C0.105660377,137.304 0.432704403,147.033 1.12,158.007 L1.12,158.007 L1.44503145,158.007 C0.75672956,147.029 0.428679245,137.302 0.428679245,128.089 L0.428679245,128.089 C0.428679245,93.398 5.4027673,75.543 10.6656604,56.639 L10.6656604,56.639 C14.9333333,41.317 19.3116981,25.591 21.1069182,0.007 L21.1069182,0.007 L20.7808805,0.007 Z" id="path-15"></path>
        <path d="M7.33383648,0.007 C7.45559748,2.923 7.53408805,5.84 7.53408805,8.752 L7.53408805,8.752 C7.53408805,17.38 6.60226415,35.197 3.72528302,35.197 L3.72528302,35.197 C1.1391195,35.197 0.571572327,17.271 0.571572327,10.364 L0.571572327,10.364 C0.571572327,6.919 0.647044025,3.43 0.731572327,0.007 L0.731572327,0.007 L0.40754717,0.007 C0.324025157,3.428 0.248553459,6.918 0.248553459,10.364 L0.248553459,10.364 C0.248553459,11.399 0.289811321,35.697 3.72528302,35.697 L3.72528302,35.697 C7.74440252,35.697 7.85710692,9.022 7.85710692,8.752 L7.85710692,8.752 C7.85710692,5.839 7.77962264,2.922 7.65786164,0.007 L7.65786164,0.007 L7.33383648,0.007 Z" id="path-17"></path>
        <path d="M13.9683019,0.007 C11.2483019,24.773 8.22238994,30.704 5.95119497,30.704 L5.95119497,30.704 C3.97584906,30.704 2.25509434,14.785 0.828176101,0.007 L0.828176101,0.007 L0.502138365,0.007 C2.34968553,19.027 3.82289308,31.203 5.95119497,31.203 L5.95119497,31.203 C9.23672956,31.203 12.0342138,20.732 14.3003774,0.007 L14.3003774,0.007 L13.9683019,0.007 Z" id="path-19"></path>
        <path d="M0.487044025,0.007 C0.469937107,2.386 0.455849057,4.79 0.455849057,7.179 L0.455849057,7.179 C0.455849057,28.649 4.0372327,56.388 7.49886792,83.214 L7.49886792,83.214 C10.9031447,109.583 14.4221384,136.834 14.514717,158.007 L14.514717,158.007 L14.8377358,158.007 C14.7451572,136.786 11.2231447,109.508 7.81685535,83.116 L7.81685535,83.116 C4.35622642,56.314 0.778867925,28.599 0.778867925,7.179 L0.778867925,7.179 C0.778867925,4.791 0.793962264,2.387 0.811069182,0.007 L0.811069182,0.007 L0.487044025,0.007 Z" id="path-21"></path>
        <path d="M12.4850314,0.007 C13.3152201,12.317 13.7901887,24.683 13.7901887,30.532 L13.7901887,30.532 C13.7901887,36.917 13.6231447,43.405 13.4752201,49.123 L13.4752201,49.123 C12.8925786,63.526 10.0316981,73.033 9.40880503,73.134 L9.40880503,73.134 C5.89685535,73.134 1.89685535,32.59 0.467924528,0.007 L0.467924528,0.007 L0.146918239,0.007 C1.53559748,31.976 5.36855346,73.633 9.40880503,73.633 L9.40880503,73.633 C10.4221384,73.633 13.2256604,63.296 13.7972327,49.148 L13.7972327,49.148 C13.9451572,43.42 14.1132075,36.927 14.1132075,30.532 L14.1132075,30.532 C14.1132075,24.683 13.638239,12.325 12.8080503,0.007 L12.8080503,0.007 L12.4850314,0.007 Z" id="path-23"></path>
        <path d="M3.58238994,46.36 C1.4681761,69.248 0.169056604,95.524 0.169056604,104.287 L0.169056604,104.287 C0.169056604,105.562 0.187169811,106.8 0.220377358,108.007 L0.220377358,108.007 L0.543396226,108.007 C0.510188679,106.8 0.493081761,105.562 0.493081761,104.287 L0.493081761,104.287 C0.493081761,86.506 5.56981132,0.981 13.1300629,0.981 L13.1300629,0.981 C15.9677987,0.981 16.1851572,23.846 16.3944654,45.956 L16.3944654,45.956 C16.5091824,58.163 16.6299371,70.785 17.1974843,79.744 L17.1974843,79.744 C17.8555975,89.915 19.8249057,99.109 22.3285535,108.007 L22.3285535,108.007 L22.681761,108.007 C20.1630189,99.083 18.1776101,89.875 17.5205031,79.696 L17.5205031,79.696 C16.952956,70.758 16.8332075,58.146 16.7174843,45.949 L16.7174843,45.949 C16.4961006,22.566 16.2867925,0.483 13.1300629,0.483 L13.1300629,0.483 C8.74264151,0.483 5.51748428,25.432 3.58238994,46.36 L3.58238994,46.36 Z" id="path-25"></path>
        <path d="M1.61811321,4.549 C1.18037736,6.681 0.726540881,8.885 0.726540881,11.295 L0.726540881,11.295 C0.890566038,17.147 1.03647799,23.139 1.17735849,28.934 L1.17735849,28.934 C1.57987421,45.408 1.99748428,62.421 2.89509434,79.007 L2.89509434,79.007 L3.2191195,79.007 C2.32150943,62.419 1.90389937,45.396 1.50138365,28.916 L1.50138365,28.916 C1.35949686,23.12 1.21358491,17.126 1.04855346,11.284 L1.04855346,11.284 C1.04855346,8.964 1.4963522,6.796 1.92704403,4.7 L1.92704403,4.7 C2.23597484,3.197 2.52880503,1.779 2.6636478,0.323 L2.6636478,0.323 L2.34264151,0.253 C2.21283019,1.666 1.92503145,3.067 1.61811321,4.549 L1.61811321,4.549 Z" id="path-27"></path>
        <path d="M5.76603774,0.007 C5.31119497,14.571 4.94993711,29.338 4.94993711,41.428 L4.94993711,41.428 C4.94993711,50.566 3.74540881,60.027 2.58012579,69.176 L2.58012579,69.176 C1.59496855,76.917 0.665157233,84.228 0.665157233,90.214 L0.665157233,90.214 C0.665157233,100.536 2.97861635,110.466 5.21660377,120.071 L5.21660377,120.071 C7.46163522,129.706 9.58289308,138.807 9.58289308,148.298 L9.58289308,148.298 C9.58289308,151.702 9.36352201,154.91 8.92075472,158.007 L8.92075472,158.007 L9.25283019,158.007 C9.69056604,154.908 9.90591195,151.699 9.90591195,148.298 L9.90591195,148.298 C9.90591195,138.72 7.67698113,129.154 5.52050314,119.901 L5.52050314,119.901 C3.29257862,110.338 0.988176101,100.447 0.988176101,90.214 L0.988176101,90.214 C0.988176101,84.277 1.91496855,76.99 2.89710692,69.272 L2.89710692,69.272 C4.06440252,60.099 5.27295597,50.614 5.27295597,41.428 L5.27295597,41.428 C5.27295597,29.34 5.63421384,14.573 6.0890566,0.007 L6.0890566,0.007 L5.76603774,0.007 Z" id="path-29"></path>
        <path d="M14.2762264,0.007 C13.7952201,11.094 13.2166038,22.432 12.5806289,32.881 L12.5806289,32.881 C10.3869182,68.885 7.90842767,89.533 5.77610063,89.533 L5.77610063,89.533 C5.02540881,89.533 4.70641509,88.485 4.42566038,87.561 L4.42566038,87.561 C4.38440252,87.426 4.34415094,87.295 4.30993711,87.196 L4.30993711,87.196 C1.64427673,76.473 1.69962264,69.005 1.74792453,62.416 L1.74792453,62.416 C1.75496855,61.534 1.76201258,60.668 1.76201258,59.81 L1.76201258,59.81 C1.76201258,44.749 1.41886792,29.5 1.08880503,14.752 L1.08880503,14.752 C0.980125786,9.884 0.870440252,4.958 0.771823899,0.007 L0.771823899,0.007 L0.448805031,0.007 C0.547421384,4.965 0.657106918,9.896 0.765786164,14.77 L0.765786164,14.77 C1.09584906,29.513 1.43798742,44.758 1.43798742,59.81 L1.43798742,59.81 C1.43798742,60.667 1.43194969,61.531 1.42490566,62.411 L1.42490566,62.411 C1.37559748,69.045 1.31924528,76.564 4.01610063,87.396 L4.01610063,87.396 C4.05433962,87.517 4.09157233,87.643 4.13283019,87.774 L4.13283019,87.774 C4.4236478,88.728 4.82113208,90.034 5.77610063,90.034 L5.77610063,90.034 C8.7909434,90.034 11.3167296,58.98 12.9016352,32.928 L12.9016352,32.928 C13.5386164,22.465 14.118239,11.11 14.5992453,0.007 L14.5992453,0.007 L14.2762264,0.007 Z" id="path-31"></path>
        <path d="M9.55069182,0.007 C9.21459119,4.532 8.8472956,9.226 8.46792453,14.086 L8.46792453,14.086 C7.10842767,31.525 5.56578616,51.29 4.87345912,71.307 L4.87345912,71.307 C4.34616352,78.637 3.49786164,83.848 2.67672956,88.889 L2.67672956,88.889 C1.5909434,95.555 0.563522013,101.85 0.563522013,111.935 L0.563522013,111.935 C0.563522013,121.233 1.4681761,130.423 2.3436478,139.312 L2.3436478,139.312 C2.81157233,144.042 3.29257862,148.934 3.63169811,153.778 L3.63169811,153.778 L3.9527044,153.725 C3.61257862,148.869 3.13056604,143.972 2.66465409,139.236 L2.66465409,139.236 C1.79018868,130.366 0.88754717,121.194 0.88754717,111.935 L0.88754717,111.935 C0.88754717,101.914 1.90792453,95.646 2.98968553,89.01 L2.98968553,89.01 C3.81283019,83.954 4.66515723,78.725 5.1954717,71.348 L5.1954717,71.348 C5.88880503,51.334 7.42943396,31.577 8.78893082,14.146 L8.78893082,14.146 C9.17031447,9.264 9.53861635,4.551 9.87572327,0.007 L9.87572327,0.007 L9.55069182,0.007 Z" id="path-33"></path>
        <path d="M5.84352201,0.007 C5.87371069,0.771 5.90389937,1.537 5.93207547,2.298 L5.93207547,2.298 C6.39194969,14.111 6.86591195,26.327 6.86591195,38.311 L6.86591195,38.311 C6.86591195,50.317 6.19572327,63.385 5.02641509,74.159 L5.02641509,74.159 C3.86515723,84.857 2.61333333,89.73 1.94012579,89.73 L1.94012579,89.73 C0.940880503,89.73 0.493081761,84.5 0.493081761,80.788 L0.493081761,80.788 C0.493081761,72.727 0.458867925,64.535 0.424654088,56.61 L0.424654088,56.61 C0.391446541,48.687 0.356226415,40.495 0.356226415,32.438 L0.356226415,32.438 C0.356226415,22.281 0.408553459,11.355 0.62591195,0.007 L0.62591195,0.007 L0.303899371,0.007 C0.0855345912,11.355 0.0332075472,22.281 0.0332075472,32.438 L0.0332075472,32.438 C0.0332075472,40.498 0.068427673,48.689 0.10163522,56.615 L0.10163522,56.615 C0.133836478,64.537 0.170062893,72.73 0.170062893,80.788 L0.170062893,80.788 C0.170062893,81.173 0.190188679,90.229 1.94012579,90.229 L1.94012579,90.229 C4.13584906,90.229 7.18993711,64.068 7.18993711,38.311 L7.18993711,38.311 C7.18993711,26.313 6.71496855,14.089 6.25509434,2.269 L6.25509434,2.269 C6.22591195,1.518 6.19672956,0.762 6.16754717,0.007 L6.16754717,0.007 L5.84352201,0.007 Z" id="path-35"></path>
        <path d="M4.89559748,34.701 C2.4754717,39.412 0.564528302,43.134 0.564528302,55.422 L0.564528302,55.422 C0.564528302,60.625 1.0445283,65.867 1.60704403,71.007 L1.60704403,71.007 L1.93509434,71.007 C1.37056604,65.86 0.88754717,60.614 0.88754717,55.422 L0.88754717,55.422 C0.88754717,43.308 2.76830189,39.646 5.14918239,35.011 L5.14918239,35.011 C7.78566038,29.877 11.0389937,23.546 13.2820126,3.872 L13.2820126,3.872 C13.3403774,28.04 14.1101887,50.167 15.6216352,71.007 L15.6216352,71.007 L15.947673,71.007 C14.3728302,49.315 13.6020126,26.227 13.6020126,0.891 L13.6020126,0.891 L13.2810063,0.852 C11.0480503,22.724 7.63773585,29.365 4.89559748,34.701 L4.89559748,34.701 Z" id="path-37"></path>
        <path d="M2.01358491,1.029 C3.09534591,5.07 3.62062893,9.459 3.62062893,14.451 L3.62062893,14.451 C3.62062893,20.583 2.82566038,26.858 2.05685535,32.925 L2.05685535,32.925 C1.62918239,36.297 1.18943396,39.766 0.896603774,43.164 L0.896603774,43.164 C0.757735849,40.887 0.689308176,38.454 0.689308176,35.791 L0.689308176,35.791 C0.689308176,32.37 0.8,28.906 0.906666667,25.555 L0.906666667,25.555 C1.01433962,22.178 1.12603774,18.687 1.12603774,15.217 L1.12603774,15.217 C1.12603774,13.824 1.10893082,12.535 1.07371069,11.276 L1.07371069,11.276 L0.749685535,11.297 C0.78490566,12.549 0.803018868,13.831 0.803018868,15.217 L0.803018868,15.217 C0.803018868,18.674 0.691320755,22.159 0.584654088,25.53 L0.584654088,25.53 C0.476981132,28.887 0.367295597,32.358 0.367295597,35.791 L0.367295597,35.791 C0.367295597,39.329 0.486037736,42.463 0.731572327,45.371 L0.731572327,45.371 L0.910691824,47.49 L1.05157233,45.366 C1.32327044,41.314 1.85761006,37.097 2.37484277,33.019 L2.37484277,33.019 C3.14566038,26.929 3.9436478,20.631 3.9436478,14.451 L3.9436478,14.451 C3.9436478,9.393 3.41031447,4.939 2.31245283,0.837 L2.31245283,0.837 L2.01358491,1.029 Z" id="path-39"></path>
        <path d="M3.40830189,0.007 C3.51295597,3.118 3.57836478,5.507 3.57836478,7.117 L3.57836478,7.117 C3.57836478,21.456 1.94918239,43.414 1.2608805,46.134 L1.2608805,46.134 C1.20553459,45.718 1.1391195,44.687 1.1391195,42.141 L1.1391195,42.141 C1.1391195,40.979 1.27899371,39.787 1.57987421,38.389 L1.57987421,38.389 L1.27396226,38.229 C0.962012579,39.681 0.81509434,40.924 0.81509434,42.141 L0.81509434,42.141 C0.81509434,43.657 0.839245283,44.808 0.885534591,45.564 L0.885534591,45.564 C0.937861635,46.398 1.0072956,46.851 1.23672956,46.851 L1.23672956,46.851 C1.40981132,46.851 1.62515723,46.851 2.07698113,42.56 L2.07698113,42.56 C2.3436478,40.013 2.63849057,36.425 2.90616352,32.454 L2.90616352,32.454 C3.5290566,23.208 3.90138365,13.737 3.90138365,7.117 L3.90138365,7.117 C3.90138365,5.501 3.83698113,3.112 3.73232704,0.007 L3.73232704,0.007 L3.40830189,0.007 Z" id="path-41"></path>
        <path d="M0.244528302,0.007 C1.33333333,7.216 2.7391195,12.791 4.37333333,19.269 L4.37333333,19.269 C8.71849057,36.489 14.6706918,60.071 21.0566038,135.79 L21.0566038,135.79 C21.6513208,143.521 21.8012579,151.211 21.829434,158.007 L21.829434,158.007 L22.1534591,158.007 C22.1242767,151.195 21.9753459,143.485 21.3786164,135.727 L21.3786164,135.727 C14.9866667,59.946 9.02641509,36.331 4.67421384,19.087 L4.67421384,19.087 C3.01484277,12.513 1.62314465,6.993 0.553459119,0.007 L0.553459119,0.007 L0.244528302,0.007 Z" id="path-43"></path>
        <path d="M2.37886792,2.292 C2.37886792,7.339 1.9109434,12.381 1.4591195,17.258 L1.4591195,17.258 C1.00930818,22.111 0.544402516,27.128 0.544402516,32.127 L0.544402516,32.127 C0.544402516,38.535 2.07295597,50.985 3.84402516,65.4 L3.84402516,65.4 C4.77081761,72.944 5.75899371,81.017 6.62540881,89.007 L6.62540881,89.007 L6.95345912,89.007 C6.08402516,80.985 5.08981132,72.88 4.16100629,65.308 L4.16100629,65.308 C2.39396226,50.916 0.867421384,38.487 0.867421384,32.127 L0.867421384,32.127 C0.867421384,27.164 1.33132075,22.164 1.7791195,17.328 L1.7791195,17.328 C2.1927044,12.865 2.61937107,8.263 2.69081761,3.632 L2.69081761,3.632 C6.94440252,21.331 9.24477987,34.427 9.24477987,51.768 L9.24477987,51.768 C9.24477987,53.812 9.22566038,55.899 9.20553459,57.917 L9.20553459,57.917 C9.18440252,59.984 9.16427673,62.12 9.16427673,64.262 L9.16427673,64.262 C9.16427673,68.338 9.23773585,72.524 9.3081761,76.574 L9.3081761,76.574 C9.37861635,80.65 9.45207547,84.861 9.45308176,89.007 L9.45308176,89.007 L9.77610063,89.007 C9.77509434,84.854 9.70264151,80.639 9.63119497,76.562 L9.63119497,76.562 C9.56075472,72.516 9.4872956,68.33 9.4872956,64.262 L9.4872956,64.262 C9.4872956,62.124 9.50842767,59.989 9.52855346,57.925 L9.52855346,57.925 C9.54867925,55.905 9.56779874,53.816 9.56779874,51.768 L9.56779874,51.768 C9.56779874,33.945 7.15169811,20.598 2.69081761,2.206 L2.69081761,2.206 L2.37886792,0.914 L2.37886792,2.292 Z" id="path-45"></path>
        <path d="M0.981132075,0.007 C1.47823899,3.938 1.53559748,7.966 1.53559748,12.077 L1.53559748,12.077 L1.53459119,14.259 C1.53459119,26.461 2.68578616,30.173 3.61056604,33.156 L3.61056604,33.156 C4.2827673,35.32 4.86238994,37.188 4.86238994,41.723 L4.86238994,41.723 C4.86238994,45.404 4.39647799,49.167 3.90440252,53.151 L3.90440252,53.151 C3.40930818,57.154 2.89811321,61.293 2.8991195,65.362 L2.8991195,65.362 C2.8991195,69.474 3.27044025,73.496 3.66490566,77.758 L3.66490566,77.758 L3.71924528,78.338 C5.24880503,90.165 5.76201258,101.305 6.25811321,112.078 L6.25811321,112.078 C6.97358491,127.601 7.6518239,142.287 11.1798742,158.007 L11.1798742,158.007 L11.52,158.007 C7.97484277,142.287 7.29660377,127.584 6.58113208,112.042 L6.58113208,112.042 C6.08301887,101.254 5.56880503,90.098 4.0372327,78.254 L4.0372327,78.254 L3.98490566,77.686 C3.59245283,73.445 3.22213836,69.438 3.22213836,65.362 L3.22213836,65.362 C3.22213836,61.34 3.73031447,57.225 4.22138365,53.245 L4.22138365,53.245 C4.71647799,49.237 5.18540881,45.452 5.18540881,41.723 L5.18540881,41.723 C5.18540881,37.074 4.59069182,35.159 3.90238994,32.941 L3.90238994,32.941 C2.99169811,30.004 1.85761006,26.347 1.85761006,14.259 L1.85761006,14.259 L1.85861635,12.077 C1.85861635,7.973 1.80226415,3.948 1.31119497,0.007 L1.31119497,0.007 L0.981132075,0.007 Z" id="path-47"></path>
        <path d="M0.690314465,0.007 C2.30742138,41.282 8.00301887,59.402 11.6256604,70.913 L11.6256604,70.913 C12.5071698,73.717 13.2679245,76.139 13.7992453,78.367 L13.7992453,78.367 C16.4397484,90.791 18.2178616,103.474 19.4938365,116.233 L19.4938365,116.233 L19.4938365,113.1 C18.2420126,101.348 16.5413836,89.668 14.1041509,78.202 L14.1041509,78.202 C13.5657862,75.943 12.8010063,73.511 11.9154717,70.695 L11.9154717,70.695 C8.30591195,59.22 2.62842767,41.163 1.01433962,0.007 L1.01433962,0.007 L0.690314465,0.007 Z" id="path-49"></path>
        <path d="M1.22062893,0.021 C1.17836478,0.024 1.13509434,0.037 1.09383648,0.062 L1.09383648,0.062 C0.675220126,0.305 0.498113208,2.095 0.489056604,4.889 L0.489056604,4.889 L0.489056604,5.302 C0.508176101,11.971 1.4118239,23.847 2.33257862,34.266 L2.33257862,34.266 C3.10339623,42.991 4.03018868,52.234 4.89358491,60.007 L4.89358491,60.007 L5.22163522,60.007 C4.35622642,52.225 3.42540881,42.952 2.65257862,34.198 L2.65257862,34.198 C0.513207547,9.998 0.504150943,0.939 1.20754717,0.53 L1.20754717,0.53 C1.23672956,0.513 1.4963522,0.433 2.11924528,2.348 L2.11924528,2.348 C3.73333333,10.835 4.96301887,19.597 6.15647799,28.068 L6.15647799,28.068 C7.15169811,35.152 8.1791195,42.436 9.4309434,49.599 L9.4309434,49.599 L9.4309434,47.667 C8.32,41.098 7.38213836,34.446 6.47044025,27.962 L6.47044025,27.962 C5.27899371,19.481 4.04628931,10.711 2.41811321,2.167 L2.41811321,2.167 C1.95119497,0.723 1.58389937,0.041 1.24981132,0.021 L1.24981132,0.021 L1.22062893,0.021 Z" id="path-51"></path>
        <path d="M0.865408805,0.007 C1.35647799,43.344 6.83069182,63.963 12.6108176,85.733 L12.6108176,85.733 C12.8915723,86.794 13.1743396,87.857 13.4561006,88.927 L13.4561006,88.927 L13.4561006,87.608 C13.272956,86.919 13.0918239,86.231 12.9096855,85.543 L12.9096855,85.543 C7.14163522,63.819 1.67949686,43.245 1.18842767,0.007 L1.18842767,0.007 L0.865408805,0.007 Z" id="path-53"></path>
        <path d="M18.3396226,0.586 C8.27672956,0.586 0.117735849,7.547 0.117735849,16.132 L0.117735849,16.132 L0.117735849,25.007 L78.208805,25.007 L78.208805,16.132 C78.208805,7.547 70.0518239,0.586 59.9879245,0.586 L59.9879245,0.586 L18.3396226,0.586 Z" id="path-55"></path>
        <path d="M10.7753459,29.629 L10.7753459,32.382 C10.7049057,32.381 10.6354717,32.373 10.5650314,32.373 L10.5650314,32.373 C4.93283019,32.373 0.368301887,36.351 0.368301887,41.26 L0.368301887,41.26 C0.368301887,46.17 4.93283019,50.147 10.5650314,50.147 L10.5650314,50.147 C10.9343396,50.147 11.2986164,50.13 11.6578616,50.096 L11.6578616,50.096 C15.1064151,62.983 28.3602516,72.586 44.1952201,72.586 L44.1952201,72.586 C60.0301887,72.586 73.2830189,62.983 76.7325786,50.096 L76.7325786,50.096 C77.0918239,50.13 77.4561006,50.147 77.8254088,50.147 L77.8254088,50.147 C83.4566038,50.147 88.0211321,46.17 88.0211321,41.26 L88.0211321,41.26 C88.0211321,36.351 83.4566038,32.373 77.8254088,32.373 L77.8254088,32.373 C77.7549686,32.373 77.6855346,32.381 77.6140881,32.382 L77.6140881,32.382 L77.6140881,29.629 C77.6140881,13.54 62.6515723,0.498 44.1952201,0.498 L44.1952201,0.498 C25.7378616,0.498 10.7753459,13.54 10.7753459,29.629 L10.7753459,29.629 Z" id="path-57"></path>
        <path d="M16.2535849,0.678 C9.4490566,1.854 3.89836478,6.321 1.79220126,12.319 L1.79220126,12.319 L1.68251572,12.634 C0.394465409,16.3 0.499119497,20.253 1.98037736,23.859 L1.98037736,23.859 L6.90616352,35.842 C8.50716981,34.858 10.4432704,34.281 12.5303145,34.281 L12.5303145,34.281 L20.1660377,35.89 L24.1026415,32.257 L24.1026415,32.256 C27.1033962,29.686 31.0389937,25.042 34.2550943,16.897 L34.2550943,16.897 C30.5479245,12.525 27.8198742,7.437 26.3355975,1.917 L26.3355975,1.917 C26.2893082,1.746 26.2581132,1.576 26.2369811,1.405 L26.2369811,1.405 L25.8757233,1.293 C23.9054088,0.684 21.8465409,0.376 19.7816352,0.376 L19.7816352,0.376 C18.6022642,0.376 17.4208805,0.476 16.2535849,0.678 L16.2535849,0.678 Z" id="path-59"></path>
        <path d="M1.95622642,7.597 C0.851320755,8.558 0.338113208,10.02 0.726540881,11.455 L0.726540881,11.455 C3.81081761,22.843 12.1177358,32.432 23.4867925,37.724 L23.4867925,37.724 L23.5028931,37.731 C25.9572327,38.873 28.5202516,39.806 31.1587421,40.518 L31.1587421,40.518 C31.8158491,40.695 32.3441509,40.008 31.9466667,39.495 L31.9466667,39.495 L26.4241509,32.375 C25.9431447,31.754 26.789434,30.996 27.4455346,31.461 L27.4455346,31.461 C33.5527044,35.782 45.4168553,42.94 57.4188679,43.3 L57.4188679,43.3 L59.3750943,38.463 C61.6211321,32.904 61.7489308,26.806 59.7383648,21.171 L59.7383648,21.171 C57.1230189,13.836 51.1466667,8.007 43.5069182,5.134 L43.5069182,5.134 L43.5069182,5.13 C35.6377358,1.63 28.8110692,0.393 23.0953459,0.393 L23.0953459,0.393 C9.2991195,0.392 1.95622642,7.597 1.95622642,7.597 L1.95622642,7.597 Z" id="path-61"></path>
        <path d="M19.2845283,3.843 C19.1466667,3.852 19.008805,3.863 18.8709434,3.869 L18.8709434,3.869 C18.6555975,3.881 18.4422642,3.891 18.2269182,3.899 L18.2269182,3.899 C17.7398742,3.918 17.2518239,3.93 16.7597484,3.93 L16.7597484,3.93 C16.267673,3.93 15.7796226,3.918 15.2925786,3.899 L15.2925786,3.899 C15.0772327,3.891 14.8628931,3.881 14.6485535,3.869 L14.6485535,3.869 C14.5106918,3.863 14.3728302,3.852 14.2359748,3.843 L14.2359748,3.843 C9.20754717,3.531 4.47899371,2.305 0.29081761,0.346 L0.29081761,0.346 L0.29081761,3.703 C0.29081761,11.51 7.42742138,17.838 16.229434,17.838 L16.229434,17.838 L17.2890566,17.838 C26.0920755,17.838 33.227673,11.51 33.227673,3.703 L33.227673,3.703 L33.227673,0.346 C29.0405031,2.305 24.312956,3.531 19.2845283,3.843 L19.2845283,3.843 Z" id="path-63"></path>
        <path d="M0.603773585,1.195 C0.169056604,1.851 0.420628931,2.691 1.1672956,3.071 L1.1672956,3.071 L8.41861635,6.784 L1.1672956,10.495 C0.420628931,10.876 0.169056604,11.717 0.603773585,12.371 L0.603773585,12.371 C0.893584906,12.808 1.41685535,13.054 1.95522013,13.054 L1.95522013,13.054 C2.22188679,13.054 2.49257862,12.994 2.74012579,12.866 L2.74012579,12.866 L10.6566038,8.816 C11.488805,8.39 11.9859119,7.63 11.9859119,6.784 L11.9859119,6.784 C11.9859119,5.937 11.488805,5.177 10.6566038,4.75 L10.6566038,4.75 L2.74012579,0.7 C2.49257862,0.573 2.22188679,0.513 1.95522013,0.513 L1.95522013,0.513 C1.41685535,0.513 0.893584906,0.758 0.603773585,1.195 L0.603773585,1.195 Z" id="path-65"></path>
        <path d="M9.8163522,0.701 L1.9008805,4.752 C1.06867925,5.177 0.571572327,5.937 0.571572327,6.784 L0.571572327,6.784 C0.571572327,7.63 1.06867925,8.39 1.9008805,8.816 L1.9008805,8.816 L9.81735849,12.866 C10.0638994,12.994 10.3345912,13.054 10.6022642,13.054 L10.6022642,13.054 C11.1386164,13.054 11.6628931,12.808 11.9537107,12.372 L11.9537107,12.372 C12.3874214,11.717 12.1358491,10.876 11.3901887,10.495 L11.3901887,10.495 L4.13685535,6.784 L11.3901887,3.072 C12.1358491,2.691 12.3874214,1.851 11.9537107,1.196 L11.9537107,1.196 C11.6628931,0.758 11.1406289,0.514 10.6022642,0.514 L10.6022642,0.514 C10.3355975,0.514 10.0649057,0.574 9.8163522,0.701 L9.8163522,0.701 Z" id="path-67"></path>
        <path d="M1.07773585,6.206 C-1.47823899,9.589 0.952955975,14.146 5.54062893,14.727 L5.54062893,14.727 C7.48176101,14.972 9.56377358,15.106 11.7283019,15.106 L11.7283019,15.106 C13.8928302,15.106 15.9748428,14.972 17.9159748,14.727 L17.9159748,14.727 C22.5036478,14.146 24.9348428,9.589 22.3798742,6.206 L22.3798742,6.206 C19.8883019,2.908 16.0432704,0.793999646 11.7283019,0.793999646 L11.7283019,0.793999646 C7.41232704,0.793 3.56830189,2.908 1.07773585,6.206 L1.07773585,6.206 Z" id="path-69"></path>
        <path d="M2.16855346,6.736 C0.803018868,8.618 0.613836478,10.972 1.66037736,13.034 L1.66037736,13.034 C2.70490566,15.086 4.79597484,16.505 7.2563522,16.829 L7.2563522,16.829 C9.25484277,17.092 11.3469182,17.226 13.4752201,17.226 L13.4752201,17.226 C15.603522,17.226 17.6966038,17.092 19.6940881,16.828 L19.6940881,16.828 C22.1544654,16.504 24.2465409,15.086 25.2890566,13.034 L25.2890566,13.034 C26.3366038,10.972 26.1474214,8.618 24.7808805,6.736 L24.7808805,6.736 C22.0397484,2.959 17.92,0.794 13.4752201,0.794 L13.4752201,0.794 C9.03144654,0.794 4.91069182,2.959 2.16855346,6.736 L2.16855346,6.736 Z M7.55320755,15.033 C5.78213836,14.801 4.27471698,13.773 3.51798742,12.285 L3.51798742,12.285 C2.7572327,10.788 2.89308176,9.082 3.88025157,7.722 L3.88025157,7.722 C6.24,4.473 9.73584906,2.61 13.4752201,2.61 L13.4752201,2.61 C17.2145912,2.61 20.7114465,4.473 23.0701887,7.721 L23.0701887,7.721 C24.0563522,9.082 24.1932075,10.788 23.4314465,12.285 L23.4314465,12.285 C22.6767296,13.773 21.1672956,14.801 19.3972327,15.033 L19.3972327,15.033 C17.4963522,15.283 15.4857862,15.408 13.4752201,15.408 L13.4752201,15.408 C11.4636478,15.408 9.45308176,15.283 7.55320755,15.033 L7.55320755,15.033 Z" id="path-71"></path>
        <path d="M13.9361006,0.275 C13.3584906,0.275 12.8895597,0.688 12.8895597,1.197 L12.8895597,1.197 L12.8895597,13.865 C12.3008805,13.775 11.6991195,13.722 11.0812579,13.722 L11.0812579,13.722 C5.22867925,13.722 0.486037736,17.898 0.486037736,23.051 L0.486037736,23.051 C0.486037736,28.14 5.11597484,32.27 10.8689308,32.37 L10.8689308,32.37 C13.0545912,35.682 17.1250314,37.91 21.7881761,37.91 L21.7881761,37.91 C26.4543396,37.91 30.5257862,35.68 32.7104403,32.366 L32.7104403,32.366 C38.4120755,32.213 42.983648,28.107 42.983648,23.051 L42.983648,23.051 C42.9846541,17.898 38.24,13.722 32.3884277,13.722 L32.3884277,13.722 C31.8077987,13.722 31.2402516,13.772 30.6867925,13.852 L30.6867925,13.852 L30.6867925,1.197 C30.6867925,0.688 30.2178616,0.275 29.6392453,0.275 L29.6392453,0.275 L13.9361006,0.275 Z" id="path-73"></path>
        <path d="M0.796981132,1.317 L0.796981132,12.725 C0.796981132,13.234 1.27295597,13.646 1.85962264,13.646 L1.85962264,13.646 C2.44628931,13.646 2.92226415,13.234 2.92226415,12.725 L2.92226415,12.725 L2.92226415,1.317 C2.92226415,0.808 2.44628931,0.395 1.85962264,0.395 L1.85962264,0.395 C1.27295597,0.395 0.796981132,0.808 0.796981132,1.317 L0.796981132,1.317 Z" id="path-75"></path>
        <path d="M0.602767296,1.148 L0.602767296,12.556 C0.602767296,13.065 1.07773585,13.478 1.66540881,13.478 L1.66540881,13.478 C2.25308176,13.478 2.72704403,13.065 2.72704403,12.556 L2.72704403,12.556 L2.72704403,1.148 C2.72704403,0.638 2.25308176,0.226 1.66540881,0.226 L1.66540881,0.226 C1.07773585,0.226 0.602767296,0.638 0.602767296,1.148 L0.602767296,1.148 Z" id="path-77"></path>
        <path d="M0.295849057,1.317 L0.295849057,12.725 C0.295849057,13.234 0.771823899,13.646 1.35849057,13.646 L1.35849057,13.646 C1.94515723,13.646 2.42113208,13.234 2.42113208,12.725 L2.42113208,12.725 L2.42113208,1.317 C2.42113208,0.808 1.94616352,0.395 1.35849057,0.395 L1.35849057,0.395 C0.771823899,0.395 0.295849057,0.808 0.295849057,1.317 L0.295849057,1.317 Z" id="path-79"></path>
    </defs>
    <g id="Page-1" stroke="none" stroke-width="1" fill="none" fill-rule="evenodd">
        <g id="Learn-/-Ideal-state-" transform="translate(-261.000000, -1472.000000)">
            <g id="cough" transform="translate(261.000000, 1472.000000)">
                <g id="Group-3" transform="translate(0.000000, 0.810000)">
                    <mask id="mask-2" fill="white">
                        <use xlink:href="#path-1"></use>
                    </mask>
                    <g id="Clip-2"></g>
                    <polygon id="Fill-1" fill="#0071BC" mask="url(#mask-2)" points="-4.50213836 164.015 164.400503 164.015 164.400503 -4.983 -4.50213836 -4.983"></polygon>
                </g>
                <g id="Group-6" transform="translate(0.000000, 0.810000)">
                    <mask id="mask-4" fill="white">
                        <use xlink:href="#path-3"></use>
                    </mask>
                    <g id="Clip-5"></g>
                    <polygon id="Fill-4" fill="#00507C" mask="url(#mask-4)" points="-4.50213836 75.539 164.400503 75.539 164.400503 -4.983 -4.50213836 -4.983"></polygon>
                </g>
                <g id="Group-9" transform="translate(0.000000, 47.810000)">
                    <mask id="mask-6" fill="white">
                        <use xlink:href="#path-5"></use>
                    </mask>
                    <g id="Clip-8"></g>
                    <polygon id="Fill-7" fill="#0C84C5" mask="url(#mask-6)" points="-4.50113208 85.883 16.3260377 85.883 16.3260377 -4.774 -4.50113208 -4.774"></polygon>
                </g>
                <g id="Group-12" transform="translate(0.000000, 80.810000)">
                    <mask id="mask-8" fill="white">
                        <use xlink:href="#path-7"></use>
                    </mask>
                    <g id="Clip-11"></g>
                    <polygon id="Fill-10" fill="#0C84C5" mask="url(#mask-8)" points="-4.50213836 17.308 6.05685535 17.308 6.05685535 -4.836 -4.50213836 -4.836"></polygon>
                </g>
                <g id="Group-15" transform="translate(0.000000, 0.810000)">
                    <mask id="mask-10" fill="white">
                        <use xlink:href="#path-9"></use>
                    </mask>
                    <g id="Clip-14"></g>
                    <polygon id="Fill-13" fill="#0C84C5" mask="url(#mask-10)" points="-4.50213836 62.053 32.852327 62.053 32.852327 -4.983 -4.50213836 -4.983"></polygon>
                </g>
                <g id="Group-18" transform="translate(6.037736, 0.810000)">
                    <mask id="mask-12" fill="white">
                        <use xlink:href="#path-11"></use>
                    </mask>
                    <g id="Clip-17"></g>
                    <polygon id="Fill-16" fill="#0C84C5" mask="url(#mask-12)" points="-4.42163522 164.015 35.8108176 164.015 35.8108176 -4.983 -4.42163522 -4.983"></polygon>
                </g>
                <g id="Group-21" transform="translate(23.144654, 23.810000)">
                    <mask id="mask-14" fill="white">
                        <use xlink:href="#path-13"></use>
                    </mask>
                    <g id="Clip-20"></g>
                    <polygon id="Fill-19" fill="#0C84C5" mask="url(#mask-14)" points="-4.97006289 141.015 20.4709434 141.015 20.4709434 -4.783 -4.97006289 -4.783"></polygon>
                </g>
                <g id="Group-24" transform="translate(35.220126, 0.810000)">
                    <mask id="mask-16" fill="white">
                        <use xlink:href="#path-15"></use>
                    </mask>
                    <g id="Clip-23"></g>
                    <polygon id="Fill-22" fill="#0C84C5" mask="url(#mask-16)" points="-4.92477987 164.015 26.1383648 164.015 26.1383648 -4.983 -4.92477987 -4.983"></polygon>
                </g>
                <g id="Group-27" transform="translate(42.264151, 0.810000)">
                    <mask id="mask-18" fill="white">
                        <use xlink:href="#path-17"></use>
                    </mask>
                    <g id="Clip-26"></g>
                    <polygon id="Fill-25" fill="#0C84C5" mask="url(#mask-18)" points="-4.78289308 40.686 12.8885535 40.686 12.8885535 -4.983 -4.78289308 -4.983"></polygon>
                </g>
                <g id="Group-30" transform="translate(7.044025, 0.810000)">
                    <mask id="mask-20" fill="white">
                        <use xlink:href="#path-19"></use>
                    </mask>
                    <g id="Clip-29"></g>
                    <polygon id="Fill-28" fill="#0C84C5" mask="url(#mask-20)" points="-4.52930818 36.193 19.3318239 36.193 19.3318239 -4.982 -4.52930818 -4.982"></polygon>
                </g>
                <g id="Group-33" transform="translate(61.383648, 0.810000)">
                    <mask id="mask-22" fill="white">
                        <use xlink:href="#path-21"></use>
                    </mask>
                    <g id="Clip-32"></g>
                    <polygon id="Fill-31" fill="#0C84C5" mask="url(#mask-22)" points="-4.57559748 164.015 19.8701887 164.015 19.8701887 -4.983 -4.57559748 -4.983"></polygon>
                </g>
                <g id="Group-36" transform="translate(67.421384, 0.810000)">
                    <mask id="mask-24" fill="white">
                        <use xlink:href="#path-23"></use>
                    </mask>
                    <g id="Clip-35"></g>
                    <polygon id="Fill-34" fill="#0C84C5" mask="url(#mask-24)" points="-4.88352201 78.622 19.1456604 78.622 19.1456604 -4.982 -4.88352201 -4.982"></polygon>
                </g>
                <g id="Group-39" transform="translate(44.276730, 50.810000)">
                    <mask id="mask-26" fill="white">
                        <use xlink:href="#path-25"></use>
                    </mask>
                    <g id="Clip-38"></g>
                    <polygon id="Fill-37" fill="#0C84C5" mask="url(#mask-26)" points="-4.86238994 114.014 28.0020126 114.014 28.0020126 -4.507 -4.86238994 -4.507"></polygon>
                </g>
                <g id="Group-42" transform="translate(55.345912, 79.810000)">
                    <mask id="mask-28" fill="white">
                        <use xlink:href="#path-27"></use>
                    </mask>
                    <g id="Clip-41"></g>
                    <polygon id="Fill-40" fill="#0C84C5" mask="url(#mask-28)" points="-4.30490566 85.015 8.30490566 85.015 8.30490566 -4.736 -4.30490566 -4.736"></polygon>
                </g>
                <g id="Group-45" transform="translate(81.509434, 0.810000)">
                    <mask id="mask-30" fill="white">
                        <use xlink:href="#path-29"></use>
                    </mask>
                    <g id="Clip-44"></g>
                    <polygon id="Fill-43" fill="#0C84C5" mask="url(#mask-30)" points="-4.3672956 164.015 14.9373585 164.015 14.9373585 -4.982 -4.3672956 -4.982"></polygon>
                </g>
                <g id="Group-48" transform="translate(89.559748, 0.810000)">
                    <mask id="mask-32" fill="white">
                        <use xlink:href="#path-31"></use>
                    </mask>
                    <g id="Clip-47"></g>
                    <polygon id="Fill-46" fill="#0C84C5" mask="url(#mask-32)" points="-4.58264151 95.023 19.6306918 95.023 19.6306918 -4.982 -4.58264151 -4.982"></polygon>
                </g>
                <g id="Group-51" transform="translate(99.622642, 0.810000)">
                    <mask id="mask-34" fill="white">
                        <use xlink:href="#path-33"></use>
                    </mask>
                    <g id="Clip-50"></g>
                    <polygon id="Fill-49" fill="#0C84C5" mask="url(#mask-34)" points="-4.46792453 158.767 14.9071698 158.767 14.9071698 -4.983 -4.46792453 -4.983"></polygon>
                </g>
                <g id="Group-54" transform="translate(114.716981, 0.810000)">
                    <mask id="mask-36" fill="white">
                        <use xlink:href="#path-35"></use>
                    </mask>
                    <g id="Clip-53"></g>
                    <polygon id="Fill-52" fill="#0C84C5" mask="url(#mask-36)" points="-4.99823899 95.218 12.2213836 95.218 12.2213836 -4.983 -4.99823899 -4.983"></polygon>
                </g>
                <g id="Group-57" transform="translate(110.691824, 87.810000)">
                    <mask id="mask-38" fill="white">
                        <use xlink:href="#path-37"></use>
                    </mask>
                    <g id="Clip-56"></g>
                    <polygon id="Fill-55" fill="#0C84C5" mask="url(#mask-38)" points="-4.46691824 77.015 21.0535849 77.015 21.0535849 -4.137 -4.46691824 -4.137"></polygon>
                </g>
                <g id="Group-60" transform="translate(107.672956, 72.810000)">
                    <mask id="mask-40" fill="white">
                        <use xlink:href="#path-39"></use>
                    </mask>
                    <g id="Clip-59"></g>
                    <polygon id="Fill-58" fill="#0C84C5" mask="url(#mask-40)" points="-4.66415094 52.479 8.97610063 52.479 8.97610063 -4.152 -4.66415094 -4.152"></polygon>
                </g>
                <g id="Group-63" transform="translate(93.584906, 0.810000)">
                    <mask id="mask-42" fill="white">
                        <use xlink:href="#path-41"></use>
                    </mask>
                    <g id="Clip-62"></g>
                    <polygon id="Fill-61" fill="#0C84C5" mask="url(#mask-42)" points="-4.2163522 51.84 8.93283019 51.84 8.93283019 -4.982 -4.2163522 -4.982"></polygon>
                </g>
                <g id="Group-66" transform="translate(126.792453, 0.810000)">
                    <mask id="mask-44" fill="white">
                        <use xlink:href="#path-43"></use>
                    </mask>
                    <g id="Clip-65"></g>
                    <polygon id="Fill-64" fill="#0C84C5" mask="url(#mask-44)" points="-4.78691824 164.015 27.1879245 164.015 27.1879245 -4.982 -4.78691824 -4.982"></polygon>
                </g>
                <g id="Group-69" transform="translate(133.836478, 69.810000)">
                    <mask id="mask-46" fill="white">
                        <use xlink:href="#path-45"></use>
                    </mask>
                    <g id="Clip-68"></g>
                    <polygon id="Fill-67" fill="#0C84C5" mask="url(#mask-46)" points="-4.48704403 95.015 14.8075472 95.015 14.8075472 -4.075 -4.48704403 -4.075"></polygon>
                </g>
                <g id="Group-72" transform="translate(123.773585, 0.810000)">
                    <mask id="mask-48" fill="white">
                        <use xlink:href="#path-47"></use>
                    </mask>
                    <g id="Clip-71"></g>
                    <polygon id="Fill-70" fill="#0C84C5" mask="url(#mask-48)" points="-4.05031447 164.015 16.7859119 164.015 16.7859119 -4.982 -4.05031447 -4.982"></polygon>
                </g>
                <g id="Group-75" transform="translate(139.874214, 0.810000)">
                    <mask id="mask-50" fill="white">
                        <use xlink:href="#path-49"></use>
                    </mask>
                    <g id="Clip-74"></g>
                    <polygon id="Fill-73" fill="#0C84C5" mask="url(#mask-50)" points="-4.34012579 121.222 24.5262893 121.222 24.5262893 -4.983 -4.34012579 -4.983"></polygon>
                </g>
                <g id="Group-78" transform="translate(149.937107, 98.810000)">
                    <mask id="mask-52" fill="white">
                        <use xlink:href="#path-51"></use>
                    </mask>
                    <g id="Clip-77"></g>
                    <polygon id="Fill-76" fill="#0C84C5" mask="url(#mask-52)" points="-4.54138365 66.014 14.4633962 66.014 14.4633962 -4.969 -4.54138365 -4.969"></polygon>
                </g>
                <g id="Group-81" transform="translate(145.911950, 0.810000)">
                    <mask id="mask-54" fill="white">
                        <use xlink:href="#path-53"></use>
                    </mask>
                    <g id="Clip-80"></g>
                    <polygon id="Fill-79" fill="#0C84C5" mask="url(#mask-54)" points="-4.16503145 93.915 18.4885535 93.915 18.4885535 -4.983 -4.16503145 -4.983"></polygon>
                </g>
                <g id="Group-84" transform="translate(41.257862, 133.810000)">
                    <mask id="mask-56" fill="white">
                        <use xlink:href="#path-55"></use>
                    </mask>
                    <g id="Clip-83"></g>
                    <polygon id="Fill-82" fill="#B4E0FA" mask="url(#mask-56)" points="-4.91371069 30.489 83.2402516 30.489 83.2402516 -4.403 -4.91371069 -4.403"></polygon>
                </g>
                <g id="Group-87" transform="translate(36.226415, 61.810000)">
                    <mask id="mask-58" fill="white">
                        <use xlink:href="#path-57"></use>
                    </mask>
                    <g id="Clip-86"></g>
                    <polygon id="Fill-85" fill="#F9CFCF" mask="url(#mask-58)" points="-4.66213836 77.575 93.0525786 77.575 93.0525786 -4.491 -4.66213836 -4.491"></polygon>
                </g>
                <g id="Group-90" transform="translate(34.213836, 60.810000)">
                    <mask id="mask-60" fill="white">
                        <use xlink:href="#path-59"></use>
                    </mask>
                    <g id="Clip-89"></g>
                    <polygon id="Fill-88" fill="#00507C" mask="url(#mask-60)" points="-4.24352201 40.879 39.2875472 40.879 39.2875472 -4.614 -4.24352201 -4.614"></polygon>
                </g>
                <g id="Group-93" transform="translate(59.371069, 51.810000)">
                    <mask id="mask-62" fill="white">
                        <use xlink:href="#path-61"></use>
                    </mask>
                    <g id="Clip-92"></g>
                    <polygon id="Fill-91" fill="#00507C" mask="url(#mask-62)" points="-4.43371069 48.29 66.1896855 48.29 66.1896855 -4.597 -4.43371069 -4.597"></polygon>
                </g>
                <g id="Group-96" transform="translate(63.396226, 129.810000)">
                    <mask id="mask-64" fill="white">
                        <use xlink:href="#path-63"></use>
                    </mask>
                    <g id="Clip-95"></g>
                    <polygon id="Fill-94" fill="#F9CFCF" mask="url(#mask-64)" points="-4.74062893 22.828 38.2581132 22.828 38.2581132 -4.643 -4.74062893 -4.643"></polygon>
                </g>
                <g id="Group-99" transform="translate(57.358491, 95.810000)">
                    <mask id="mask-66" fill="white">
                        <use xlink:href="#path-65"></use>
                    </mask>
                    <g id="Clip-98"></g>
                    <polygon id="Fill-97" fill="#00507C" mask="url(#mask-66)" points="-4.64100629 18.043 17.0173585 18.043 17.0173585 -4.476 -4.64100629 -4.476"></polygon>
                </g>
                <g id="Group-102" transform="translate(89.559748, 95.810000)">
                    <mask id="mask-68" fill="white">
                        <use xlink:href="#path-67"></use>
                    </mask>
                    <g id="Clip-101"></g>
                    <polygon id="Fill-100" fill="#00507C" mask="url(#mask-68)" points="-4.45987421 18.043 17.1974843 18.043 17.1974843 -4.476 -4.45987421 -4.476"></polygon>
                </g>
                <g id="Group-105" transform="translate(68.427673, 110.810000)">
                    <mask id="mask-70" fill="white">
                        <use xlink:href="#path-69"></use>
                    </mask>
                    <g id="Clip-104"></g>
                    <polygon id="Fill-103" fill="#F9A7A7" mask="url(#mask-70)" points="-4.99018868 20.095 28.4467925 20.095 28.4467925 -4.195 -4.99018868 -4.195"></polygon>
                </g>
                <g id="Group-108" transform="translate(66.415094, 110.810000)">
                    <mask id="mask-72" fill="white">
                        <use xlink:href="#path-71"></use>
                    </mask>
                    <g id="Clip-107"></g>
                    <polygon id="Fill-106" fill="#00507C" mask="url(#mask-72)" points="-4.04025157 22.215 30.9916981 22.215 30.9916981 -4.195 -4.04025157 -4.195"></polygon>
                </g>
                <g id="Group-111" transform="translate(57.358491, 119.810000)">
                    <mask id="mask-74" fill="white">
                        <use xlink:href="#path-73"></use>
                    </mask>
                    <g id="Clip-110"></g>
                    <polygon id="Fill-109" fill="#E0EBFC" mask="url(#mask-74)" points="-4.54540881 42.898 48.0150943 42.898 48.0150943 -4.715 -4.54540881 -4.715"></polygon>
                </g>
                <g id="Group-114" transform="translate(72.452830, 121.810000)">
                    <mask id="mask-76" fill="white">
                        <use xlink:href="#path-75"></use>
                    </mask>
                    <g id="Clip-113"></g>
                    <polygon id="Fill-112" fill="#A4C9FF" mask="url(#mask-76)" points="-4.23446541 18.636 7.9527044 18.636 7.9527044 -4.594 -4.23446541 -4.594"></polygon>
                </g>
                <g id="Group-117" transform="translate(78.490566, 127.810000)">
                    <mask id="mask-78" fill="white">
                        <use xlink:href="#path-77"></use>
                    </mask>
                    <g id="Clip-116"></g>
                    <polygon id="Fill-115" fill="#A4C9FF" mask="url(#mask-78)" points="-4.42867925 18.467 7.75849057 18.467 7.75849057 -4.763 -4.42867925 -4.763"></polygon>
                </g>
                <g id="Group-120" transform="translate(82.515723, 121.810000)">
                    <mask id="mask-80" fill="white">
                        <use xlink:href="#path-79"></use>
                    </mask>
                    <g id="Clip-119"></g>
                    <polygon id="Fill-118" fill="#A4C9FF" mask="url(#mask-80)" points="-4.73559748 18.636 7.45157233 18.636 7.45157233 -4.594 -4.73559748 -4.594"></polygon>
                </g>
            </g>
        </g>
    </g>
</svg>