<?xml version="1.0" encoding="UTF-8"?>
<svg width="159px" height="160px" viewBox="0 0 159 160" version="1.1" xmlns="http://www.w3.org/2000/svg" xmlns:xlink="http://www.w3.org/1999/xlink">
    <!-- Generator: sketchtool 64 (101010) - https://sketch.com -->
    <title>A394FFD7-3E68-415A-8771-E4F61D2060C1</title>
    <desc>Created with sketchtool.</desc>
    <defs>
        <path d="M4.18515723,0.589685535 C1.91798742,0.589685535 0.0835220126,2.42616352 0.0835220126,4.69132075 L0.0835220126,4.69132075 L0.0835220126,155.480755 C0.0835220126,157.745912 1.91798742,159.58239 4.18515723,159.58239 L4.18515723,159.58239 L154.897107,159.58239 C157.162264,159.58239 158.998742,157.745912 158.998742,155.480755 L158.998742,155.480755 L158.998742,4.69132075 C158.998742,2.42616352 157.162264,0.589685535 154.897107,0.589685535 L154.897107,0.589685535 L4.18515723,0.589685535 Z" id="path-1"></path>
        <path d="M4.18515723,0.589685535 C1.91798742,0.589685535 0.0835220126,2.42616352 0.0835220126,4.69132075 L0.0835220126,4.69132075 L0.0835220126,70.6958491 C43.1889308,36.4548428 115.980881,37.5275472 158.998742,63.8430189 L158.998742,63.8430189 L158.998742,4.69132075 C158.998742,2.42616352 157.162264,0.589685535 154.897107,0.589685535 L154.897107,0.589685535 L4.18515723,0.589685535 Z" id="path-3"></path>
        <path d="M0.0835220126,1.18440252 C1.34138365,4.96100629 2.66566038,8.30691824 3.90842767,11.4455346 L3.90842767,11.4455346 C7.19496855,19.7484277 10.0337107,26.9202516 10.0337107,37.5406289 L10.0337107,37.5406289 C10.0337107,51.3418868 5.20855346,64.5403774 0.0835220126,77.3262893 L0.0835220126,77.3262893 L0.0835220126,78.2792453 C5.33433962,65.2186164 10.3587421,51.7293082 10.3587421,37.5406289 L10.3587421,37.5406289 C10.3587421,26.7763522 7.49886792,19.5501887 4.18616352,11.1828931 L4.18616352,11.1828931 C2.85081761,7.80880503 1.42188679,4.19320755 0.0835220126,0.0674213836 L0.0835220126,0.0674213836 L0.0835220126,1.18440252 Z" id="path-5"></path>
        <path d="M26.6072956,0.589685535 C24.3572327,25.7197484 21.5698113,52.6158491 13.6291824,57.0072956 L13.6291824,57.0072956 C8.92880503,54.5418868 5.26188679,47.6528302 2.73106918,36.5403774 L2.73106918,36.5403774 C1.75295597,31.3871698 0.871446541,26.0769811 0.0835220126,20.7225157 L0.0835220126,20.7225157 L0.0835220126,22.9433962 C0.790943396,27.5974843 1.56981132,32.2062893 2.42113208,36.6953459 L2.42113208,36.6953459 C4.99924528,48.0150943 8.7527044,55.0208805 13.5798742,57.5124528 L13.5798742,57.5124528 L13.6332075,57.5406289 L13.6845283,57.5114465 C21.8535849,53.1079245 24.6671698,25.9391195 26.9363522,0.589685535 L26.9363522,0.589685535 L26.6072956,0.589685535 Z" id="path-7"></path>
        <path d="M30.6324528,0.589685535 C25.363522,64.1811321 16.327044,95.4706918 9.43396226,119.320755 L9.43396226,119.320755 C5.27899371,133.690566 1.92704403,145.304151 0.714465409,159.58239 L0.714465409,159.58239 L1.04251572,159.58239 C2.25610063,145.401761 5.59496855,133.833459 9.72981132,119.526038 L9.72981132,119.526038 C16.6349686,95.6377358 25.6865409,64.2948428 30.9605031,0.589685535 L30.9605031,0.589685535 L30.6324528,0.589685535 Z" id="path-9"></path>
        <path d="M15.2372327,0.251572327 C15.2372327,2.44427673 15.2684277,4.67421384 15.2966038,6.83069182 L15.2966038,6.83069182 C15.3257862,8.98616352 15.3559748,11.2150943 15.3559748,13.4077987 L15.3559748,13.4077987 C15.3559748,30.7371069 13.5366038,33.9119497 11.7755975,36.9831447 L11.7755975,36.9831447 C11.1798742,38.0236478 10.6153459,39.0067925 10.1283019,40.5172327 L10.1283019,40.5172327 C6.21987421,53.3051572 1.67647799,106.305409 0.243522013,136.437736 L0.243522013,136.437736 L0.568553459,136.437736 C1.99849057,106.352704 6.52679245,53.4802516 10.4211321,40.7386164 L10.4211321,40.7386164 C10.8860377,39.2925786 11.4374843,38.3325786 12.0191195,37.3172327 L12.0191195,37.3172327 C13.8193711,34.1766038 15.68,30.9293082 15.68,13.4077987 L15.68,13.4077987 C15.68,11.2100629 15.6498113,8.9791195 15.6226415,6.81962264 L15.6226415,6.81962264 C15.5924528,4.66616352 15.5622642,2.43924528 15.5622642,0.251572327 L15.5622642,0.251572327 L15.2372327,0.251572327 Z" id="path-11"></path>
        <path d="M21.088805,0.589685535 C19.2593711,25.9421384 14.9031447,41.6271698 10.6555975,56.9116981 L10.6555975,56.9116981 C5.34339623,76.0241509 0.326037736,94.0769811 0.326037736,129.166289 L0.326037736,129.166289 C0.326037736,138.526792 0.662138365,148.414591 1.36150943,159.58239 L1.36150943,159.58239 L1.68855346,159.58239 C0.987169811,148.411572 0.652075472,138.523774 0.652075472,129.166289 L0.652075472,129.166289 C0.652075472,94.1816352 5.6563522,76.1750943 10.9524528,57.1119497 L10.9524528,57.1119497 C15.2140881,41.7771069 19.5854088,26.0427673 21.4168553,0.589685535 L21.4168553,0.589685535 L21.088805,0.589685535 Z" id="path-13"></path>
        <path d="M7.66893082,0.589685535 C7.77761006,3.33283019 7.84503145,6.07899371 7.84503145,8.8191195 L7.84503145,8.8191195 C7.84503145,17.5194969 6.90918239,35.488805 4.01308176,35.488805 L4.01308176,35.488805 C1.41081761,35.488805 0.841257862,17.4108176 0.841257862,10.445283 L0.841257862,10.445283 C0.841257862,7.16779874 0.906666667,3.85106918 0.986163522,0.589685535 L0.986163522,0.589685535 L0.659119497,0.589685535 C0.58163522,3.85006289 0.515220126,7.16578616 0.515220126,10.445283 L0.515220126,10.445283 C0.515220126,11.4877987 0.554465409,35.9919497 4.01308176,35.9919497 L4.01308176,35.9919497 C8.05735849,35.9919497 8.17006289,9.0918239 8.17006289,8.8191195 L8.17006289,8.8191195 C8.17006289,6.07899371 8.1036478,3.3318239 7.99496855,0.589685535 L7.99496855,0.589685535 L7.66893082,0.589685535 Z" id="path-15"></path>
        <path d="M14.034717,0.589685535 C11.314717,25.0686792 8.29987421,30.9574843 6.03169811,30.9574843 L6.03169811,30.9574843 C4.07144654,30.9574843 2.35874214,15.3227673 0.933836478,0.589685535 L0.933836478,0.589685535 L0.606792453,0.589685535 C2.43924528,19.4334591 3.91245283,31.4606289 6.03169811,31.4606289 L6.03169811,31.4606289 C9.30716981,31.4606289 12.0986164,21.0978616 14.3698113,0.589685535 L14.3698113,0.589685535 L14.034717,0.589685535 Z" id="path-17"></path>
        <path d="M0.869433962,0.589685535 C0.854339623,2.7954717 0.842264151,5.02037736 0.842264151,7.23320755 L0.842264151,7.23320755 C0.842264151,28.883522 4.44578616,56.8593711 7.93056604,83.9114465 L7.93056604,83.9114465 C11.3680503,110.604277 14.9222642,138.197736 14.9896855,159.58239 L14.9896855,159.58239 L15.3137107,159.58239 C15.2472956,138.147421 11.6900629,110.529811 8.24855346,83.8128302 L8.24855346,83.8128302 C4.76779874,56.7838994 1.1672956,28.8352201 1.1672956,7.23320755 L1.1672956,7.23320755 C1.1672956,5.02037736 1.17937107,2.7954717 1.1954717,0.589685535 L1.1954717,0.589685535 L0.869433962,0.589685535 Z" id="path-19"></path>
        <path d="M13.0244025,0.589685535 C13.8354717,12.8080503 14.2973585,24.9791195 14.2973585,30.7844025 L14.2973585,30.7844025 C14.2973585,37.2236478 14.1283019,43.7645283 13.9813836,49.5325786 L13.9813836,49.5325786 C13.394717,64.0563522 10.514717,73.6442767 9.88880503,73.7469182 L9.88880503,73.7469182 C6.37584906,73.7469182 2.37786164,33.3454088 0.918742138,0.589685535 L0.918742138,0.589685535 L0.59572327,0.589685535 C2.01257862,32.7496855 5.84855346,74.2490566 9.88880503,74.2490566 L9.88880503,74.2490566 C10.9081761,74.2490566 13.7298113,63.8249057 14.3054088,49.5587421 L14.3054088,49.5587421 C14.4543396,43.7816352 14.6233962,37.2327044 14.6233962,30.7844025 L14.6233962,30.7844025 C14.6233962,24.9791195 14.1594969,12.8150943 13.349434,0.589685535 L13.349434,0.589685535 L13.0244025,0.589685535 Z" id="path-21"></path>
        <path d="M3.88125786,46.8548428 C1.75295597,69.9350943 0.447798742,96.4337107 0.447798742,105.270943 L0.447798742,105.270943 C0.447798742,106.643522 0.466918239,107.97283 0.505157233,109.267925 L0.505157233,109.267925 L0.831194969,109.267925 C0.792955975,107.973836 0.772830189,106.643522 0.772830189,105.270943 L0.772830189,105.270943 C0.772830189,87.3398742 5.88176101,1.0918239 13.4893082,1.0918239 L13.4893082,1.0918239 C16.3441509,1.0918239 16.5625157,24.1499371 16.7738365,46.4472956 L16.7738365,46.4472956 C16.8895597,58.7572327 17.0113208,71.4867925 17.5818868,80.5212579 L17.5818868,80.5212579 C18.2510692,90.8719497 20.2626415,100.218365 22.8125786,109.267925 L22.8125786,109.267925 L23.168805,109.267925 C20.601761,100.191195 18.5750943,90.8306918 17.9059119,80.472956 L17.9059119,80.472956 C17.3353459,71.4586164 17.2145912,58.7391195 17.0988679,46.4392453 L17.0988679,46.4392453 C16.8754717,22.8598742 16.6651572,0.588679245 13.4893082,0.588679245 L13.4893082,0.588679245 C9.07371069,0.588679245 5.82842767,25.7479245 3.88125786,46.8548428 L3.88125786,46.8548428 Z" id="path-23"></path>
        <path d="M0.968050314,4.7527044 C0.527295597,6.90314465 0.0704402516,9.12402516 0.0704402516,11.5552201 L0.0704402516,11.5552201 C0.235471698,17.4571069 0.383396226,23.4998742 0.525283019,29.3444025 L0.525283019,29.3444025 C0.931823899,46.0377358 1.35446541,63.2815094 2.26515723,80.0855346 L2.26515723,80.0855346 L2.59220126,80.0855346 C1.67849057,63.2794969 1.25685535,46.0266667 0.850314465,29.325283 L0.850314465,29.325283 C0.708427673,23.4797484 0.561509434,17.4369811 0.395471698,11.5431447 L0.395471698,11.5431447 C0.395471698,9.20352201 0.845283019,7.01886792 1.27899371,4.90465409 L1.27899371,4.90465409 C1.58993711,3.39018868 1.88477987,1.95924528 2.01962264,0.491069182 L2.01962264,0.491069182 L1.69660377,0.420628931 C1.56578616,1.84553459 1.27597484,3.2563522 0.968050314,4.7527044 L0.968050314,4.7527044 Z" id="path-25"></path>
        <path d="M5.28805031,0.589685535 C4.8372327,15.085283 4.48402516,29.7418868 4.48402516,41.7710692 L4.48402516,41.7710692 C4.48402516,50.987673 3.27245283,60.5272956 2.0991195,69.7549686 L2.0991195,69.7549686 C1.10893082,77.561761 0.172075472,84.9348428 0.172075472,90.970566 L0.172075472,90.970566 C0.172075472,101.379623 2.50062893,111.39522 4.7527044,121.079748 L4.7527044,121.079748 C7.0118239,130.796478 9.14515723,139.974843 9.14515723,149.54566 L9.14515723,149.54566 C9.14515723,153.068679 8.91471698,156.38239 8.44377358,159.58239 L8.44377358,159.58239 L8.77886792,159.58239 C9.2427673,156.38239 9.47018868,153.066667 9.47018868,149.54566 L9.47018868,149.54566 C9.47018868,139.887296 7.2281761,130.238994 5.05761006,120.908679 L5.05761006,120.908679 C2.81559748,111.264403 0.496100629,101.290063 0.496100629,90.970566 L0.496100629,90.970566 C0.496100629,84.9841509 1.42993711,77.6342138 2.4191195,69.8535849 L2.4191195,69.8535849 C3.59446541,60.601761 4.8090566,51.0359748 4.8090566,41.7710692 L4.8090566,41.7710692 C4.8090566,29.7449057 5.16226415,15.0872956 5.61207547,0.589685535 L5.61207547,0.589685535 L5.28805031,0.589685535 Z" id="path-27"></path>
        <path d="M13.8928302,0.589685535 C13.4138365,11.5833962 12.8412579,22.7994969 12.212327,33.1532075 L12.212327,33.1532075 C10.0065409,69.4611321 7.51194969,90.2842767 5.36553459,90.2842767 L5.36553459,90.2842767 C4.61081761,90.2842767 4.28981132,89.227673 4.00603774,88.2948428 L4.00603774,88.2948428 C3.96377358,88.1589937 3.9245283,88.0271698 3.89031447,87.9265409 L3.89031447,87.9265409 C1.20855346,77.1139623 1.26289308,69.5828931 1.31320755,62.9373585 L1.31320755,62.9373585 C1.32025157,62.048805 1.32628931,61.1743396 1.32628931,60.3089308 L1.32628931,60.3089308 C1.32628931,45.1210063 0.982138365,29.7428931 0.648050314,14.8709434 L0.648050314,14.8709434 C0.544402516,10.1544654 0.438742138,5.3836478 0.342138365,0.589685535 L0.342138365,0.589685535 L0.0171069182,0.589685535 C0.112704403,5.39069182 0.219371069,10.1655346 0.324025157,14.8890566 L0.324025157,14.8890566 C0.656100629,29.7569811 1.00125786,45.1310692 1.00125786,60.3089308 L1.00125786,60.3089308 C1.00125786,61.172327 0.994213836,62.0447799 0.988176101,62.932327 L0.988176101,62.932327 C0.938867925,69.6221384 0.882515723,77.2045283 3.59345912,88.1298113 L3.59345912,88.1298113 C3.6327044,88.2495597 3.67194969,88.3773585 3.71220126,88.511195 L3.71220126,88.511195 C4.00503145,89.471195 4.40553459,90.789434 5.36553459,90.789434 L5.36553459,90.789434 C8.39949686,90.789434 10.9393711,59.4727044 12.5353459,33.2005031 L12.5353459,33.2005031 C13.165283,22.8337107 13.7408805,11.5984906 14.2188679,0.589685535 L14.2188679,0.589685535 L13.8928302,0.589685535 Z" id="path-29"></path>
        <path d="M9.18339623,0.589685535 C8.8563522,4.97106918 8.50314465,9.50943396 8.13786164,14.1987421 L8.13786164,14.1987421 C6.76930818,31.7846541 5.21761006,51.7172327 4.52025157,71.9033962 L4.52025157,71.9033962 C3.98993711,79.2955975 3.13660377,84.5514465 2.30943396,89.6342138 L2.30943396,89.6342138 C1.21660377,96.3562264 0.184150943,102.706918 0.184150943,112.875472 L0.184150943,112.875472 C0.184150943,122.252075 1.09383648,131.521006 1.97534591,140.484025 L1.97534591,140.484025 C2.44427673,145.254843 2.92930818,150.187673 3.26943396,155.072201 L3.26943396,155.072201 L3.59245283,155.018868 C3.25132075,150.122264 2.76628931,145.184403 2.2963522,140.406541 L2.2963522,140.406541 C1.41786164,131.463648 0.510188679,122.21283 0.510188679,112.875472 L0.510188679,112.875472 C0.510188679,102.768302 1.53559748,96.448805 2.62440252,89.7569811 L2.62440252,89.7569811 C3.45358491,84.6581132 4.3109434,79.3841509 4.84427673,71.9456604 L4.84427673,71.9456604 C5.54163522,51.7625157 7.09232704,31.8379874 8.4608805,14.2581132 L8.4608805,14.2581132 C8.82716981,9.54767296 9.18238994,4.98918239 9.50943396,0.589685535 L9.50943396,0.589685535 L9.18339623,0.589685535 Z" id="path-31"></path>
        <path d="M6.62037736,0.589685535 C6.64251572,1.16427673 6.6636478,1.73987421 6.68679245,2.31144654 L6.68679245,2.31144654 C7.14867925,14.2249057 7.62666667,26.5449057 7.62666667,38.6284277 L7.62666667,38.6284277 C7.62666667,50.7371069 6.95245283,63.9144654 5.77610063,74.7803774 L5.77610063,74.7803774 C4.60779874,85.568805 3.34691824,90.483522 2.66968553,90.483522 L2.66968553,90.483522 C1.66440252,90.483522 1.21257862,85.2085535 1.21257862,81.4651572 L1.21257862,81.4651572 C1.21257862,73.3363522 1.17735849,65.0737107 1.14415094,57.0837736 L1.14415094,57.0837736 C1.1109434,49.0938365 1.07572327,40.8301887 1.07572327,32.7054088 L1.07572327,32.7054088 C1.07572327,22.6405031 1.12704403,11.8218868 1.33735849,0.589685535 L1.33735849,0.589685535 L1.01132075,0.589685535 C0.801006289,11.8218868 0.749685535,22.6405031 0.749685535,32.7054088 L0.749685535,32.7054088 C0.749685535,40.8332075 0.78591195,49.0958491 0.819119497,57.0877987 L0.819119497,57.0877987 C0.852327044,65.0757233 0.88754717,73.3383648 0.88754717,81.4651572 L0.88754717,81.4651572 C0.88754717,81.8545912 0.908679245,90.9856604 2.66968553,90.9856604 L2.66968553,90.9856604 C4.87849057,90.9856604 7.95169811,64.6027673 7.95169811,38.6284277 L7.95169811,38.6284277 C7.95169811,26.528805 7.47371069,14.201761 7.01081761,2.28125786 L7.01081761,2.28125786 C6.98968553,1.71974843 6.96754717,1.15421384 6.94540881,0.589685535 L6.94540881,0.589685535 L6.62037736,0.589685535 Z" id="path-33"></path>
        <path d="M4.6118239,34.170566 C2.17660377,38.9222642 0.253584906,42.6757233 0.253584906,55.0661635 L0.253584906,55.0661635 C0.253584906,60.3954717 0.752704403,65.7660377 1.32930818,71.0289308 L1.32930818,71.0289308 L1.65836478,71.0289308 C1.08075472,65.7610063 0.579622642,60.3844025 0.579622642,55.0661635 L0.579622642,55.0661635 C0.579622642,42.8508176 2.47245283,39.1567296 4.86742138,34.483522 L4.86742138,34.483522 C7.52100629,29.3051572 10.7934591,22.9212579 13.0515723,3.08125786 L13.0515723,3.08125786 C13.1099371,27.5491824 13.8908176,49.9401258 15.4233962,71.0289308 L15.4233962,71.0289308 L15.7504403,71.0289308 C14.1544654,49.081761 13.3725786,25.7187421 13.3725786,0.0754716981 L13.3725786,0.0754716981 L13.0495597,0.0352201258 C10.803522,22.0920755 7.37106918,28.7889308 4.6118239,34.170566 L4.6118239,34.170566 Z" id="path-35"></path>
        <path d="M1.69358491,1.18842767 C2.78138365,5.26188679 3.30968553,9.69056604 3.30968553,14.7230189 L3.30968553,14.7230189 C3.30968553,20.907673 2.51069182,27.2352201 1.73685535,33.3534591 L1.73685535,33.3534591 C1.30616352,36.7537107 0.864402516,40.2515723 0.56754717,43.6789937 L0.56754717,43.6789937 C0.428679245,41.3816352 0.359245283,38.9293082 0.359245283,36.2425157 L0.359245283,36.2425157 C0.359245283,32.7949686 0.471949686,29.3001258 0.578616352,25.9210063 L0.578616352,25.9210063 C0.687295597,22.5157233 0.798993711,18.9937107 0.798993711,15.4948428 L0.798993711,15.4948428 C0.798993711,14.0920755 0.782893082,12.7899371 0.746666667,11.5210063 L0.746666667,11.5210063 L0.42163522,11.5431447 C0.456855346,12.8050314 0.473962264,14.0981132 0.473962264,15.4948428 L0.473962264,15.4948428 C0.473962264,18.9826415 0.36327044,22.4966038 0.253584906,25.8948428 L0.253584906,25.8948428 C0.146918239,29.2820126 0.0352201258,32.7818868 0.0352201258,36.2425157 L0.0352201258,36.2425157 C0.0352201258,39.8118239 0.155974843,42.9735849 0.402515723,45.9059119 L0.402515723,45.9059119 L0.582641509,48.0422642 L0.725534591,45.8998742 C0.998238994,41.8133333 1.53559748,37.5607547 2.05584906,33.4490566 L2.05584906,33.4490566 C2.83169811,27.3066667 3.63572327,20.9559748 3.63572327,14.7230189 L3.63572327,14.7230189 C3.63572327,9.62213836 3.09735849,5.13106918 1.99345912,0.994213836 L1.99345912,0.994213836 L1.69358491,1.18842767 Z" id="path-37"></path>
        <path d="M3.02792453,0.589685535 C3.12150943,3.44050314 3.17886792,5.65031447 3.17886792,7.1718239 L3.17886792,7.1718239 C3.17886792,21.631195 1.54062893,43.7745912 0.846289308,46.5177358 L0.846289308,46.5177358 C0.790943396,46.0981132 0.724528302,45.0576101 0.724528302,42.490566 L0.724528302,42.490566 C0.724528302,41.3192453 0.866415094,40.1177358 1.16830189,38.7079245 L1.16830189,38.7079245 L0.860377358,38.5469182 C0.545408805,40.0100629 0.398490566,41.2638994 0.398490566,42.490566 L0.398490566,42.490566 C0.398490566,44.0191195 0.422641509,45.1813836 0.469937107,45.9431447 L0.469937107,45.9431447 C0.522264151,46.7844025 0.592704403,47.2412579 0.823144654,47.2412579 L0.823144654,47.2412579 C0.997232704,47.2412579 1.21459119,47.2412579 1.66842767,42.9142138 L1.66842767,42.9142138 C1.93710692,40.3451572 2.23396226,36.7255346 2.50264151,32.7225157 L2.50264151,32.7225157 C3.13056604,23.3972327 3.50490566,13.8455346 3.50490566,7.1718239 L3.50490566,7.1718239 C3.50490566,5.64528302 3.44654088,3.4354717 3.35295597,0.589685535 L3.35295597,0.589685535 L3.02792453,0.589685535 Z" id="path-39"></path>
        <path d="M0.121761006,0.589685535 C1.2045283,7.5763522 2.58716981,13.0696855 4.18716981,19.4254088 L4.18716981,19.4254088 C8.55949686,36.7909434 14.5479245,60.5715723 20.9750943,136.93283 L20.9750943,136.93283 C21.5818868,144.821132 21.7277987,152.668176 21.7539623,159.58239 L21.7539623,159.58239 L22.0789937,159.58239 C22.0518239,152.653082 21.9059119,144.786918 21.2971069,136.869434 L21.2971069,136.869434 C14.8659119,60.4457862 8.86842767,36.6319497 4.49006289,19.2432704 L4.49006289,19.2432704 C2.86591195,12.7969811 1.49735849,7.35899371 0.434716981,0.589685535 L0.434716981,0.589685535 L0.121761006,0.589685535 Z" id="path-41"></path>
        <path d="M2.22389937,1.4490566 C2.22389937,6.53886792 1.75295597,11.6236478 1.2991195,16.5403774 L1.2991195,16.5403774 C0.846289308,21.4349686 0.37836478,26.4945912 0.37836478,31.5371069 L0.37836478,31.5371069 C0.37836478,37.9974843 1.91597484,50.5539623 3.69710692,65.0898113 L3.69710692,65.0898113 C4.64,72.7748428 5.64528302,81.005283 6.5227673,89.1421384 L6.5227673,89.1421384 L6.85283019,89.1421384 C5.97333333,80.9730818 4.96201258,72.709434 4.01710692,64.9972327 L4.01710692,64.9972327 C2.23899371,50.4845283 0.703396226,37.951195 0.703396226,31.5371069 L0.703396226,31.5371069 C0.703396226,26.5308176 1.16930818,21.4893082 1.62012579,16.6128302 L1.62012579,16.6128302 C2.03572327,12.1116981 2.46641509,7.46968553 2.53786164,2.80050314 L2.53786164,2.80050314 C6.81761006,20.6490566 9.13308176,33.8555975 9.13308176,51.3428931 L9.13308176,51.3428931 C9.13308176,53.4027673 9.11295597,55.5099371 9.09283019,57.5446541 L9.09283019,57.5446541 C9.0727044,59.627673 9.05257862,61.7831447 9.05257862,63.9436478 L9.05257862,63.9436478 C9.05257862,68.0533333 9.12503145,72.274717 9.19647799,76.3602516 L9.19647799,76.3602516 C9.26691824,80.4910692 9.34238994,84.7637736 9.34238994,88.9680503 L9.34238994,88.9680503 C9.34238994,89.0264151 9.34238994,89.0837736 9.34238994,89.1421384 L9.34238994,89.1421384 L9.66742138,89.1421384 C9.66742138,89.0837736 9.66742138,89.0264151 9.66742138,88.9680503 L9.66742138,88.9680503 C9.66742138,84.7567296 9.59396226,80.4820126 9.52050314,76.3471698 L9.52050314,76.3471698 C9.45006289,72.2666667 9.37761006,68.045283 9.37761006,63.9436478 L9.37761006,63.9436478 C9.37761006,61.7871698 9.39773585,59.6337107 9.41886792,57.5516981 L9.41886792,57.5516981 C9.43798742,55.5149686 9.45811321,53.4077987 9.45811321,51.3428931 L9.45811321,51.3428931 C9.45811321,33.3685535 7.02591195,19.9104403 2.53786164,1.36050314 L2.53786164,1.36050314 L2.22389937,0.0593710692 L2.22389937,1.4490566 Z" id="path-43"></path>
        <path d="M0.825157233,0.589685535 C1.2608805,4.36628931 1.31220126,8.23245283 1.31220126,12.1740881 L1.31220126,12.1740881 L1.31119497,14.3738365 C1.31119497,26.6777358 2.46943396,30.4221384 3.40025157,33.4309434 L3.40025157,33.4309434 C4.0754717,35.6125786 4.6591195,37.4953459 4.6591195,42.0699371 L4.6591195,42.0699371 C4.6591195,45.7821384 4.19119497,49.5768553 3.69610063,53.5939623 L3.69610063,53.5939623 C3.19798742,57.631195 2.68377358,61.805283 2.68377358,65.9069182 L2.68377358,65.9069182 C2.68377358,70.0548428 3.05811321,74.1122013 3.45559748,78.4080503 L3.45559748,78.4080503 L3.50993711,78.9937107 C5.04855346,90.9212579 5.56578616,102.155472 6.06389937,113.020377 L6.06389937,113.020377 C6.78742138,128.755723 7.47371069,143.63673 11.0732075,159.58239 L11.0732075,159.58239 L11.4163522,159.58239 C7.79773585,143.635723 7.11245283,128.73761 6.38893082,112.983145 L6.38893082,112.983145 C5.88880503,102.106164 5.37157233,90.8538365 3.82993711,78.9101887 L3.82993711,78.9101887 L3.77660377,78.3366038 C3.38213836,74.0588679 3.00981132,70.0186164 3.00981132,65.9069182 L3.00981132,65.9069182 C3.00779874,61.8525786 3.52,57.7026415 4.01610063,53.6895597 L4.01610063,53.6895597 C4.51320755,49.6483019 4.98515723,45.829434 4.98515723,42.0699371 L4.98515723,42.0699371 C4.98515723,37.3816352 4.38641509,35.4495597 3.69408805,33.2125786 L3.69408805,33.2125786 C2.77735849,30.2500629 1.63622642,26.5640252 1.63622642,14.3738365 L1.63622642,14.3738365 L1.6372327,12.1740881 C1.6372327,8.23849057 1.58591195,4.37534591 1.15622642,0.589685535 L1.15622642,0.589685535 L0.825157233,0.589685535 Z" id="path-45"></path>
        <path d="M0.587672956,0.589685535 C2.24402516,41.798239 7.93962264,59.9527044 11.565283,71.5069182 L11.565283,71.5069182 C12.4528302,74.3345912 13.2186164,76.7758491 13.752956,79.0238994 L13.752956,79.0238994 C16.1700629,90.4231447 17.8696855,102.03673 19.1245283,113.728805 L19.1245283,113.728805 L19.1245283,110.778365 C17.9008805,100.031195 16.2867925,89.3544654 14.0598742,78.8578616 L14.0598742,78.8578616 C13.5184906,76.5786164 12.7486792,74.1272956 11.8571069,71.2865409 L11.8571069,71.2865409 C8.24251572,59.770566 2.56704403,41.6754717 0.912704403,0.589685535 L0.912704403,0.589685535 L0.587672956,0.589685535 Z" id="path-47"></path>
        <path d="M1.03144654,0.268679245 C0.617861635,0.50918239 0.437735849,2.26012579 0.424654088,5.00125786 L0.424654088,5.00125786 L0.424654088,5.70566038 C0.455849057,12.4568553 1.35748428,24.3330818 2.2772327,34.7622642 L2.2772327,34.7622642 C3.06113208,43.6528302 4.00503145,53.0777358 4.88251572,60.9660377 L4.88251572,60.9660377 L4.96,60.9660377 C5.04352201,60.9660377 5.12805031,60.9630189 5.21157233,60.9589937 L5.21157233,60.9589937 C4.33408805,53.0616352 3.38616352,43.610566 2.60025157,34.6938365 L2.60025157,34.6938365 C0.447798742,10.2883019 0.438742138,1.15320755 1.14716981,0.740628931 L1.14716981,0.740628931 C1.17534591,0.723522013 1.43698113,0.643018868 2.06289308,2.57408805 L2.06289308,2.57408805 C3.68704403,11.1325786 4.92578616,19.968805 6.12427673,28.5122013 L6.12427673,28.5122013 C7.02993711,34.9625157 7.95974843,41.5798742 9.06163522,48.1207547 L9.06163522,48.1207547 L9.06163522,46.1051572 C8.09660377,40.1881761 7.25937107,34.2299371 6.44226415,28.4045283 L6.44226415,28.4045283 C5.2427673,19.8520755 4.00201258,11.008805 2.36377358,2.39194969 L2.36377358,2.39194969 C1.88880503,0.914716981 1.51345912,0.227421384 1.17433962,0.227421384 L1.17433962,0.227421384 C1.12603774,0.227421384 1.07874214,0.241509434 1.03144654,0.268679245 L1.03144654,0.268679245 Z" id="path-49"></path>
        <path d="M0.783899371,0.589685535 C1.32125786,43.8893082 6.80352201,64.5967296 12.594717,86.452327 L12.594717,86.452327 C12.7587421,87.0701887 12.9227673,87.6880503 13.0867925,88.3079245 L13.0867925,88.3079245 L13.0867925,86.9816352 C13.0233962,86.7411321 12.9589937,86.5016352 12.8955975,86.2611321 L12.8955975,86.2611321 C7.11849057,64.4528302 1.64628931,43.7896855 1.10893082,0.589685535 L1.10893082,0.589685535 L0.783899371,0.589685535 Z" id="path-51"></path>
        <path d="M18.3144654,0.852327044 C8.20025157,0.852327044 0,8.28880503 0,17.4611321 L0,17.4611321 L0,26.7522013 L78.490566,26.7522013 L78.490566,17.4611321 C78.490566,8.28880503 70.2913208,0.852327044 60.1761006,0.852327044 L60.1761006,0.852327044 L18.3144654,0.852327044 Z" id="path-53"></path>
        <path d="M10.1152201,30.9212579 L10.1152201,33.8062893 C10.0498113,33.805283 9.98540881,33.798239 9.92100629,33.798239 L9.92100629,33.798239 C4.72150943,33.798239 0.506163522,37.9683019 0.506163522,43.1134591 L0.506163522,43.1134591 C0.506163522,48.2596226 4.72150943,52.4306918 9.92100629,52.4306918 L9.92100629,52.4306918 C10.2611321,52.4306918 10.5992453,52.410566 10.9303145,52.3743396 L10.9303145,52.3743396 C14.1152201,65.8847799 26.3516981,75.9516981 40.9720755,75.9516981 L40.9720755,75.9516981 C55.5944654,75.9516981 67.8309434,65.8847799 71.0148428,52.3743396 L71.0148428,52.3743396 C71.3459119,52.410566 71.6830189,52.4306918 72.0241509,52.4306918 L72.0241509,52.4306918 C77.2236478,52.4306918 81.4389937,48.2596226 81.4389937,43.1134591 L81.4389937,43.1134591 C81.4389937,37.9683019 77.2236478,33.798239 72.0241509,33.798239 L72.0241509,33.798239 C71.9587421,33.798239 71.8953459,33.805283 71.8299371,33.8062893 L71.8299371,33.8062893 L71.8299371,30.9212579 C71.8299371,14.0558491 58.0135849,0.383396226 40.9720755,0.383396226 L40.9720755,0.383396226 C23.930566,0.383396226 10.1152201,14.0558491 10.1152201,30.9212579 L10.1152201,30.9212579 Z" id="path-55"></path>
        <path d="M5.37257862,0.94490566 C4.19119497,1.29811321 3.1527044,1.89383648 2.37081761,2.66767296 L2.37081761,2.66767296 C1.38062893,3.64779874 0.835220126,4.88150943 0.835220126,6.14339623 L0.835220126,6.14339623 C0.835220126,6.67169811 1.26389937,7.09937107 1.79119497,7.09937107 L1.79119497,7.09937107 C2.31849057,7.09937107 2.74515723,6.67169811 2.74515723,6.14339623 L2.74515723,6.14339623 C2.74515723,5.38465409 3.08025157,4.65207547 3.71421384,4.02415094 L3.71421384,4.02415094 C4.27471698,3.47169811 5.03647799,3.03899371 5.91899371,2.77433962 L5.91899371,2.77433962 C6.45232704,2.6163522 7.05408805,2.53886792 7.76150943,2.53886792 L7.76150943,2.53886792 C8.46691824,2.53886792 9.06867925,2.6163522 9.6,2.77433962 L9.6,2.77433962 C10.4845283,3.03899371 11.2472956,3.47169811 11.8067925,4.02314465 L11.8067925,4.02314465 C12.4407547,4.65207547 12.7758491,5.3836478 12.7758491,6.14339623 L12.7758491,6.14339623 C12.7758491,6.66968553 13.203522,7.09937107 13.7298113,7.09937107 L13.7298113,7.09937107 C14.2581132,7.09937107 14.6847799,6.66968553 14.6847799,6.14339623 L14.6847799,6.14339623 C14.6847799,4.88251572 14.1403774,3.64779874 13.1501887,2.66666667 L13.1501887,2.66666667 C12.3703145,1.89383648 11.3318239,1.29811321 10.1474214,0.94490566 L10.1474214,0.94490566 C9.43597484,0.732578616 8.65408805,0.629937107 7.76150943,0.629937107 L7.76150943,0.629937107 C6.86591195,0.629937107 6.08603774,0.732578616 5.37257862,0.94490566 L5.37257862,0.94490566 Z" id="path-57"></path>
        <path d="M0.0271698113,4.09257862 L0.0271698113,9.98138365 C0.0271698113,11.930566 1.61408805,13.5154717 3.56528302,13.5154717 L3.56528302,13.5154717 C5.51748428,13.5154717 7.10440252,11.930566 7.10440252,9.98138365 L7.10440252,9.98138365 L7.10440252,4.09257862 C7.10440252,2.14440252 5.51647799,0.558490566 3.56528302,0.558490566 L3.56528302,0.558490566 C1.61408805,0.558490566 0.0271698113,2.14440252 0.0271698113,4.09257862 L0.0271698113,4.09257862 Z" id="path-59"></path>
        <path d="M0.360251572,4.09257862 L0.360251572,9.98138365 C0.360251572,11.930566 1.94716981,13.5154717 3.89836478,13.5154717 L3.89836478,13.5154717 C5.84955975,13.5154717 7.43748428,11.930566 7.43748428,9.98138365 L7.43748428,9.98138365 L7.43748428,4.09257862 C7.43748428,2.14440252 5.84955975,0.558490566 3.89836478,0.558490566 L3.89836478,0.558490566 C1.94716981,0.558490566 0.360251572,2.14440252 0.360251572,4.09257862 L0.360251572,4.09257862 Z" id="path-61"></path>
        <path d="M18.0950943,4.41257862 C17.9713208,4.42264151 17.8475472,4.4327044 17.721761,4.44075472 L17.721761,4.44075472 C17.5285535,4.45283019 17.3333333,4.46389937 17.1401258,4.47194969 L17.1401258,4.47194969 C16.7003774,4.49207547 16.2586164,4.50515723 15.8148428,4.50515723 L15.8148428,4.50515723 C15.3700629,4.50515723 14.9283019,4.49207547 14.4895597,4.47194969 L14.4895597,4.47194969 C14.2943396,4.46389937 14.1011321,4.45283019 13.9079245,4.44075472 L13.9079245,4.44075472 C13.7831447,4.43371069 13.6583648,4.42264151 13.5355975,4.41257862 L13.5355975,4.41257862 C8.99119497,4.0845283 4.71849057,2.78842767 0.934842767,0.720503145 L0.934842767,0.720503145 L0.934842767,4.26666667 C0.934842767,12.5091824 7.38213836,19.1919497 15.3358491,19.1919497 L15.3358491,19.1919497 L16.2928302,19.1919497 C24.2475472,19.1919497 30.6948428,12.5091824 30.6948428,4.26666667 L30.6948428,4.26666667 L30.6948428,0.720503145 C26.9122013,2.78842767 22.6405031,4.08352201 18.0950943,4.41257862 L18.0950943,4.41257862 Z" id="path-63"></path>
        <path d="M14.6405031,1.16125786 C8.22641509,2.38289308 2.99572327,7.01584906 1.00930818,13.2357233 L1.00930818,13.2357233 L0.904654088,13.5627673 C-0.308930818,17.3645283 -0.209308176,21.4651572 1.18742138,25.203522 L1.18742138,25.203522 L5.82943396,37.6332075 C7.33786164,36.6118239 9.16226415,36.0130818 11.1295597,36.0130818 L11.1295597,36.0130818 L18.3285535,37.6825157 L22.0397484,33.9149686 L22.0397484,33.9139623 C24.8674214,31.2472956 28.5776101,26.431195 31.6085535,17.9844025 L31.6085535,17.9844025 C28.1157233,13.4490566 25.5446541,8.17207547 24.1428931,2.4472956 L24.1428931,2.4472956 C24.0996226,2.27119497 24.0704403,2.09308176 24.0513208,1.91698113 L24.0513208,1.91698113 L23.711195,1.80125786 C21.8535849,1.16830189 19.9124528,0.849308176 17.965283,0.849308176 L17.965283,0.849308176 C16.8533333,0.849308176 15.7403774,0.951949686 14.6405031,1.16125786 L14.6405031,1.16125786 Z" id="path-65"></path>
        <path d="M1.91798742,7.44150943 C0.907672956,8.41157233 0.437735849,9.88578616 0.792955975,11.3318239 L0.792955975,11.3318239 C3.61157233,22.8166038 11.2040252,32.4860377 21.5939623,37.8233962 L21.5939623,37.8233962 L21.6090566,37.8314465 C23.8510692,38.9836478 26.1937107,39.923522 28.6057862,40.6410063 L28.6057862,40.6410063 C29.2055346,40.8201258 29.6895597,40.1277987 29.3262893,39.610566 L29.3262893,39.610566 L24.2787421,32.4286792 C23.8389937,31.8037736 24.6118239,31.0389937 25.2115723,31.5079245 L25.2115723,31.5079245 C30.7924528,35.8651572 41.6362264,43.0842767 52.6047799,43.4465409 L52.6047799,43.4465409 L54.3909434,38.5700629 C56.4447799,32.9630189 56.5615094,26.8145912 54.7250314,21.1310692 L54.7250314,21.1310692 C52.3340881,13.7338365 46.8719497,7.85610063 39.8903145,4.95798742 L39.8903145,4.95798742 L39.8903145,4.95396226 C32.6983648,1.42490566 26.4593711,0.177106918 21.2357233,0.176100629 L21.2357233,0.176100629 C8.62691824,0.17509434 1.91798742,7.44150943 1.91798742,7.44150943 L1.91798742,7.44150943 Z" id="path-67"></path>
        <path d="M0.482012579,1.24176101 C0.376352201,1.75899371 0.710440252,2.26415094 1.22666667,2.36880503 L1.22666667,2.36880503 L12.3783648,4.64402516 C12.4437736,4.65710692 12.5071698,4.66314465 12.570566,4.66314465 L12.570566,4.66314465 C13.0153459,4.66314465 13.4138365,4.35018868 13.5064151,3.89836478 L13.5064151,3.89836478 C13.6110692,3.38213836 13.2779874,2.87798742 12.7597484,2.77232704 L12.7597484,2.77232704 L1.6090566,0.497106918 C1.54465409,0.484025157 1.48125786,0.477987421 1.41786164,0.477987421 L1.41786164,0.477987421 C0.971069182,0.477987421 0.573584906,0.789937107 0.482012579,1.24176101 L0.482012579,1.24176101 Z" id="path-69"></path>
        <path d="M12.914717,0.497106918 L1.76402516,2.77232704 C1.24679245,2.87698113 0.911698113,3.38213836 1.01836478,3.89836478 L1.01836478,3.89836478 C1.10993711,4.35119497 1.50943396,4.66314465 1.95320755,4.66314465 L1.95320755,4.66314465 C2.01660377,4.66314465 2.08100629,4.65710692 2.14440252,4.64402516 L2.14440252,4.64402516 L13.2961006,2.36880503 C13.8133333,2.26415094 14.1474214,1.75899371 14.041761,1.24176101 L14.041761,1.24176101 C13.9491824,0.789937107 13.5516981,0.476981132 13.1079245,0.476981132 L13.1079245,0.476981132 C13.0445283,0.476981132 12.9791195,0.483018868 12.914717,0.497106918 L12.914717,0.497106918 Z" id="path-71"></path>
        <path d="M3.78264151,0.17408805 C2.20075472,0.17408805 0.917735849,1.45610063 0.917735849,3.03899371 L0.917735849,3.03899371 L0.917735849,15.4555975 C0.917735849,17.0384906 2.20075472,18.3205031 3.78264151,18.3205031 L3.78264151,18.3205031 L36.2566038,18.3205031 C37.8394969,18.3205031 39.1215094,17.0384906 39.1215094,15.4555975 L39.1215094,15.4555975 L39.1215094,3.03899371 C39.1215094,1.45610063 37.8394969,0.17408805 36.2566038,0.17408805 L36.2566038,0.17408805 L3.78264151,0.17408805 Z" id="path-73"></path>
        <path d="M2.82566038,0.607798742 C1.29811321,0.607798742 0.0563522013,1.85056604 0.0563522013,3.37811321 L0.0563522013,3.37811321 L0.0563522013,11.0903145 C0.0563522013,12.6168553 1.29811321,13.8606289 2.82566038,13.8606289 L2.82566038,13.8606289 L15.0752201,13.8606289 C16.6037736,13.8606289 17.8445283,12.6168553 17.8445283,11.0903145 L17.8445283,11.0903145 L17.8445283,3.37811321 C17.8445283,1.85056604 16.6027673,0.607798742 15.0752201,0.607798742 L15.0752201,0.607798742 L2.82566038,0.607798742 Z M1.9672956,11.0903145 L1.9672956,3.37811321 C1.9672956,2.90415094 2.35169811,2.51874214 2.82566038,2.51874214 L2.82566038,2.51874214 L15.0752201,2.51874214 C15.5491824,2.51874214 15.9345912,2.90415094 15.9345912,3.37811321 L15.9345912,3.37811321 L15.9345912,11.0903145 C15.9345912,11.5642767 15.5491824,11.9496855 15.0752201,11.9496855 L15.0752201,11.9496855 L2.82566038,11.9496855 C2.35169811,11.9496855 1.9672956,11.5642767 1.9672956,11.0903145 L1.9672956,11.0903145 Z" id="path-75"></path>
        <path d="M48.5997484,0.853333333 C31.0369811,4.81811321 15.4737107,2.68176101 7.19194969,0.864402516 L7.19194969,0.864402516 C3.9627673,0.156981132 0.880503145,2.4845283 0.880503145,5.64628931 L0.880503145,5.64628931 L0.880503145,17.241761 C0.880503145,18.3295597 1.62616352,19.2855346 2.71899371,19.5954717 L2.71899371,19.5954717 C8.86037736,21.3444025 29.6080503,26.1715723 53.0354717,19.5753459 L53.0354717,19.5753459 C54.1333333,19.2664151 54.8930818,18.3074214 54.8930818,17.2155975 L54.8930818,17.2155975 L54.8930818,5.63823899 C54.8930818,2.87194969 52.5283019,0.720503145 49.7771069,0.720503145 L49.7771069,0.720503145 C49.3906918,0.720503145 48.9962264,0.763773585 48.5997484,0.853333333 L48.5997484,0.853333333 Z" id="path-77"></path>
        <path d="M10.8659119,0.370314465 C7.67295597,0.46490566 5.17433962,3.16880503 5.17433962,6.3627673 L5.17433962,6.3627673 L5.17433962,34.0940881 C5.17433962,34.5237736 4.96805031,34.9232704 4.62490566,35.1808805 L4.62490566,35.1808805 C1.70767296,37.3836478 0.103647799,40.9167296 0.434716981,44.6460377 L0.434716981,44.6460377 C0.899622642,49.8757233 5.2045283,54.027673 10.4472956,54.3154717 L10.4472956,54.3154717 C16.5886792,54.6535849 21.6955975,49.7519497 21.6955975,43.68 L21.6955975,43.68 C21.6955975,40.3139623 20.128805,37.1924528 17.4641509,35.1818868 L17.4641509,35.1818868 C17.1220126,34.9242767 16.9137107,34.5237736 16.9137107,34.0940881 L16.9137107,34.0940881 L16.9137107,6.23798742 C16.9137107,2.99974843 14.2802516,0.367295597 11.0450314,0.367295597 L11.0450314,0.367295597 C10.9846541,0.367295597 10.9262893,0.368301887 10.8659119,0.370314465 L10.8659119,0.370314465 Z" id="path-79"></path>
        <path d="M0.865408805,3.2191195 L0.865408805,15.7232704 L7.13459119,15.7232704 L7.13459119,3.2191195 C7.13459119,1.49031447 5.72880503,0.0835220126 4,0.0835220126 L4,0.0835220126 C2.27220126,0.0835220126 0.865408805,1.49031447 0.865408805,3.2191195 L0.865408805,3.2191195 Z" id="path-81"></path>
        <path d="M11.8430189,0.42163522 C8.19320755,0.530314465 5.2236478,3.64679245 5.2236478,7.3690566 L5.2236478,7.3690566 L5.2236478,35.1013836 C5.2236478,35.2261635 5.16327044,35.3449057 5.05559748,35.4254088 L5.05559748,35.4254088 C1.83849057,37.8525786 0.132830189,41.707673 0.489056604,45.7368553 L0.489056604,45.7368553 C0.994213836,51.4314465 5.6845283,55.961761 11.3992453,56.2757233 L11.3992453,56.2757233 C11.6196226,56.2877987 11.8389937,56.2948428 12.0583648,56.2948428 L12.0583648,56.2948428 C15.0359748,56.2948428 17.843522,55.1778616 20.0231447,53.1149686 L20.0231447,53.1149686 C22.3315723,50.9283019 23.6568553,47.8571069 23.6568553,44.6872956 L23.6568553,44.6872956 C23.6568553,41.0133333 21.9753459,37.6392453 19.0460377,35.4264151 L19.0460377,35.4264151 C18.9373585,35.3449057 18.8759748,35.2261635 18.8759748,35.1003774 L18.8759748,35.1003774 L18.8759748,7.24427673 C18.8759748,5.38465409 18.1393711,3.64578616 16.8030189,2.34767296 L16.8030189,2.34767296 C15.5250314,1.10893082 13.8646541,0.417610063 12.0925786,0.417610063 L12.0925786,0.417610063 C12.0100629,0.417610063 11.9265409,0.419622642 11.8430189,0.42163522 L11.8430189,0.42163522 Z M11.5049057,54.368805 C6.73207547,54.1061635 2.81459119,50.3225157 2.39295597,45.5667925 L2.39295597,45.5667925 C2.09408805,42.1997484 3.52,38.9786164 6.20679245,36.9499371 L6.20679245,36.9499371 C6.78842767,36.511195 7.13459119,35.8218868 7.13459119,35.1013836 L7.13459119,35.1013836 L7.13459119,7.3690566 C7.13459119,4.66918239 9.27295597,2.4090566 11.9003774,2.33056604 L11.9003774,2.33056604 C13.2256604,2.29433962 14.5086792,2.78440252 15.4716981,3.71924528 L15.4716981,3.71924528 C16.434717,4.65509434 16.9660377,5.90591195 16.9660377,7.24427673 L16.9660377,7.24427673 L16.9660377,35.1013836 C16.9660377,35.8218868 17.3132075,36.511195 17.8938365,36.9519497 L17.8938365,36.9519497 C20.3421384,38.7984906 21.7469182,41.6181132 21.7469182,44.6872956 L21.7469182,44.6872956 C21.7469182,47.3740881 20.6681761,49.8737107 18.7109434,51.7262893 L18.7109434,51.7262893 C16.8875472,53.4520755 14.5449057,54.3838994 12.0573585,54.3838994 L12.0573585,54.3838994 C11.8742138,54.3838994 11.6890566,54.3788679 11.5049057,54.368805 L11.5049057,54.368805 Z" id="path-83"></path>
        <path d="M4.78893082,0.224402516 C2.6827673,0.224402516 0.968050314,1.93811321 0.968050314,4.04528302 L0.968050314,4.04528302 L0.968050314,16.4618868 C0.968050314,18.5680503 2.6827673,20.281761 4.78893082,20.281761 L4.78893082,20.281761 L37.2628931,20.281761 C39.3690566,20.281761 41.0837736,18.5680503 41.0837736,16.4618868 L41.0837736,16.4618868 L41.0837736,4.04528302 C41.0837736,1.93811321 39.3690566,0.224402516 37.2628931,0.224402516 L37.2628931,0.224402516 L4.78893082,0.224402516 Z M2.87798742,16.4618868 L2.87798742,4.04528302 C2.87798742,2.9927044 3.7363522,2.13433962 4.78893082,2.13433962 L4.78893082,2.13433962 L37.2628931,2.13433962 C38.3154717,2.13433962 39.1728302,2.9927044 39.1728302,4.04528302 L39.1728302,4.04528302 L39.1728302,16.4618868 C39.1728302,17.5154717 38.3154717,18.3708176 37.2628931,18.3708176 L37.2628931,18.3708176 L4.78893082,18.3708176 C3.7363522,18.3708176 2.87798742,17.5154717 2.87798742,16.4618868 L2.87798742,16.4618868 Z" id="path-85"></path>
        <path d="M0.126792453,3.67798742 L0.126792453,14.9272956 C0.126792453,15.2030189 0.20327044,15.4616352 0.336100629,15.6830189 L0.336100629,15.6830189 L18.8095597,15.6830189 C18.9423899,15.4616352 19.0188679,15.2030189 19.0188679,14.9272956 L19.0188679,14.9272956 L19.0188679,0.673207547 C12.403522,2.46641509 6.01962264,3.36100629 0.126792453,3.67798742 L0.126792453,3.67798742 Z" id="path-87"></path>
        <path d="M5.89685535,0.068427673 L5.89685535,22.5227673 C5.89685535,22.8739623 5.69962264,23.192956 5.38163522,23.3539623 L5.38163522,23.3539623 C2.46641509,24.8301887 0.721509434,27.8862893 0.934842767,31.1426415 L0.934842767,31.1426415 C1.19849057,35.161761 4.42566038,38.407044 8.44176101,38.6928302 L8.44176101,38.6928302 C8.64,38.7059119 8.83522013,38.712956 9.03144654,38.712956 L9.03144654,38.712956 C11.1959748,38.712956 13.2327044,37.867673 14.7672956,36.3340881 L14.7672956,36.3340881 C16.3018868,34.7994969 17.1471698,32.761761 17.1471698,30.598239 L17.1471698,30.598239 C17.1471698,27.5230189 15.4354717,24.7486792 12.6812579,23.3539623 L12.6812579,23.3539623 C12.3642767,23.192956 12.167044,22.8749686 12.167044,22.5237736 L12.167044,22.5237736 L12.167044,0.068427673 L5.89685535,0.068427673 Z" id="path-89"></path>
        <path d="M1.76301887,0.404528302 C1.14012579,0.404528302 0.634968553,0.909685535 0.634968553,1.53358491 L0.634968553,1.53358491 C0.634968553,2.15748428 1.14012579,2.66264151 1.76301887,2.66264151 L1.76301887,2.66264151 L7.03194969,2.66264151 C7.65484277,2.66264151 8.16100629,2.15647799 8.16100629,1.53358491 L8.16100629,1.53358491 C8.16100629,0.909685535 7.65484277,0.404528302 7.03194969,0.404528302 L7.03194969,0.404528302 L1.76301887,0.404528302 Z" id="path-91"></path>
        <path d="M1.76301887,0.790943396 C1.14012579,0.790943396 0.634968553,1.29710692 0.634968553,1.92100629 L0.634968553,1.92100629 C0.634968553,2.54490566 1.14012579,3.05006289 1.76301887,3.05006289 L1.76301887,3.05006289 L5.15119497,3.05006289 C5.77509434,3.05006289 6.27924528,2.54389937 6.27924528,1.92100629 L6.27924528,1.92100629 C6.27924528,1.29710692 5.77509434,0.790943396 5.15119497,0.790943396 L5.15119497,0.790943396 L1.76301887,0.790943396 Z" id="path-93"></path>
        <path d="M1.76301887,0.173081761 C1.14012579,0.173081761 0.634968553,0.678238994 0.634968553,1.30113208 L0.634968553,1.30113208 C0.634968553,1.92603774 1.14012579,2.43119497 1.76301887,2.43119497 L1.76301887,2.43119497 L7.03194969,2.43119497 C7.65484277,2.43119497 8.16100629,1.92603774 8.16100629,1.30113208 L8.16100629,1.30113208 C8.16100629,0.678238994 7.65484277,0.173081761 7.03194969,0.173081761 L7.03194969,0.173081761 L1.76301887,0.173081761 Z" id="path-95"></path>
        <path d="M1.76301887,0.560503145 C1.14012579,0.560503145 0.634968553,1.06566038 0.634968553,1.68955975 L0.634968553,1.68955975 C0.634968553,2.31245283 1.14012579,2.81761006 1.76301887,2.81761006 L1.76301887,2.81761006 L5.15119497,2.81761006 C5.77509434,2.81761006 6.27924528,2.31245283 6.27924528,1.68955975 L6.27924528,1.68955975 C6.27924528,1.06566038 5.77509434,0.560503145 5.15119497,0.560503145 L5.15119497,0.560503145 L1.76301887,0.560503145 Z" id="path-97"></path>
        <path d="M1.76301887,0.0171069182 C1.14012579,0.0171069182 0.634968553,0.522264151 0.634968553,1.14616352 L0.634968553,1.14616352 C0.634968553,1.77006289 1.14012579,2.27622642 1.76301887,2.27622642 L1.76301887,2.27622642 L5.15119497,2.27622642 C5.77509434,2.27622642 6.27924528,1.77006289 6.27924528,1.14616352 L6.27924528,1.14616352 C6.27924528,0.522264151 5.77509434,0.0171069182 5.15119497,0.0171069182 L5.15119497,0.0171069182 L1.76301887,0.0171069182 Z" id="path-99"></path>
        <path d="M6.50566038,0.451823899 L0.893584906,8.10465409 C0.663144654,8.42163522 0.88754717,8.86540881 1.27899371,8.86540881 L1.27899371,8.86540881 L2.68880503,8.86540881 C2.95245283,8.86540881 3.16679245,9.07874214 3.16679245,9.34339623 L3.16679245,9.34339623 L3.16679245,21.7942138 C3.16679245,22.0578616 3.38113208,22.2722013 3.64377358,22.2722013 L3.64377358,22.2722013 L10.1373585,22.2722013 C10.4010063,22.2722013 10.6153459,22.0578616 10.6153459,21.7942138 L10.6153459,21.7942138 L10.6153459,9.34339623 C10.6153459,9.07974843 10.8286792,8.86540881 11.0933333,8.86540881 L11.0933333,8.86540881 L12.5031447,8.86540881 C12.8945912,8.86540881 13.12,8.42163522 12.8885535,8.10566038 L12.8885535,8.10566038 L7.2754717,0.452830189 C7.1808805,0.322012579 7.03597484,0.256603774 6.89106918,0.256603774 L6.89106918,0.256603774 C6.74616352,0.256603774 6.60125786,0.322012579 6.50566038,0.451823899 L6.50566038,0.451823899 Z" id="path-101"></path>
    </defs>
    <g id="Page-1" stroke="none" stroke-width="1" fill="none" fill-rule="evenodd">
        <g id="Learn-/-Ideal-state-" transform="translate(-451.000000, -1472.000000)">
            <g id="fever" transform="translate(451.000000, 1472.000000)">
                <g id="Group-3">
                    <mask id="mask-2" fill="white">
                        <use xlink:href="#path-1"></use>
                    </mask>
                    <g id="Clip-2"></g>
                    <polygon id="Fill-1" fill="#0071BC" mask="url(#mask-2)" points="-5.50440252 165.395723 164.39044 165.395723 164.39044 -5.03144654 -5.50440252 -5.03144654"></polygon>
                </g>
                <g id="Group-6">
                    <mask id="mask-4" fill="white">
                        <use xlink:href="#path-3"></use>
                    </mask>
                    <g id="Clip-5"></g>
                    <polygon id="Fill-4" fill="#00507C" mask="url(#mask-4)" points="-5.50440252 76.1720755 164.39044 76.1720755 164.39044 -5.03245283 -5.50440252 -5.03245283"></polygon>
                </g>
                <g id="Group-9" transform="translate(0.000000, 49.308176)">
                    <mask id="mask-6" fill="white">
                        <use xlink:href="#path-5"></use>
                    </mask>
                    <g id="Clip-8"></g>
                    <polygon id="Fill-7" fill="#0C84C5" mask="url(#mask-6)" points="-5.50440252 84.6933333 15.391195 84.6933333 15.391195 -6.73106918 -5.50440252 -6.73106918"></polygon>
                </g>
                <g id="Group-13">
                    <mask id="mask-8" fill="white">
                        <use xlink:href="#path-7"></use>
                    </mask>
                    <g id="Clip-12"></g>
                    <polygon id="Fill-11" fill="#0C84C5" mask="url(#mask-8)" points="-5.50440252 62.5720755 32.0201258 62.5720755 32.0201258 -5.03245283 -5.50440252 -5.03245283"></polygon>
                </g>
                <g id="Group-16" transform="translate(5.031447, 0.000000)">
                    <mask id="mask-10" fill="white">
                        <use xlink:href="#path-9"></use>
                    </mask>
                    <g id="Clip-15"></g>
                    <polygon id="Fill-14" fill="#0C84C5" mask="url(#mask-10)" points="-4.38037736 165.395723 36.0412579 165.395723 36.0412579 -5.03144654 -4.38037736 -5.03144654"></polygon>
                </g>
                <g id="Group-19" transform="translate(22.138365, 23.144654)">
                    <mask id="mask-12" fill="white">
                        <use xlink:href="#path-11"></use>
                    </mask>
                    <g id="Clip-18"></g>
                    <polygon id="Fill-17" fill="#0C84C5" mask="url(#mask-12)" points="-4.82515723 142.251069 20.7114465 142.251069 20.7114465 -4.77987421 -4.82515723 -4.77987421"></polygon>
                </g>
                <g id="Group-22" transform="translate(34.213836, 0.000000)">
                    <mask id="mask-14" fill="white">
                        <use xlink:href="#path-13"></use>
                    </mask>
                    <g id="Clip-21"></g>
                    <polygon id="Fill-20" fill="#0C84C5" mask="url(#mask-14)" points="-4.70440252 165.395723 26.490566 165.395723 26.490566 -5.03245283 -4.70440252 -5.03245283"></polygon>
                </g>
                <g id="Group-25" transform="translate(41.257862, 0.000000)">
                    <mask id="mask-16" fill="white">
                        <use xlink:href="#path-15"></use>
                    </mask>
                    <g id="Clip-24"></g>
                    <polygon id="Fill-23" fill="#0C84C5" mask="url(#mask-16)" points="-4.51622642 41.0233962 13.2015094 41.0233962 13.2015094 -5.03144654 -4.51622642 -5.03144654"></polygon>
                </g>
                <g id="Group-28" transform="translate(6.037736, 0.000000)">
                    <mask id="mask-18" fill="white">
                        <use xlink:href="#path-17"></use>
                    </mask>
                    <g id="Clip-27"></g>
                    <polygon id="Fill-26" fill="#0C84C5" mask="url(#mask-18)" points="-4.48201258 36.4920755 19.4646541 36.4920755 19.4646541 -5.03144654 -4.48201258 -5.03144654"></polygon>
                </g>
                <g id="Group-31" transform="translate(60.377358, 0.000000)">
                    <mask id="mask-20" fill="white">
                        <use xlink:href="#path-19"></use>
                    </mask>
                    <g id="Clip-30"></g>
                    <polygon id="Fill-29" fill="#0C84C5" mask="url(#mask-20)" points="-4.18918239 165.395723 20.3461635 165.395723 20.3461635 -5.03144654 -4.18918239 -5.03144654"></polygon>
                </g>
                <g id="Group-34" transform="translate(66.415094, 0.000000)">
                    <mask id="mask-22" fill="white">
                        <use xlink:href="#path-21"></use>
                    </mask>
                    <g id="Clip-33"></g>
                    <polygon id="Fill-32" fill="#0C84C5" mask="url(#mask-22)" points="-4.4608805 79.2805031 19.6548428 79.2805031 19.6548428 -5.03144654 -4.4608805 -5.03144654"></polygon>
                </g>
                <g id="Group-37" transform="translate(43.270440, 50.314465)">
                    <mask id="mask-24" fill="white">
                        <use xlink:href="#path-23"></use>
                    </mask>
                    <g id="Clip-36"></g>
                    <polygon id="Fill-35" fill="#0C84C5" mask="url(#mask-24)" points="-4.5836478 115.081258 28.4236478 115.081258 28.4236478 -4.4427673 -4.5836478 -4.4427673"></polygon>
                </g>
                <g id="Group-40" transform="translate(55.345912, 79.496855)">
                    <mask id="mask-26" fill="white">
                        <use xlink:href="#path-25"></use>
                    </mask>
                    <g id="Clip-39"></g>
                    <polygon id="Fill-38" fill="#0C84C5" mask="url(#mask-26)" points="-4.96100629 85.8988679 7.66591195 85.8988679 7.66591195 -4.61081761 -4.96100629 -4.61081761"></polygon>
                </g>
                <g id="Group-43" transform="translate(81.509434, 0.000000)">
                    <mask id="mask-28" fill="white">
                        <use xlink:href="#path-27"></use>
                    </mask>
                    <g id="Clip-42"></g>
                    <polygon id="Fill-41" fill="#0C84C5" mask="url(#mask-28)" points="-4.85937107 165.395723 14.5016352 165.395723 14.5016352 -5.03144654 -4.85937107 -5.03144654"></polygon>
                </g>
                <g id="Group-46" transform="translate(89.559748, 0.000000)">
                    <mask id="mask-30" fill="white">
                        <use xlink:href="#path-29"></use>
                    </mask>
                    <g id="Clip-45"></g>
                    <polygon id="Fill-44" fill="#0C84C5" mask="url(#mask-30)" points="-5.02641509 95.8208805 19.2754717 95.8208805 19.2754717 -5.03144654 -5.02641509 -5.03144654"></polygon>
                </g>
                <g id="Group-49" transform="translate(99.622642, 0.000000)">
                    <mask id="mask-32" fill="white">
                        <use xlink:href="#path-31"></use>
                    </mask>
                    <g id="Clip-48"></g>
                    <polygon id="Fill-47" fill="#0C84C5" mask="url(#mask-32)" points="-4.8472956 160.103648 14.5851572 160.103648 14.5851572 -5.03245283 -4.8472956 -5.03245283"></polygon>
                </g>
                <g id="Group-52" transform="translate(113.710692, 0.000000)">
                    <mask id="mask-34" fill="white">
                        <use xlink:href="#path-33"></use>
                    </mask>
                    <g id="Clip-51"></g>
                    <polygon id="Fill-50" fill="#0C84C5" mask="url(#mask-34)" points="-4.28176101 96.0171069 12.9831447 96.0171069 12.9831447 -5.03245283 -4.28176101 -5.03245283"></polygon>
                </g>
                <g id="Group-55" transform="translate(110.691824, 88.553459)">
                    <mask id="mask-36" fill="white">
                        <use xlink:href="#path-35"></use>
                    </mask>
                    <g id="Clip-54"></g>
                    <polygon id="Fill-53" fill="#0C84C5" mask="url(#mask-36)" points="-4.77886792 76.8432704 20.838239 76.8432704 20.838239 -4.99622642 -4.77886792 -4.99622642"></polygon>
                </g>
                <g id="Group-58" transform="translate(107.672956, 72.452830)">
                    <mask id="mask-38" fill="white">
                        <use xlink:href="#path-37"></use>
                    </mask>
                    <g id="Clip-57"></g>
                    <polygon id="Fill-56" fill="#0C84C5" mask="url(#mask-38)" points="-4.99622642 53.0737107 8.66616352 53.0737107 8.66616352 -4.0372327 -4.99622642 -4.0372327"></polygon>
                </g>
                <g id="Group-61" transform="translate(93.584906, 0.000000)">
                    <mask id="mask-40" fill="white">
                        <use xlink:href="#path-39"></use>
                    </mask>
                    <g id="Clip-60"></g>
                    <polygon id="Fill-59" fill="#0C84C5" mask="url(#mask-40)" points="-4.63194969 52.2716981 8.5363522 52.2716981 8.5363522 -5.03144654 -4.63194969 -5.03144654"></polygon>
                </g>
                <g id="Group-64" transform="translate(126.792453, 0.000000)">
                    <mask id="mask-42" fill="white">
                        <use xlink:href="#path-41"></use>
                    </mask>
                    <g id="Clip-63"></g>
                    <polygon id="Fill-62" fill="#0C84C5" mask="url(#mask-42)" points="-4.99823899 165.395723 27.1134591 165.395723 27.1134591 -5.03144654 -4.99823899 -5.03144654"></polygon>
                </g>
                <g id="Group-67" transform="translate(133.836478, 70.440252)">
                    <mask id="mask-44" fill="white">
                        <use xlink:href="#path-43"></use>
                    </mask>
                    <g id="Clip-66"></g>
                    <polygon id="Fill-65" fill="#0C84C5" mask="url(#mask-44)" points="-4.65308176 94.956478 14.6978616 94.956478 14.6978616 -4.97207547 -4.65308176 -4.97207547"></polygon>
                </g>
                <g id="Group-70" transform="translate(123.773585, 0.000000)">
                    <mask id="mask-46" fill="white">
                        <use xlink:href="#path-45"></use>
                    </mask>
                    <g id="Clip-69"></g>
                    <polygon id="Fill-68" fill="#0C84C5" mask="url(#mask-46)" points="-4.27672956 165.395723 16.6259119 165.395723 16.6259119 -5.03144654 -4.27672956 -5.03144654"></polygon>
                </g>
                <g id="Group-73" transform="translate(139.874214, 0.000000)">
                    <mask id="mask-48" fill="white">
                        <use xlink:href="#path-47"></use>
                    </mask>
                    <g id="Clip-72"></g>
                    <polygon id="Fill-71" fill="#0C84C5" mask="url(#mask-48)" points="-4.46792453 122.241006 24.5162264 122.241006 24.5162264 -5.03144654 -4.46792453 -5.03144654"></polygon>
                </g>
                <g id="Group-76" transform="translate(149.937107, 98.616352)">
                    <mask id="mask-50" fill="white">
                        <use xlink:href="#path-49"></use>
                    </mask>
                    <g id="Clip-75"></g>
                    <polygon id="Fill-74" fill="#0C84C5" mask="url(#mask-50)" points="-4.60779874 66.7803774 14.452327 66.7803774 14.452327 -4.80402516 -4.60779874 -4.80402516"></polygon>
                </g>
                <g id="Group-79" transform="translate(145.911950, 0.000000)">
                    <mask id="mask-52" fill="white">
                        <use xlink:href="#path-51"></use>
                    </mask>
                    <g id="Clip-78"></g>
                    <polygon id="Fill-77" fill="#0C84C5" mask="url(#mask-52)" points="-4.25459119 94.7028931 18.4784906 94.7028931 18.4784906 -5.03144654 -4.25459119 -5.03144654"></polygon>
                </g>
                <g id="Group-82" transform="translate(35.220126, 132.830189)">
                    <mask id="mask-54" fill="white">
                        <use xlink:href="#path-53"></use>
                    </mask>
                    <g id="Clip-81"></g>
                    <polygon id="Fill-80" fill="#B4E0FA" mask="url(#mask-54)" points="-5.03144654 32.5001258 83.5220126 32.5001258 83.5220126 -4.1791195 -5.03144654 -4.1791195"></polygon>
                </g>
                <g id="Group-85" transform="translate(33.207547, 56.352201)">
                    <mask id="mask-56" fill="white">
                        <use xlink:href="#path-55"></use>
                    </mask>
                    <g id="Clip-84"></g>
                    <polygon id="Fill-83" fill="#F9CFCF" mask="url(#mask-56)" points="-4.52528302 80.9831447 86.4704403 80.9831447 86.4704403 -4.64805031 -4.52528302 -4.64805031"></polygon>
                </g>
                <g id="Group-88" transform="translate(66.415094, 111.698113)">
                    <mask id="mask-58" fill="white">
                        <use xlink:href="#path-57"></use>
                    </mask>
                    <g id="Clip-87"></g>
                    <polygon id="Fill-86" fill="#00507C" mask="url(#mask-58)" points="-4.19622642 12.1298113 19.7162264 12.1298113 19.7162264 -4.40251572 -4.19622642 -4.40251572"></polygon>
                </g>
                <g id="Group-91" transform="translate(55.345912, 92.578616)">
                    <mask id="mask-60" fill="white">
                        <use xlink:href="#path-59"></use>
                    </mask>
                    <g id="Clip-90"></g>
                    <polygon id="Fill-89" fill="#00507C" mask="url(#mask-60)" points="-5.00427673 18.5469182 12.1358491 18.5469182 12.1358491 -4.47295597 -5.00427673 -4.47295597"></polygon>
                </g>
                <g id="Group-94" transform="translate(85.534591, 92.578616)">
                    <mask id="mask-62" fill="white">
                        <use xlink:href="#path-61"></use>
                    </mask>
                    <g id="Clip-93"></g>
                    <polygon id="Fill-92" fill="#00507C" mask="url(#mask-62)" points="-4.67119497 18.5469182 12.4689308 18.5469182 12.4689308 -4.47295597 -4.67119497 -4.47295597"></polygon>
                </g>
                <g id="Group-97" transform="translate(58.364780, 127.798742)">
                    <mask id="mask-64" fill="white">
                        <use xlink:href="#path-63"></use>
                    </mask>
                    <g id="Clip-96"></g>
                    <polygon id="Fill-95" fill="#F9CFCF" mask="url(#mask-64)" points="-4.09660377 24.2233962 35.7262893 24.2233962 35.7262893 -4.3109434 -4.09660377 -4.3109434"></polygon>
                </g>
                <g id="Group-100" transform="translate(33.207547, 55.345912)">
                    <mask id="mask-66" fill="white">
                        <use xlink:href="#path-65"></use>
                    </mask>
                    <g id="Clip-99"></g>
                    <polygon id="Fill-98" fill="#00507C" mask="url(#mask-66)" points="-4.9690566 42.7139623 36.6410063 42.7139623 36.6410063 -4.18314465 -4.9690566 -4.18314465"></polygon>
                </g>
                <g id="Group-103" transform="translate(55.345912, 47.295597)">
                    <mask id="mask-68" fill="white">
                        <use xlink:href="#path-67"></use>
                    </mask>
                    <g id="Clip-102"></g>
                    <polygon id="Fill-101" fill="#00507C" mask="url(#mask-68)" points="-4.35522013 48.4779874 61.0535849 48.4779874 61.0535849 -4.85534591 -4.35522013 -4.85534591"></polygon>
                </g>
                <g id="Group-106" transform="translate(82.515723, 90.566038)">
                    <mask id="mask-70" fill="white">
                        <use xlink:href="#path-69"></use>
                    </mask>
                    <g id="Clip-105"></g>
                    <polygon id="Fill-104" fill="#00507C" mask="url(#mask-70)" points="-4.56855346 9.69459119 18.5559748 9.69459119 18.5559748 -4.55345912 -4.56855346 -4.55345912"></polygon>
                </g>
                <g id="Group-109" transform="translate(51.320755, 90.566038)">
                    <mask id="mask-72" fill="white">
                        <use xlink:href="#path-71"></use>
                    </mask>
                    <g id="Clip-108"></g>
                    <polygon id="Fill-107" fill="#00507C" mask="url(#mask-72)" points="-4.03320755 9.69459119 19.0913208 9.69459119 19.0913208 -4.55446541 -4.03320755 -4.55446541"></polygon>
                </g>
                <g id="Group-112" transform="translate(53.333333, 71.446541)">
                    <mask id="mask-74" fill="white">
                        <use xlink:href="#path-73"></use>
                    </mask>
                    <g id="Clip-111"></g>
                    <polygon id="Fill-110" fill="#E0EBFC" mask="url(#mask-74)" points="-4.11471698 23.3509434 44.152956 23.3509434 44.152956 -4.85836478 -4.11471698 -4.85836478"></polygon>
                </g>
                <g id="Group-115" transform="translate(64.402516, 73.459119)">
                    <mask id="mask-76" fill="white">
                        <use xlink:href="#path-75"></use>
                    </mask>
                    <g id="Clip-114"></g>
                    <polygon id="Fill-113" fill="#0071BC" mask="url(#mask-76)" points="-4.97509434 18.8920755 22.8769811 18.8920755 22.8769811 -4.4236478 -4.97509434 -4.4236478"></polygon>
                </g>
                <g id="Group-118" transform="translate(46.289308, 124.779874)">
                    <mask id="mask-78" fill="white">
                        <use xlink:href="#path-77"></use>
                    </mask>
                    <g id="Clip-117"></g>
                    <polygon id="Fill-116" fill="#A4C9FF" mask="url(#mask-78)" points="-4.15194969 27.9738365 59.9245283 27.9738365 59.9245283 -4.3109434 -4.15194969 -4.3109434"></polygon>
                </g>
                <g id="Group-121" transform="translate(106.666667, 45.283019)">
                    <mask id="mask-80" fill="white">
                        <use xlink:href="#path-79"></use>
                    </mask>
                    <g id="Clip-120"></g>
                    <polygon id="Fill-119" fill="#E0EBFC" mask="url(#mask-80)" points="-4.63899371 59.3640252 26.7280503 59.3640252 26.7280503 -4.66415094 -4.63899371 -4.66415094"></polygon>
                </g>
                <g id="Group-124" transform="translate(113.710692, 48.301887)">
                    <mask id="mask-82" fill="white">
                        <use xlink:href="#path-81"></use>
                    </mask>
                    <g id="Clip-123"></g>
                    <polygon id="Fill-122" fill="#B4E0FA" mask="url(#mask-82)" points="-4.16603774 20.754717 12.1660377 20.754717 12.1660377 -4.94792453 -4.16603774 -4.94792453"></polygon>
                </g>
                <g id="Group-127" transform="translate(105.660377, 44.276730)">
                    <mask id="mask-84" fill="white">
                        <use xlink:href="#path-83"></use>
                    </mask>
                    <g id="Clip-126"></g>
                    <polygon id="Fill-125" fill="#00507C" mask="url(#mask-84)" points="-4.58867925 61.325283 28.6883019 61.325283 28.6883019 -4.61484277 -4.58867925 -4.61484277"></polygon>
                </g>
                <g id="Group-130" transform="translate(52.327044, 70.440252)">
                    <mask id="mask-86" fill="white">
                        <use xlink:href="#path-85"></use>
                    </mask>
                    <g id="Clip-129"></g>
                    <polygon id="Fill-128" fill="#0071BC" mask="url(#mask-86)" points="-4.06339623 25.3132075 46.1142138 25.3132075 46.1142138 -4.80704403 -4.06339623 -4.80704403"></polygon>
                </g>
                <g id="Group-133" transform="translate(79.496855, 143.899371)">
                    <mask id="mask-88" fill="white">
                        <use xlink:href="#path-87"></use>
                    </mask>
                    <g id="Clip-132"></g>
                    <polygon id="Fill-131" fill="#91BBF9" mask="url(#mask-88)" points="-4.90465409 21.4309434 24.0493082 21.4309434 24.0493082 -4.35823899 -4.90465409 -4.35823899"></polygon>
                </g>
                <g id="Group-136" transform="translate(108.679245, 58.364780)">
                    <mask id="mask-90" fill="white">
                        <use xlink:href="#path-89"></use>
                    </mask>
                    <g id="Clip-135"></g>
                    <polygon id="Fill-134" fill="#F9A7A7" mask="url(#mask-90)" points="-4.11471698 43.7444025 22.1776101 43.7444025 22.1776101 -4.96301887 -4.11471698 -4.96301887"></polygon>
                </g>
                <g id="Group-139" transform="translate(119.748428, 57.358491)">
                    <mask id="mask-92" fill="white">
                        <use xlink:href="#path-91"></use>
                    </mask>
                    <g id="Clip-138"></g>
                    <polygon id="Fill-137" fill="#00848E" mask="url(#mask-92)" points="-4.39647799 7.69408805 13.1924528 7.69408805 13.1924528 -4.62691824 -4.39647799 -4.62691824"></polygon>
                </g>
                <g id="Group-142" transform="translate(119.748428, 62.389937)">
                    <mask id="mask-94" fill="white">
                        <use xlink:href="#path-93"></use>
                    </mask>
                    <g id="Clip-141"></g>
                    <polygon id="Fill-140" fill="#00848E" mask="url(#mask-94)" points="-4.39647799 8.08050314 11.3106918 8.08050314 11.3106918 -4.24050314 -4.39647799 -4.24050314"></polygon>
                </g>
                <g id="Group-145" transform="translate(119.748428, 68.427673)">
                    <mask id="mask-96" fill="white">
                        <use xlink:href="#path-95"></use>
                    </mask>
                    <g id="Clip-144"></g>
                    <polygon id="Fill-143" fill="#00848E" mask="url(#mask-96)" points="-4.39647799 7.46163522 13.1924528 7.46163522 13.1924528 -4.85836478 -4.39647799 -4.85836478"></polygon>
                </g>
                <g id="Group-148" transform="translate(119.748428, 73.459119)">
                    <mask id="mask-98" fill="white">
                        <use xlink:href="#path-97"></use>
                    </mask>
                    <g id="Clip-147"></g>
                    <polygon id="Fill-146" fill="#00848E" mask="url(#mask-98)" points="-4.39647799 7.8490566 11.3106918 7.8490566 11.3106918 -4.4709434 -4.39647799 -4.4709434"></polygon>
                </g>
                <g id="Group-151" transform="translate(119.748428, 52.327044)">
                    <mask id="mask-100" fill="white">
                        <use xlink:href="#path-99"></use>
                    </mask>
                    <g id="Clip-150"></g>
                    <polygon id="Fill-149" fill="#00848E" mask="url(#mask-100)" points="-4.39647799 7.30666667 11.3106918 7.30666667 11.3106918 -5.01433962 -4.39647799 -5.01433962"></polygon>
                </g>
                <g id="Group-154" transform="translate(126.792453, 54.339623)">
                    <mask id="mask-102" fill="white">
                        <use xlink:href="#path-101"></use>
                    </mask>
                    <g id="Clip-153"></g>
                    <polygon id="Fill-152" fill="#F9CFCF" mask="url(#mask-102)" points="-4.23144654 27.3036478 18.0125786 27.3036478 18.0125786 -4.77484277 -4.23144654 -4.77484277"></polygon>
                </g>
            </g>
        </g>
    </g>
</svg>