<?xml version="1.0" encoding="UTF-8"?>
<svg width="160px" height="160px" viewBox="0 0 160 160" version="1.1" xmlns="http://www.w3.org/2000/svg" xmlns:xlink="http://www.w3.org/1999/xlink">
    <!-- Generator: sketchtool 64 (101010) - https://sketch.com -->
    <title>5BB8DC8E-AB02-432C-B478-4D66388E6CF2</title>
    <desc>Created with sketchtool.</desc>
    <defs>
        <path d="M5.09283019,0.0805031447 C2.82666667,0.0805031447 0.990188679,1.91698113 0.990188679,4.18314465 L0.990188679,4.18314465 L0.990188679,154.972579 C0.990188679,157.237736 2.82666667,159.074214 5.09283019,159.074214 L5.09283019,159.074214 L155.80478,159.074214 C158.069937,159.074214 159.906415,157.237736 159.906415,154.972579 L159.906415,154.972579 L159.906415,4.18314465 C159.906415,1.91698113 158.069937,0.0805031447 155.80478,0.0805031447 L155.80478,0.0805031447 L5.09283019,0.0805031447 Z" id="path-1"></path>
        <path d="M5.09283019,0.0805031447 C2.82666667,0.0805031447 0.990188679,1.91698113 0.990188679,4.18314465 L0.990188679,4.18314465 L0.990188679,70.7753459 C44.0513208,36.4820126 116.844277,37.5064151 159.906415,63.7826415 L159.906415,63.7826415 L159.906415,4.18314465 C159.906415,1.91698113 158.069937,0.0805031447 155.80478,0.0805031447 L155.80478,0.0805031447 L5.09283019,0.0805031447 Z" id="path-3"></path>
        <path d="M0.990188679,1.89081761 C2.27622642,5.79018868 3.63874214,9.23069182 4.91371069,12.4518239 L4.91371069,12.4518239 C8.20025157,20.7557233 11.04,27.9255346 11.04,38.5479245 L11.04,38.5479245 C11.04,52.4387421 6.15245283,65.7157233 0.990188679,78.5811321 L0.990188679,78.5811321 L0.990188679,79.5330818 C6.27622642,66.3949686 11.3650314,52.8241509 11.3650314,38.5479245 L11.3650314,38.5479245 C11.3650314,27.7836478 8.50415094,20.556478 5.19245283,12.1891824 L5.19245283,12.1891824 C3.82389937,8.73157233 2.35672956,5.02138365 0.990188679,0.765786164 L0.990188679,0.765786164 L0.990188679,1.89081761 Z" id="path-5"></path>
        <path d="M0.990188679,3.6045283 C1.0445283,2.36880503 1.0445283,1.18238994 0.990188679,0.0623899371 L0.990188679,0.0623899371 L0.990188679,3.6045283 Z" id="path-7"></path>
        <path d="M27.6588679,0.0805031447 C25.401761,25.3544654 22.6304403,52.5846541 14.6354717,57.0072956 L14.6354717,57.0072956 C9.93610063,54.5428931 6.2681761,47.6528302 3.73735849,36.5403774 L3.73735849,36.5403774 C2.71798742,31.1698113 1.80327044,25.6291824 0.990188679,20.0432704 L0.990188679,20.0432704 L0.990188679,22.2883019 C1.72477987,27.1637736 2.53584906,31.9949686 3.42742138,36.6953459 L3.42742138,36.6953459 C6.00553459,48.0150943 9.75899371,55.0198742 14.5851572,57.5134591 L14.5851572,57.5134591 L14.6384906,57.5406289 L14.6908176,57.5114465 C22.9142138,53.0787421 25.7106918,25.5718239 27.9879245,0.0805031447 L27.9879245,0.0805031447 L27.6588679,0.0805031447 Z" id="path-9"></path>
        <path d="M30.674717,0.0805031447 C25.4128302,64.0090566 16.3441509,95.4072956 9.43396226,119.320755 L9.43396226,119.320755 C5.32930818,133.519497 2.00654088,145.026415 0.757735849,159.074214 L0.757735849,159.074214 L1.08679245,159.074214 C2.33559748,145.124025 5.64327044,133.663396 9.72981132,119.525031 L9.72981132,119.525031 C16.6520755,95.5743396 25.7358491,64.1237736 31.0037736,0.0805031447 L31.0037736,0.0805031447 L30.674717,0.0805031447 Z" id="path-11"></path>
        <path d="M15.2372327,0.251572327 C15.2372327,2.44427673 15.2674214,4.67522013 15.2955975,6.83069182 L15.2955975,6.83069182 C15.3257862,8.98616352 15.3559748,11.2161006 15.3559748,13.4077987 L15.3559748,13.4077987 C15.3559748,30.7371069 13.5366038,33.9119497 11.7755975,36.9821384 L11.7755975,36.9821384 C11.1798742,38.0236478 10.6153459,39.0067925 10.1272956,40.518239 L10.1272956,40.518239 C6.24100629,53.2337107 1.72679245,105.713711 0.267672956,135.92956 L0.267672956,135.92956 L0.591698113,135.92956 C2.04880503,105.761006 6.54792453,53.4077987 10.4211321,40.7386164 L10.4211321,40.7386164 C10.8860377,39.2915723 11.436478,38.3315723 12.0201258,37.3162264 L12.0201258,37.3162264 C13.8193711,34.1766038 15.68,30.9303145 15.68,13.4077987 L15.68,13.4077987 C15.68,11.2090566 15.6498113,8.97811321 15.6216352,6.81962264 L15.6216352,6.81962264 C15.5924528,4.66716981 15.5622642,2.43924528 15.5622642,0.251572327 L15.5622642,0.251572327 L15.2372327,0.251572327 Z" id="path-13"></path>
        <path d="M21.1250314,0.0805031447 C19.3177358,25.7318239 14.9303145,41.5255346 10.6545912,56.9116981 L10.6545912,56.9116981 C5.34339623,76.0251572 0.327044025,94.0759748 0.327044025,129.166289 L0.327044025,129.166289 C0.327044025,138.385912 0.651069182,148.113711 1.33031447,159.074214 L1.33031447,159.074214 L1.6563522,159.074214 C0.976100629,148.111698 0.652075472,138.382893 0.652075472,129.166289 L0.652075472,129.166289 C0.652075472,94.1816352 5.65534591,76.1750943 10.9524528,57.1119497 L10.9524528,57.1119497 C15.2422642,41.676478 19.6437736,25.8324528 21.4530818,0.0805031447 L21.4530818,0.0805031447 L21.1250314,0.0805031447 Z" id="path-15"></path>
        <path d="M7.64779874,0.0805031447 C7.76855346,2.99371069 7.84503145,5.90993711 7.84503145,8.82012579 L7.84503145,8.82012579 C7.84503145,17.5205031 6.9081761,35.488805 4.01408805,35.488805 L4.01408805,35.488805 C1.40981132,35.488805 0.839245283,17.4108176 0.839245283,10.445283 L0.839245283,10.445283 C0.839245283,6.99874214 0.913710692,3.50591195 0.999245283,0.0805031447 L0.999245283,0.0805031447 L0.673207547,0.0805031447 C0.588679245,3.50490566 0.515220126,6.99672956 0.515220126,10.445283 L0.515220126,10.445283 C0.515220126,11.488805 0.554465409,35.9919497 4.01408805,35.9919497 L4.01408805,35.9919497 C8.05735849,35.9919497 8.17006289,9.09081761 8.17006289,8.82012579 L8.17006289,8.82012579 C8.17006289,5.90792453 8.09358491,2.9927044 7.97383648,0.0805031447 L7.97383648,0.0805031447 L7.64779874,0.0805031447 Z" id="path-17"></path>
        <path d="M14.0900629,0.0805031447 C11.3559748,24.9901887 8.31496855,30.956478 6.03169811,30.956478 L6.03169811,30.956478 C4.04830189,30.956478 2.32050314,14.9615094 0.883522013,0.0805031447 L0.883522013,0.0805031447 L0.557484277,0.0805031447 C2.41207547,19.2150943 3.89333333,31.4606289 6.03169811,31.4606289 L6.03169811,31.4606289 C9.33433962,31.4606289 12.1449057,20.9267925 14.4241509,0.0805031447 L14.4241509,0.0805031447 L14.0900629,0.0805031447 Z" id="path-19"></path>
        <path d="M0.873459119,0.0805031447 C0.856352201,2.45232704 0.842264151,4.85031447 0.842264151,7.23320755 L0.842264151,7.23320755 C0.842264151,28.8845283 4.44578616,56.8593711 7.93056604,83.9124528 L7.93056604,83.9124528 C11.3408805,110.392956 14.8669182,137.762013 14.9866667,159.074214 L14.9866667,159.074214 L15.3106918,159.074214 C15.1909434,137.712704 11.6628931,110.319497 8.24855346,83.8138365 L8.24855346,83.8138365 C4.76779874,56.7838994 1.1672956,28.8352201 1.1672956,7.23320755 L1.1672956,7.23320755 C1.1672956,4.85232704 1.18238994,2.45333333 1.19949686,0.0805031447 L1.19949686,0.0805031447 L0.873459119,0.0805031447 Z" id="path-21"></path>
        <path d="M12.9901887,0.0805031447 C13.8213836,12.4679245 14.2983648,24.8986164 14.2983648,30.7833962 L14.2983648,30.7833962 C14.2983648,37.2246541 14.1283019,43.7645283 13.9803774,49.5325786 L13.9803774,49.5325786 C13.3937107,64.0573585 10.514717,73.645283 9.88880503,73.7459119 L9.88880503,73.7459119 C6.35773585,73.7459119 2.33660377,32.9247799 0.895597484,0.0805031447 L0.895597484,0.0805031447 L0.573584906,0.0805031447 C1.97232704,32.3089308 5.82641509,74.2490566 9.88880503,74.2490566 L9.88880503,74.2490566 C10.9081761,74.2490566 13.728805,63.8249057 14.3054088,49.5587421 L14.3054088,49.5587421 C14.4543396,43.7806289 14.6233962,37.2327044 14.6233962,30.7833962 L14.6233962,30.7833962 C14.6233962,24.8986164 14.1464151,12.4759748 13.3152201,0.0805031447 L13.3152201,0.0805031447 L12.9901887,0.0805031447 Z" id="path-23"></path>
        <path d="M3.88125786,46.8548428 C1.75295597,69.9350943 0.447798742,96.4337107 0.447798742,105.270943 L0.447798742,105.270943 C0.447798742,106.465409 0.462893082,107.62566 0.492075472,108.759748 L0.492075472,108.759748 L0.817106918,108.759748 C0.787924528,107.62566 0.772830189,106.465409 0.772830189,105.270943 L0.772830189,105.270943 C0.772830189,87.3398742 5.88075472,1.09283019 13.4893082,1.09283019 L13.4893082,1.09283019 C16.3441509,1.09283019 16.5625157,24.1499371 16.7738365,46.4472956 L16.7738365,46.4472956 C16.8895597,58.758239 17.0103145,71.4857862 17.5818868,80.5202516 L17.5818868,80.5202516 C18.2379874,90.6787421 20.1881761,99.8681761 22.6696855,108.759748 L22.6696855,108.759748 L23.0259119,108.759748 C20.5262893,99.8420126 18.5620126,90.6374843 17.9059119,80.4719497 L17.9059119,80.4719497 C17.3353459,71.4586164 17.2155975,58.7401258 17.0988679,46.4392453 L17.0988679,46.4392453 C16.8754717,22.8598742 16.6651572,0.588679245 13.4893082,0.588679245 L13.4893082,0.588679245 C9.07371069,0.588679245 5.82842767,25.7489308 3.88125786,46.8548428 L3.88125786,46.8548428 Z" id="path-25"></path>
        <path d="M0.969056604,4.7527044 C0.526289308,6.90314465 0.0704402516,9.12503145 0.0704402516,11.5552201 L0.0704402516,11.5552201 C0.235471698,17.4561006 0.383396226,23.4998742 0.525283019,29.3433962 L0.525283019,29.3433962 C0.926792453,45.8696855 1.34540881,62.9343396 2.23798742,79.5773585 L2.23798742,79.5773585 L2.56402516,79.5773585 C1.67044025,62.932327 1.2518239,45.8576101 0.850314465,29.325283 L0.850314465,29.325283 C0.707421384,23.4797484 0.561509434,17.4369811 0.395471698,11.5441509 L0.395471698,11.5441509 C0.395471698,9.2045283 0.84427673,7.01886792 1.27899371,4.90566038 L1.27899371,4.90566038 C1.58993711,3.39119497 1.88477987,1.95924528 2.02062893,0.492075472 L2.02062893,0.492075472 L1.69761006,0.420628931 C1.56578616,1.84553459 1.27597484,3.25735849 0.969056604,4.7527044 L0.969056604,4.7527044 Z" id="path-27"></path>
        <path d="M5.30314465,0.0805031447 C4.84628931,14.7421384 4.48402516,29.6020126 4.48402516,41.7720755 L4.48402516,41.7720755 C4.48402516,50.9866667 3.27144654,60.5283019 2.0991195,69.7549686 L2.0991195,69.7549686 C1.10893082,77.561761 0.171069182,84.9348428 0.171069182,90.9695597 L0.171069182,90.9695597 C0.171069182,101.379623 2.50062893,111.39522 4.7527044,121.079748 L4.7527044,121.079748 C7.01283019,130.796478 9.14515723,139.975849 9.14515723,149.546667 L9.14515723,149.546667 C9.14515723,152.883522 8.93786164,156.032201 8.51622642,159.074214 L8.51622642,159.074214 L8.85031447,159.074214 C9.26591195,156.031195 9.47018868,152.880503 9.47018868,149.546667 L9.47018868,149.546667 C9.47018868,139.887296 7.2281761,130.24 5.05761006,120.908679 L5.05761006,120.908679 C2.81559748,111.263396 0.497106918,101.290063 0.497106918,90.9695597 L0.497106918,90.9695597 C0.497106918,84.9831447 1.42993711,77.6342138 2.4191195,69.8525786 L2.4191195,69.8525786 C3.59446541,60.6027673 4.8090566,51.0369811 4.8090566,41.7720755 L4.8090566,41.7720755 C4.8090566,29.6050314 5.17132075,14.7431447 5.62716981,0.0805031447 L5.62716981,0.0805031447 L5.30314465,0.0805031447 Z" id="path-29"></path>
        <path d="M13.9149686,0.0805031447 C13.4319497,11.2352201 12.8503145,22.6405031 12.212327,33.1522013 L12.212327,33.1522013 C10.0065409,69.4621384 7.5109434,90.2842767 5.3645283,90.2842767 L5.3645283,90.2842767 C4.6118239,90.2842767 4.28981132,89.227673 4.00603774,88.2948428 L4.00603774,88.2948428 C3.96477987,88.1589937 3.9245283,88.0281761 3.89031447,87.9265409 L3.89031447,87.9265409 C1.20754717,77.1139623 1.26289308,69.5828931 1.31320755,62.9373585 L1.31320755,62.9373585 C1.32025157,62.048805 1.32628931,61.1753459 1.32628931,60.3089308 L1.32628931,60.3089308 C1.32628931,45.1220126 0.981132075,29.7428931 0.649056604,14.8709434 L0.649056604,14.8709434 C0.540377358,9.98742138 0.430691824,5.04654088 0.331069182,0.0805031447 L0.331069182,0.0805031447 L0.00704402516,0.0805031447 C0.105660377,5.05157233 0.215345912,9.99949686 0.325031447,14.8880503 L0.325031447,14.8880503 C0.656100629,29.7559748 1.00025157,45.1300629 1.00025157,60.3089308 L1.00025157,60.3089308 C1.00025157,61.172327 0.995220126,62.0457862 0.988176101,62.9313208 L0.988176101,62.9313208 C0.938867925,69.6211321 0.881509434,77.2045283 3.59446541,88.1298113 L3.59446541,88.1298113 C3.6327044,88.250566 3.6709434,88.3783648 3.71119497,88.511195 L3.71119497,88.511195 C4.00503145,89.4722013 4.4045283,90.789434 5.3645283,90.789434 L5.3645283,90.789434 C8.40050314,90.789434 10.9393711,59.4727044 12.5363522,33.2015094 L12.5363522,33.2015094 C13.1743396,22.674717 13.7589937,11.2513208 14.2410063,0.0805031447 L14.2410063,0.0805031447 L13.9149686,0.0805031447 Z" id="path-31"></path>
        <path d="M9.21962264,0.0805031447 C8.88352201,4.61786164 8.51622642,9.32528302 8.13786164,14.1987421 L8.13786164,14.1987421 C6.76930818,31.7856604 5.21761006,51.718239 4.52025157,71.9033962 L4.52025157,71.9033962 C3.98993711,79.2955975 3.13559748,84.5514465 2.31044025,89.6342138 L2.31044025,89.6342138 C1.21559748,96.3562264 0.184150943,102.705912 0.184150943,112.875472 L0.184150943,112.875472 C0.184150943,122.251069 1.09383648,131.521006 1.9763522,140.484025 L1.9763522,140.484025 C2.44427673,145.254843 2.92930818,150.187673 3.27044025,155.073208 L3.27044025,155.073208 L3.59345912,155.018868 C3.25132075,150.12327 2.76628931,145.184403 2.2963522,140.406541 L2.2963522,140.406541 C1.41786164,131.463648 0.50918239,122.21283 0.50918239,112.875472 L0.50918239,112.875472 C0.50918239,102.769308 1.53660377,96.448805 2.62440252,89.7559748 L2.62440252,89.7559748 C3.45358491,84.6581132 4.3109434,79.3851572 4.84427673,71.9466667 L4.84427673,71.9466667 C5.54163522,51.7615094 7.09333333,31.8379874 8.4608805,14.2591195 L8.4608805,14.2591195 C8.84125786,9.36553459 9.20955975,4.63798742 9.54767296,0.0805031447 L9.54767296,0.0805031447 L9.21962264,0.0805031447 Z" id="path-33"></path>
        <path d="M6.59924528,0.0805031447 C6.62842767,0.824150943 6.65761006,1.56981132 6.68679245,2.31144654 L6.68679245,2.31144654 C7.14867925,14.2249057 7.62666667,26.5438994 7.62666667,38.6274214 L7.62666667,38.6274214 C7.62666667,50.7371069 6.95245283,63.9144654 5.77610063,74.7813836 L5.77610063,74.7813836 C4.60679245,85.568805 3.34691824,90.4825157 2.66867925,90.4825157 L2.66867925,90.4825157 C1.66339623,90.4825157 1.21257862,85.2085535 1.21257862,81.4651572 L1.21257862,81.4651572 C1.21257862,73.3373585 1.17735849,65.074717 1.14415094,57.0837736 L1.14415094,57.0837736 C1.1109434,49.0928302 1.07471698,40.831195 1.07471698,32.7054088 L1.07471698,32.7054088 C1.07471698,22.4875472 1.1290566,11.4948428 1.34641509,0.0805031447 L1.34641509,0.0805031447 L1.02138365,0.0805031447 C0.803018868,11.4948428 0.749685535,22.4875472 0.749685535,32.7054088 L0.749685535,32.7054088 C0.749685535,40.8332075 0.78591195,49.0968553 0.819119497,57.0867925 L0.819119497,57.0867925 C0.852327044,65.0767296 0.88754717,73.3393711 0.88754717,81.4651572 L0.88754717,81.4651572 C0.88754717,81.8535849 0.907672956,90.9856604 2.66867925,90.9856604 L2.66867925,90.9856604 C4.87849057,90.9856604 7.9527044,64.6027673 7.9527044,38.6274214 L7.9527044,38.6274214 C7.9527044,26.528805 7.47371069,14.2027673 7.01081761,2.28125786 L7.01081761,2.28125786 C6.9836478,1.55069182 6.95446541,0.81408805 6.92528302,0.0805031447 L6.92528302,0.0805031447 L6.59924528,0.0805031447 Z" id="path-35"></path>
        <path d="M4.6118239,34.1695597 C2.17660377,38.9222642 0.253584906,42.6757233 0.253584906,55.0661635 L0.253584906,55.0661635 C0.253584906,60.2233962 0.720503145,65.4218868 1.27396226,70.5207547 L1.27396226,70.5207547 L1.60402516,70.5207547 C1.04955975,65.4148428 0.579622642,60.212327 0.579622642,55.0661635 L0.579622642,55.0661635 C0.579622642,42.8508176 2.47245283,39.1577358 4.86742138,34.4825157 L4.86742138,34.4825157 C7.52100629,29.3061635 10.7934591,22.9222642 13.0515723,3.08125786 L13.0515723,3.08125786 C13.1099371,27.3519497 13.8777358,49.5798742 15.3861635,70.5207547 L15.3861635,70.5207547 L15.7132075,70.5207547 C14.1423899,48.7194969 13.3725786,25.523522 13.3725786,0.0754716981 L13.3725786,0.0754716981 L13.0495597,0.0352201258 C10.8025157,22.0920755 7.37106918,28.7889308 4.6118239,34.1695597 L4.6118239,34.1695597 Z" id="path-37"></path>
        <path d="M1.69358491,1.18742138 C2.78138365,5.26188679 3.30968553,9.68955975 3.30968553,14.7230189 L3.30968553,14.7230189 C3.30968553,20.9066667 2.51069182,27.2352201 1.73685535,33.3534591 L1.73685535,33.3534591 C1.30716981,36.7537107 0.864402516,40.2515723 0.568553459,43.68 L0.568553459,43.68 C0.429685535,41.3826415 0.360251572,38.9303145 0.360251572,36.243522 L0.360251572,36.243522 C0.360251572,32.7949686 0.471949686,29.3001258 0.579622642,25.9210063 L0.579622642,25.9210063 C0.687295597,22.5157233 0.8,18.994717 0.8,15.4948428 L0.8,15.4948428 C0.8,14.0910692 0.781886792,12.7909434 0.746666667,11.5210063 L0.746666667,11.5210063 L0.42163522,11.5431447 C0.456855346,12.8050314 0.473962264,14.0981132 0.473962264,15.4948428 L0.473962264,15.4948428 C0.473962264,18.9826415 0.362264151,22.4966038 0.253584906,25.8948428 L0.253584906,25.8948428 C0.146918239,29.2810063 0.0362264151,32.7808805 0.0362264151,36.243522 L0.0362264151,36.243522 C0.0362264151,39.8128302 0.155974843,42.9735849 0.401509434,45.9049057 L0.401509434,45.9049057 L0.582641509,48.0412579 L0.725534591,45.8998742 C0.998238994,41.8133333 1.53459119,37.5607547 2.05484277,33.4490566 L2.05484277,33.4490566 C2.8327044,27.3066667 3.63471698,20.9559748 3.63471698,14.7230189 L3.63471698,14.7230189 C3.63471698,9.62314465 3.09836478,5.13207547 1.99345912,0.994213836 L1.99345912,0.994213836 L1.69358491,1.18742138 Z" id="path-39"></path>
        <path d="M3.01081761,0.0805031447 C3.11446541,3.17786164 3.17886792,5.56176101 3.17886792,7.17081761 L3.17886792,7.17081761 C3.17886792,21.631195 1.54062893,43.7745912 0.846289308,46.5167296 L0.846289308,46.5167296 C0.790943396,46.0981132 0.724528302,45.0576101 0.724528302,42.4915723 L0.724528302,42.4915723 C0.724528302,41.318239 0.866415094,40.1167296 1.16830189,38.7069182 L1.16830189,38.7069182 L0.859371069,38.5469182 C0.545408805,40.0100629 0.398490566,41.2638994 0.398490566,42.4915723 L0.398490566,42.4915723 C0.398490566,44.0201258 0.423647799,45.1823899 0.469937107,45.9441509 L0.469937107,45.9441509 C0.522264151,46.7833962 0.592704403,47.2412579 0.823144654,47.2412579 L0.823144654,47.2412579 C0.997232704,47.2412579 1.21459119,47.2412579 1.66842767,42.9132075 L1.66842767,42.9132075 C1.93710692,40.3451572 2.23396226,36.7265409 2.5036478,32.723522 L2.5036478,32.723522 C3.13056604,23.398239 3.50389937,13.8465409 3.50389937,7.17081761 L3.50389937,7.17081761 C3.50389937,5.55471698 3.44050314,3.17383648 3.33584906,0.0805031447 L3.33584906,0.0805031447 L3.01081761,0.0805031447 Z" id="path-41"></path>
        <path d="M0.0442767296,0.0805031447 C1.13710692,7.31069182 2.54792453,12.9167296 4.18716981,19.4254088 L4.18716981,19.4254088 C8.56050314,36.7899371 14.5479245,60.5715723 20.9750943,136.931824 L20.9750943,136.931824 C21.5657862,144.628931 21.7197484,152.285786 21.7519497,159.074214 L21.7519497,159.074214 L22.0769811,159.074214 C22.0437736,152.269686 21.8908176,144.593711 21.2971069,136.87044 L21.2971069,136.87044 C14.8649057,60.4457862 8.86842767,36.6319497 4.49006289,19.2422642 L4.49006289,19.2422642 C2.82666667,12.6369811 1.42993711,7.0872956 0.355220126,0.0805031447 L0.355220126,0.0805031447 L0.0442767296,0.0805031447 Z" id="path-43"></path>
        <path d="M2.22289308,1.4490566 C2.22289308,6.53786164 1.75295597,11.6226415 1.2991195,16.5403774 L1.2991195,16.5403774 C0.846289308,21.4349686 0.37836478,26.4945912 0.37836478,31.5361006 L0.37836478,31.5361006 C0.37836478,37.9974843 1.91597484,50.5539623 3.69710692,65.0908176 L3.69710692,65.0908176 C4.6208805,72.6148428 5.60301887,80.6611321 6.46842767,88.6339623 L6.46842767,88.6339623 L6.79748428,88.6339623 C5.93006289,80.6309434 4.94289308,72.5514465 4.01610063,64.998239 L4.01610063,64.998239 C2.23899371,50.4855346 0.703396226,37.951195 0.703396226,31.5361006 L0.703396226,31.5361006 C0.703396226,26.5308176 1.17031447,21.4893082 1.62113208,16.6128302 L1.62113208,16.6128302 C2.03672956,12.1116981 2.46641509,7.46968553 2.53786164,2.80050314 L2.53786164,2.80050314 C6.81861635,20.6490566 9.13308176,33.8555975 9.13308176,51.3428931 L9.13308176,51.3428931 C9.13308176,53.4037736 9.11295597,55.5099371 9.0918239,57.5446541 L9.0918239,57.5446541 C9.0727044,59.6286792 9.05157233,61.7831447 9.05157233,63.9436478 L9.05157233,63.9436478 C9.05157233,68.052327 9.12503145,72.2757233 9.19647799,76.3592453 L9.19647799,76.3592453 C9.26591195,80.3813836 9.33836478,84.5383648 9.34138365,88.6339623 L9.34138365,88.6339623 L9.66742138,88.6339623 C9.66339623,84.5303145 9.59194969,80.372327 9.52150943,76.3461635 L9.52150943,76.3461635 C9.45006289,72.2666667 9.37660377,68.045283 9.37660377,63.9436478 L9.37660377,63.9436478 C9.37660377,61.7871698 9.39773585,59.634717 9.41886792,57.5506918 L9.41886792,57.5506918 C9.43798742,55.5149686 9.45811321,53.408805 9.45811321,51.3428931 L9.45811321,51.3428931 C9.45811321,33.3685535 7.02691824,19.9104403 2.53786164,1.36150943 L2.53786164,1.36150943 L2.22289308,0.0583647799 L2.22289308,1.4490566 Z" id="path-45"></path>
        <path d="M0.765786164,0.0805031447 C1.25584906,4.01811321 1.31220126,8.05534591 1.31220126,12.1740881 L1.31220126,12.1740881 L1.31119497,14.3738365 C1.31119497,26.6787421 2.46943396,30.4231447 3.40125786,33.4299371 L3.40125786,33.4299371 C4.0754717,35.6115723 4.66012579,37.4953459 4.66012579,42.0689308 L4.66012579,42.0689308 C4.66012579,45.7821384 4.19119497,49.5768553 3.69610063,53.5949686 L3.69610063,53.5949686 C3.19798742,57.6301887 2.68477987,61.805283 2.68477987,65.9079245 L2.68477987,65.9079245 C2.68477987,70.0548428 3.05811321,74.1122013 3.45559748,78.4080503 L3.45559748,78.4080503 L3.50993711,78.9937107 C5.04855346,90.9212579 5.56578616,102.155472 6.06389937,113.019371 L6.06389937,113.019371 C6.77937107,128.587673 7.45861635,143.320755 10.9584906,159.074214 L10.9584906,159.074214 L11.3006289,159.074214 C7.7836478,143.320755 7.10440252,128.570566 6.38893082,112.983145 L6.38893082,112.983145 C5.88880503,102.105157 5.37157233,90.8538365 3.82993711,78.9091824 L3.82993711,78.9091824 L3.77660377,78.3366038 C3.38213836,74.0598742 3.00981132,70.0186164 3.00981132,65.9079245 L3.00981132,65.9079245 C3.00880503,61.8525786 3.52,57.7026415 4.01610063,53.6895597 L4.01610063,53.6895597 C4.51320755,49.6472956 4.98515723,45.8304403 4.98515723,42.0689308 L4.98515723,42.0689308 C4.98515723,37.3806289 4.38641509,35.4495597 3.69408805,33.2135849 L3.69408805,33.2135849 C2.77735849,30.2500629 1.63622642,26.5640252 1.63622642,14.3738365 L1.63622642,14.3738365 L1.6372327,12.1740881 C1.6372327,8.06238994 1.5808805,4.02716981 1.09584906,0.0805031447 L1.09584906,0.0805031447 L0.765786164,0.0805031447 Z" id="path-47"></path>
        <path d="M0.566540881,0.0805031447 C2.19773585,41.6513208 7.92352201,59.9054088 11.565283,71.5079245 L11.565283,71.5079245 C12.4528302,74.3345912 13.2186164,76.7758491 13.7539623,79.0228931 L13.7539623,79.0228931 C16.1086792,90.1283019 17.7821384,101.436981 19.0259119,112.823145 L19.0259119,112.823145 L19.0259119,109.926038 C17.8143396,99.4666667 16.2274214,89.0777358 14.0598742,78.8578616 L14.0598742,78.8578616 C13.5184906,76.5786164 12.7496855,74.1262893 11.8571069,71.2875472 L11.8571069,71.2875472 C8.22742138,59.7222642 2.52075472,41.5295597 0.891572327,0.0805031447 L0.891572327,0.0805031447 L0.566540881,0.0805031447 Z" id="path-49"></path>
        <path d="M1.17132075,0.227421384 C1.12402516,0.228427673 1.07773585,0.241509434 1.03144654,0.268679245 L1.03144654,0.268679245 C0.615849057,0.510188679 0.43672956,2.27522013 0.423647799,5.03647799 L0.423647799,5.03647799 L0.423647799,5.66339623 C0.451823899,12.4095597 1.3554717,24.3109434 2.2772327,34.7622642 L2.2772327,34.7622642 C3.04503145,43.4626415 3.96477987,52.6742138 4.82515723,60.4578616 L4.82515723,60.4578616 L4.86138365,60.4578616 C4.96,60.4578616 5.05761006,60.4548428 5.15421384,60.4477987 L5.15421384,60.4477987 C4.29383648,52.6571069 3.3690566,43.4203774 2.60025157,34.6938365 L2.60025157,34.6938365 C0.447798742,10.2883019 0.437735849,1.15320755 1.14716981,0.739622642 L1.14716981,0.739622642 C1.17433962,0.723522013 1.43698113,0.643018868 2.06289308,2.57408805 L2.06289308,2.57408805 C3.68704403,11.1325786 4.92679245,19.9698113 6.12427673,28.5122013 L6.12427673,28.5122013 C7.0027673,34.7703145 7.90540881,41.1854088 8.96301887,47.5371069 L8.96301887,47.5371069 L8.96301887,45.5033962 C8.04025157,39.7846541 7.23220126,34.0316981 6.44226415,28.4045283 L6.44226415,28.4045283 C5.2427673,19.8520755 4.00201258,11.0077987 2.36377358,2.3909434 L2.36377358,2.3909434 C1.88981132,0.920754717 1.51748428,0.233459119 1.17937107,0.227421384 L1.17937107,0.227421384 L1.17132075,0.227421384 Z" id="path-51"></path>
        <path d="M0.777861635,0.0805031447 C1.27798742,43.7293082 6.78138365,64.5122013 12.594717,86.452327 L12.594717,86.452327 C12.7255346,86.9464151 12.8573585,87.4425157 12.9881761,87.9386164 L12.9881761,87.9386164 L12.9881761,86.612327 C12.9579874,86.4955975 12.9257862,86.3778616 12.8955975,86.2611321 L12.8955975,86.2611321 C7.0963522,64.3662893 1.60301887,43.6296855 1.10289308,0.0805031447 L1.10289308,0.0805031447 L0.777861635,0.0805031447 Z" id="path-53"></path>
        <path d="M18.3144654,0.599748428 C8.20025157,0.599748428 0,7.63371069 0,16.3099371 L0,16.3099371 L0,25.2377358 L78.490566,25.2377358 L78.490566,16.3099371 C78.490566,7.63371069 70.2913208,0.599748428 60.1761006,0.599748428 L60.1761006,0.599748428 L18.3144654,0.599748428 Z" id="path-55"></path>
        <path d="M9.66238994,29.1532075 L9.66238994,31.8822642 C9.6,31.8812579 9.53962264,31.8732075 9.47823899,31.8732075 L9.47823899,31.8732075 C4.56050314,31.8732075 0.573584906,35.8188679 0.573584906,40.6862893 L0.573584906,40.6862893 C0.573584906,45.5537107 4.56050314,49.4983648 9.47823899,49.4983648 L9.47823899,49.4983648 C9.80125786,49.4983648 10.1192453,49.4802516 10.4332075,49.447044 L10.4332075,49.447044 C13.4460377,62.2259119 25.0213836,71.7484277 38.8498113,71.7484277 L38.8498113,71.7484277 C52.6812579,71.7484277 64.2566038,62.2259119 67.2684277,49.447044 L67.2684277,49.447044 C67.5833962,49.4802516 67.9013836,49.4983648 68.2233962,49.4983648 L68.2233962,49.4983648 C73.1421384,49.4983648 77.1290566,45.5537107 77.1290566,40.6862893 L77.1290566,40.6862893 C77.1290566,35.8188679 73.1421384,31.8732075 68.2233962,31.8732075 L68.2233962,31.8732075 C68.1620126,31.8732075 68.1016352,31.8822642 68.0402516,31.8822642 L68.0402516,31.8822642 L68.0402516,29.1532075 C68.0402516,13.1994969 54.9715723,0.266666667 38.8498113,0.266666667 L38.8498113,0.266666667 C22.7300629,0.266666667 9.66238994,13.1994969 9.66238994,29.1532075 L9.66238994,29.1532075 Z" id="path-57"></path>
        <path d="M4.38842767,0.822138365 C3.27044025,1.15622642 2.2872956,1.71974843 1.54867925,2.45132075 L1.54867925,2.45132075 C0.612830189,3.38012579 0.0966037736,4.54742138 0.0966037736,5.7408805 L0.0966037736,5.7408805 C0.0966037736,6.23899371 0.501132075,6.6445283 0.999245283,6.6445283 L0.999245283,6.6445283 C1.49836478,6.6445283 1.90289308,6.23899371 1.90289308,5.7408805 L1.90289308,5.7408805 C1.90289308,5.02339623 2.21987421,4.33006289 2.81962264,3.73534591 L2.81962264,3.73534591 C3.34893082,3.21207547 4.06943396,2.80352201 4.90566038,2.55396226 L4.90566038,2.55396226 C5.40880503,2.40402516 5.97836478,2.33056604 6.64654088,2.33056604 L6.64654088,2.33056604 C7.31471698,2.33056604 7.88427673,2.40402516 8.38742138,2.55396226 L8.38742138,2.55396226 C9.22264151,2.80352201 9.94515723,3.21207547 10.4724528,3.73534591 L10.4724528,3.73534591 C11.0722013,4.33006289 11.3891824,5.02339623 11.3891824,5.7408805 L11.3891824,5.7408805 C11.3891824,6.23899371 11.7937107,6.6445283 12.2928302,6.6445283 L12.2928302,6.6445283 C12.7909434,6.6445283 13.196478,6.23899371 13.1974843,5.7408805 L13.1974843,5.7408805 C13.1974843,4.54742138 12.6802516,3.3791195 11.7444025,2.45132075 L11.7444025,2.45132075 C11.0057862,1.72075472 10.0236478,1.1572327 8.90566038,0.823144654 L8.90566038,0.823144654 C8.23245283,0.621886792 7.49283019,0.52327044 6.64754717,0.52327044 L6.64754717,0.52327044 C5.80025157,0.52327044 5.06163522,0.621886792 4.38842767,0.822138365 L4.38842767,0.822138365 Z" id="path-59"></path>
        <path d="M0.934842767,3.82691824 L0.934842767,9.39974843 C0.934842767,11.2422642 2.43622642,12.7416352 4.28176101,12.7416352 L4.28176101,12.7416352 C6.12830189,12.7416352 7.63069182,11.2422642 7.62968604,9.39974843 L7.62968604,9.39974843 L7.62968604,3.82691824 C7.62968604,1.98540881 6.1272956,0.486037736 4.28176101,0.486037736 L4.28176101,0.486037736 C2.43622642,0.486037736 0.934842767,1.98540881 0.934842767,3.82691824 L0.934842767,3.82691824 Z" id="path-61"></path>
        <path d="M0.623899371,3.82691824 L0.623899371,9.39974843 C0.623899371,11.2422642 2.12528302,12.7416352 3.97081761,12.7416352 L3.97081761,12.7416352 C5.81735849,12.7416352 7.31874214,11.2422642 7.31773635,9.39974843 L7.31773635,9.39974843 L7.31773635,3.82691824 C7.31773635,1.98540881 5.8163522,0.486037736 3.97081761,0.486037736 L3.97081761,0.486037736 C2.12528302,0.486037736 0.623899371,1.98540881 0.623899371,3.82691824 L0.623899371,3.82691824 Z" id="path-63"></path>
        <path d="M16.8563522,4.23949686 C16.7386164,4.24754717 16.6218868,4.25761006 16.5021384,4.26566038 L16.5021384,4.26566038 C16.3210063,4.27773585 16.1378616,4.28779874 15.9527044,4.29383648 L15.9527044,4.29383648 C15.5371069,4.31295597 15.1194969,4.32704403 14.6988679,4.32704403 L14.6988679,4.32704403 C14.2792453,4.32704403 13.8616352,4.31295597 13.4460377,4.29383648 L13.4460377,4.29383648 C13.2618868,4.28779874 13.0777358,4.27773585 12.8955975,4.26566038 L12.8955975,4.26566038 C12.7778616,4.25861635 12.6611321,4.24955975 12.5433962,4.23949686 L12.5433962,4.23949686 C8.24352201,3.92955975 4.20327044,2.70389937 0.62490566,0.746666667 L0.62490566,0.746666667 L0.62490566,4.10163522 C0.62490566,11.8993711 6.72301887,18.2208805 14.2460377,18.2208805 L14.2460377,18.2208805 L15.1527044,18.2208805 C22.6767296,18.2208805 28.7748428,11.8993711 28.7748428,4.10163522 L28.7748428,4.10163522 L28.7748428,0.746666667 C25.1954717,2.70289308 21.1552201,3.92855346 16.8563522,4.23949686 L16.8563522,4.23949686 Z" id="path-65"></path>
        <path d="M13.805283,0.489056604 C7.73836478,1.64226415 2.78842767,6.02566038 0.910691824,11.9084277 L0.910691824,11.9084277 L0.812075472,12.2183648 C-0.336100629,15.8148428 -0.242515723,19.6920755 1.07773585,23.2291824 L1.07773585,23.2291824 L5.4681761,34.9866667 C6.89710692,34.0196226 8.62389937,33.4540881 10.4845283,33.4540881 L10.4845283,33.4540881 L17.2920755,35.032956 L20.8030189,31.4686792 L20.8030189,31.467673 C23.4777358,28.9459119 26.9866667,24.3914465 29.8566038,16.3994969 L29.8566038,16.3994969 C26.5509434,12.1116981 24.1187421,7.12050314 22.7934591,1.70465409 L22.7934591,1.70465409 C22.7532075,1.53660377 22.7240252,1.36955975 22.7069182,1.20150943 L22.7069182,1.20150943 L22.3849057,1.0918239 C20.6289308,0.493081761 18.7934591,0.191194969 16.9539623,0.191194969 L16.9539623,0.191194969 C15.9013836,0.192201258 14.8467925,0.29081761 13.805283,0.489056604 L13.805283,0.489056604 Z" id="path-67"></path>
        <path d="M1.7318239,7.02289308 C0.764779874,7.95572327 0.315974843,9.37157233 0.65509434,10.7612579 L0.65509434,10.7612579 C3.35396226,21.7932075 10.6264151,31.0822642 20.5776101,36.2083019 L20.5776101,36.2083019 L20.5916981,36.2153459 C22.7401258,37.3222642 24.9821384,38.2249057 27.2925786,38.9152201 L27.2925786,38.9152201 C27.8681761,39.0862893 28.3310692,38.4211321 27.9828931,37.9240252 L27.9828931,37.9240252 L23.1486792,31.0259119 C22.727044,30.4241509 23.467673,29.690566 24.0422642,30.1423899 L24.0422642,30.1423899 C29.3866667,34.3275472 39.7735849,41.2608805 50.278239,41.6090566 L50.278239,41.6090566 L51.9889308,36.9247799 C53.9562264,31.5401258 54.0689308,25.6332075 52.3099371,20.1740881 L52.3099371,20.1740881 C50.0186164,13.0686792 44.7879245,7.42138365 38.1011321,4.63899371 L38.1011321,4.63899371 L38.1011321,4.63396226 C31.2130818,1.24377358 25.2377358,0.0452830189 20.2344654,0.0452830189 L20.2344654,0.0452830189 C8.15798742,0.0442767296 1.7318239,7.02289308 1.7318239,7.02289308 L1.7318239,7.02289308 Z" id="path-69"></path>
        <path d="M0.898616352,1.24075472 C0.798993711,1.73081761 1.11496855,2.20779874 1.60301887,2.30742138 L1.60301887,2.30742138 L12.1519497,4.45987421 C12.2133333,4.47194969 12.2737107,4.47698113 12.3330818,4.47698113 L12.3330818,4.47698113 C12.7537107,4.47698113 13.1310692,4.18213836 13.2176101,3.7554717 L13.2176101,3.7554717 C13.3172327,3.26641509 13.0022642,2.78842767 12.5122013,2.68880503 L12.5122013,2.68880503 L1.96327044,0.536352201 C1.90289308,0.52427673 1.84251572,0.518238994 1.78213836,0.518238994 L1.78213836,0.518238994 C1.36352201,0.518238994 0.985157233,0.813081761 0.898616352,1.24075472 L0.898616352,1.24075472 Z" id="path-71"></path>
        <path d="M11.3267925,0.536352201 L0.776855346,2.68880503 C0.288805031,2.78842767 -0.026163522,3.26641509 0.0724528302,3.7554717 L0.0724528302,3.7554717 C0.16,4.18213836 0.537358491,4.47698113 0.956981132,4.47698113 L0.956981132,4.47698113 C1.01735849,4.47698113 1.07773585,4.47194969 1.1391195,4.45987421 L1.1391195,4.45987421 L11.6880503,2.30742138 C12.1761006,2.20779874 12.4930818,1.73081761 12.3924528,1.24075472 L12.3924528,1.24075472 C12.3059119,0.813081761 11.9295597,0.518238994 11.5089308,0.518238994 L11.5089308,0.518238994 C11.4495597,0.518238994 11.3881761,0.52427673 11.3267925,0.536352201 L11.3267925,0.536352201 Z" id="path-73"></path>
        <path d="M0.703396226,13.3796226 C0.703396226,20.5423899 6.52981132,26.3708176 13.6925786,26.3708176 L13.6925786,26.3708176 C20.8563522,26.3708176 26.6837736,20.5423899 26.6837736,13.3796226 L26.6837736,13.3796226 C26.6837736,6.21685535 20.8563522,0.389433962 13.6925786,0.389433962 L13.6925786,0.389433962 C6.52981132,0.389433962 0.703396226,6.21685535 0.703396226,13.3796226 L0.703396226,13.3796226 Z M2.50968553,13.3796226 C2.50968553,7.21308176 7.52603774,2.19672956 13.6925786,2.19672956 L13.6925786,2.19672956 C19.8601258,2.19672956 24.876478,7.21308176 24.876478,13.3796226 L24.876478,13.3796226 C24.876478,19.5461635 19.8601258,24.563522 13.6925786,24.563522 L13.6925786,24.563522 C7.52603774,24.563522 2.50968553,19.5461635 2.50968553,13.3796226 L2.50968553,13.3796226 Z" id="path-75"></path>
        <path d="M0.637987421,9.35446541 C0.637987421,14.3335849 4.68830189,18.3859119 9.66742138,18.3859119 L9.66742138,18.3859119 C14.6475472,18.3859119 18.6978616,14.3335849 18.6978616,9.35446541 L18.6978616,9.35446541 C18.6978616,4.37534591 14.6475472,0.324025157 9.66742138,0.324025157 L9.66742138,0.324025157 C4.68830189,0.324025157 0.637987421,4.37534591 0.637987421,9.35446541 L0.637987421,9.35446541 Z M2.44427673,9.35446541 C2.44427673,5.37157233 5.68553459,2.13132075 9.66742138,2.13132075 L9.66742138,2.13132075 C13.6513208,2.13132075 16.8925786,5.37157233 16.8925786,9.35446541 L16.8925786,9.35446541 C16.8925786,13.3373585 13.6513208,16.5776101 9.66742138,16.5776101 L9.66742138,16.5776101 C5.68553459,16.5776101 2.44427673,13.3373585 2.44427673,9.35446541 L2.44427673,9.35446541 Z" id="path-77"></path>
        <path d="M0.325031447,4.32301887 C0.325031447,6.70490566 2.25509434,8.63496855 4.63597484,8.63496855 L4.63597484,8.63496855 C7.01786164,8.63496855 8.94893082,6.70490566 8.94893082,4.32301887 L8.94893082,4.32301887 C8.94893082,1.94213836 7.01786164,0.0120754717 4.63597484,0.0120754717 L4.63597484,0.0120754717 C2.25509434,0.0120754717 0.325031447,1.94213836 0.325031447,4.32301887 L0.325031447,4.32301887 Z" id="path-79"></path>
        <path d="M8.48,1.16125786 L6.28226415,4.84427673 L5.2045283,3.51295597 C5.02037736,3.28251572 4.7245283,3.15974843 4.42566038,3.18691824 L4.42566038,3.18691824 C4.12578616,3.21509434 3.86515723,3.38918239 3.7363522,3.64880503 L3.7363522,3.64880503 L0.78591195,9.54566038 C0.578616352,9.96025157 0.762767296,10.4603774 1.19647799,10.6666667 L1.19647799,10.6666667 C1.27194969,10.7008805 1.34943396,10.7250314 1.42792453,10.7391195 L1.42792453,10.7391195 C1.80025157,10.8045283 2.18465409,10.6304403 2.35672956,10.2883019 L2.35672956,10.2883019 L4.70238994,5.59698113 L5.71471698,6.84578616 C5.89283019,7.0681761 6.17459119,7.1909434 6.46339623,7.17383648 L6.46339623,7.17383648 C6.75220126,7.15672956 7.01081761,7.0027673 7.15371069,6.76327044 L7.15371069,6.76327044 L9.99245283,2.00955975 C10.2309434,1.61106918 10.0850314,1.09886792 9.66641509,0.865408805 L9.66641509,0.865408805 C9.52654088,0.786918239 9.37459119,0.749685535 9.22465409,0.749685535 L9.22465409,0.749685535 C8.92679245,0.749685535 8.63798742,0.896603774 8.48,1.16125786 L8.48,1.16125786 Z" id="path-81"></path>
        <path d="M0.613836478,0.865408805 C0.194213836,1.09886792 0.0493081761,1.61106918 0.286792453,2.00955975 L0.286792453,2.00955975 L3.12553459,6.76327044 C3.26943396,7.0027673 3.52704403,7.15672956 3.81685535,7.17383648 L3.81685535,7.17383648 C4.10465409,7.1909434 4.38641509,7.0681761 4.56553459,6.84578616 L4.56553459,6.84578616 L5.57685535,5.59698113 L7.92251572,10.2883019 C8.09358491,10.6304403 8.48,10.8045283 8.85232704,10.7391195 L8.85232704,10.7391195 C8.9318239,10.7250314 9.0072956,10.7008805 9.08377358,10.6666667 L9.08377358,10.6666667 C9.51647799,10.4603774 9.70062893,9.96025157 9.49333333,9.54566038 L9.49333333,9.54566038 L6.54389937,3.64880503 C6.41509434,3.38918239 6.15345912,3.21509434 5.85358491,3.18691824 L5.85358491,3.18691824 C5.55371069,3.15974843 5.25987421,3.28251572 5.07371069,3.51295597 L5.07371069,3.51295597 L3.99798742,4.84427673 L1.79924528,1.16125786 C1.64125786,0.896603774 1.35245283,0.749685535 1.05559748,0.749685535 L1.05559748,0.749685535 C0.905660377,0.749685535 0.753710692,0.786918239 0.613836478,0.865408805 L0.613836478,0.865408805 Z" id="path-83"></path>
        <path d="M8.48,0.792955975 L6.28226415,4.47496855 L5.2045283,3.14465409 C5.02037736,2.91522013 4.7245283,2.79144654 4.42566038,2.81962264 L4.42566038,2.81962264 C4.12578616,2.84679245 3.86515723,3.0208805 3.7363522,3.28050314 L3.7363522,3.28050314 L0.78591195,9.17735849 C0.578616352,9.5909434 0.762767296,10.0920755 1.19647799,10.2973585 L1.19647799,10.2973585 C1.27194969,10.3335849 1.34943396,10.3567296 1.42792453,10.3698113 L1.42792453,10.3698113 C1.80025157,10.4362264 2.18465409,10.2611321 2.35672956,9.91899371 L2.35672956,9.91899371 L4.70238994,5.22767296 L5.71471698,6.47849057 C5.89283019,6.69987421 6.17459119,6.82163522 6.46339623,6.80553459 L6.46339623,6.80553459 C6.75220126,6.78842767 7.01081761,6.6354717 7.15371069,6.39396226 L7.15371069,6.39396226 L9.99245283,1.64025157 C10.2309434,1.24176101 10.0850314,0.730566038 9.66641509,0.497106918 L9.66641509,0.497106918 C9.52654088,0.417610063 9.37459119,0.380377358 9.22465409,0.380377358 L9.22465409,0.380377358 C8.92679245,0.380377358 8.63798742,0.528301887 8.48,0.792955975 L8.48,0.792955975 Z" id="path-85"></path>
        <path d="M0.613836478,0.497106918 C0.194213836,0.730566038 0.0493081761,1.24176101 0.286792453,1.64025157 L0.286792453,1.64025157 L3.12553459,6.39396226 C3.26943396,6.6354717 3.52704403,6.78842767 3.81685535,6.80553459 L3.81685535,6.80553459 C4.10465409,6.82163522 4.38641509,6.69987421 4.56553459,6.47849057 L4.56553459,6.47849057 L5.57685535,5.22767296 L7.92251572,9.91899371 C8.09358491,10.2611321 8.48,10.4362264 8.85232704,10.3698113 L8.85232704,10.3698113 C8.9318239,10.3567296 9.0072956,10.3335849 9.08377358,10.2973585 L9.08377358,10.2973585 C9.51647799,10.0920755 9.70062893,9.5909434 9.49333333,9.17735849 L9.49333333,9.17735849 L6.54389937,3.28050314 C6.41509434,3.0208805 6.15345912,2.84679245 5.85358491,2.81962264 L5.85358491,2.81962264 C5.55371069,2.79144654 5.25987421,2.91522013 5.07371069,3.14465409 L5.07371069,3.14465409 L3.99798742,4.47496855 L1.79924528,0.792955975 C1.64125786,0.528301887 1.35245283,0.380377358 1.05559748,0.380377358 L1.05559748,0.380377358 C0.905660377,0.380377358 0.753710692,0.417610063 0.613836478,0.497106918 L0.613836478,0.497106918 Z" id="path-87"></path>
    </defs>
    <g id="Page-1" stroke="none" stroke-width="1" fill="none" fill-rule="evenodd">
        <g id="Learn-/-Ideal-state-" transform="translate(-1021.000000, -1472.000000)">
            <g id="sorethroat" transform="translate(1021.000000, 1472.000000)">
                <g id="Group-3">
                    <mask id="mask-2" fill="white">
                        <use xlink:href="#path-1"></use>
                    </mask>
                    <g id="Clip-2"></g>
                    <polygon id="Fill-1" fill="#0071BC" mask="url(#mask-2)" points="-4.49811321 165.395723 165.39673 165.395723 165.39673 -5.03144654 -4.49811321 -5.03144654"></polygon>
                </g>
                <g id="Group-6">
                    <mask id="mask-4" fill="white">
                        <use xlink:href="#path-3"></use>
                    </mask>
                    <g id="Clip-5"></g>
                    <polygon id="Fill-4" fill="#00507C" mask="url(#mask-4)" points="-4.49811321 76.1720755 165.39673 76.1720755 165.39673 -5.03144654 -4.49811321 -5.03144654"></polygon>
                </g>
                <g id="Group-9" transform="translate(0.000000, 48.301887)">
                    <mask id="mask-6" fill="white">
                        <use xlink:href="#path-5"></use>
                    </mask>
                    <g id="Clip-8"></g>
                    <polygon id="Fill-7" fill="#0C84C5" mask="url(#mask-6)" points="-4.49811321 85.6996226 16.3974843 85.6996226 16.3974843 -5.72477987 -4.49811321 -5.72477987"></polygon>
                </g>
                <g id="Group-12" transform="translate(0.000000, 84.528302)">
                    <mask id="mask-8" fill="white">
                        <use xlink:href="#path-7"></use>
                    </mask>
                    <g id="Clip-11"></g>
                    <polygon id="Fill-10" fill="#0C84C5" mask="url(#mask-8)" points="-4.49811321 13.5949686 6.06289308 13.5949686 6.06289308 -8.73459119 -4.49811321 -8.73459119"></polygon>
                </g>
                <g id="Group-15">
                    <mask id="mask-10" fill="white">
                        <use xlink:href="#path-9"></use>
                    </mask>
                    <g id="Clip-14"></g>
                    <polygon id="Fill-13" fill="#0C84C5" mask="url(#mask-10)" points="-4.49811321 62.5720755 33.0264151 62.5720755 33.0264151 -5.03144654 -4.49811321 -5.03144654"></polygon>
                </g>
                <g id="Group-18" transform="translate(6.037736, 0.000000)">
                    <mask id="mask-12" fill="white">
                        <use xlink:href="#path-11"></use>
                    </mask>
                    <g id="Clip-17"></g>
                    <polygon id="Fill-16" fill="#0C84C5" mask="url(#mask-12)" points="-4.38037736 165.395723 36.0412579 165.395723 36.0412579 -5.03144654 -4.38037736 -5.03144654"></polygon>
                </g>
                <g id="Group-21" transform="translate(23.144654, 23.144654)">
                    <mask id="mask-14" fill="white">
                        <use xlink:href="#path-13"></use>
                    </mask>
                    <g id="Clip-20"></g>
                    <polygon id="Fill-19" fill="#0C84C5" mask="url(#mask-14)" points="-4.82515723 142.251069 20.7114465 142.251069 20.7114465 -4.77987421 -4.82515723 -4.77987421"></polygon>
                </g>
                <g id="Group-24" transform="translate(35.220126, 0.000000)">
                    <mask id="mask-16" fill="white">
                        <use xlink:href="#path-15"></use>
                    </mask>
                    <g id="Clip-23"></g>
                    <polygon id="Fill-22" fill="#0C84C5" mask="url(#mask-16)" points="-4.70440252 165.395723 26.490566 165.395723 26.490566 -5.03144654 -4.70440252 -5.03144654"></polygon>
                </g>
                <g id="Group-27" transform="translate(42.264151, 0.000000)">
                    <mask id="mask-18" fill="white">
                        <use xlink:href="#path-17"></use>
                    </mask>
                    <g id="Clip-26"></g>
                    <polygon id="Fill-25" fill="#0C84C5" mask="url(#mask-18)" points="-4.51622642 41.0244025 13.2015094 41.0244025 13.2015094 -5.03144654 -4.51622642 -5.03144654"></polygon>
                </g>
                <g id="Group-30" transform="translate(7.044025, 0.000000)">
                    <mask id="mask-20" fill="white">
                        <use xlink:href="#path-19"></use>
                    </mask>
                    <g id="Clip-29"></g>
                    <polygon id="Fill-28" fill="#0C84C5" mask="url(#mask-20)" points="-4.48201258 36.4920755 19.4646541 36.4920755 19.4646541 -5.03144654 -4.48201258 -5.03144654"></polygon>
                </g>
                <g id="Group-33" transform="translate(61.383648, 0.000000)">
                    <mask id="mask-22" fill="white">
                        <use xlink:href="#path-21"></use>
                    </mask>
                    <g id="Clip-32"></g>
                    <polygon id="Fill-31" fill="#0C84C5" mask="url(#mask-22)" points="-4.18918239 165.395723 20.3461635 165.395723 20.3461635 -5.03144654 -4.18918239 -5.03144654"></polygon>
                </g>
                <g id="Group-36" transform="translate(67.421384, 0.000000)">
                    <mask id="mask-24" fill="white">
                        <use xlink:href="#path-23"></use>
                    </mask>
                    <g id="Clip-35"></g>
                    <polygon id="Fill-34" fill="#0C84C5" mask="url(#mask-24)" points="-4.4608805 79.2805031 19.6548428 79.2805031 19.6548428 -5.03144654 -4.4608805 -5.03144654"></polygon>
                </g>
                <g id="Group-39" transform="translate(44.276730, 50.314465)">
                    <mask id="mask-26" fill="white">
                        <use xlink:href="#path-25"></use>
                    </mask>
                    <g id="Clip-38"></g>
                    <polygon id="Fill-37" fill="#0C84C5" mask="url(#mask-26)" points="-4.5836478 115.081258 28.4236478 115.081258 28.4236478 -4.4427673 -4.5836478 -4.4427673"></polygon>
                </g>
                <g id="Group-42" transform="translate(56.352201, 79.496855)">
                    <mask id="mask-28" fill="white">
                        <use xlink:href="#path-27"></use>
                    </mask>
                    <g id="Clip-41"></g>
                    <polygon id="Fill-40" fill="#0C84C5" mask="url(#mask-28)" points="-4.96100629 85.8988679 7.66591195 85.8988679 7.66591195 -4.61081761 -4.96100629 -4.61081761"></polygon>
                </g>
                <g id="Group-45" transform="translate(82.515723, 0.000000)">
                    <mask id="mask-30" fill="white">
                        <use xlink:href="#path-29"></use>
                    </mask>
                    <g id="Clip-44"></g>
                    <polygon id="Fill-43" fill="#0C84C5" mask="url(#mask-30)" points="-4.86037736 165.395723 14.5016352 165.395723 14.5016352 -5.03144654 -4.86037736 -5.03144654"></polygon>
                </g>
                <g id="Group-48" transform="translate(90.566038, 0.000000)">
                    <mask id="mask-32" fill="white">
                        <use xlink:href="#path-31"></use>
                    </mask>
                    <g id="Clip-47"></g>
                    <polygon id="Fill-46" fill="#0C84C5" mask="url(#mask-32)" points="-5.02641509 95.8208805 19.2754717 95.8208805 19.2754717 -5.03144654 -5.02641509 -5.03144654"></polygon>
                </g>
                <g id="Group-51" transform="translate(100.628931, 0.000000)">
                    <mask id="mask-34" fill="white">
                        <use xlink:href="#path-33"></use>
                    </mask>
                    <g id="Clip-50"></g>
                    <polygon id="Fill-49" fill="#0C84C5" mask="url(#mask-34)" points="-4.8472956 160.104654 14.5851572 160.104654 14.5851572 -5.03144654 -4.8472956 -5.03144654"></polygon>
                </g>
                <g id="Group-54" transform="translate(114.716981, 0.000000)">
                    <mask id="mask-36" fill="white">
                        <use xlink:href="#path-35"></use>
                    </mask>
                    <g id="Clip-53"></g>
                    <polygon id="Fill-52" fill="#0C84C5" mask="url(#mask-36)" points="-4.28176101 96.0171069 12.9831447 96.0171069 12.9831447 -5.03144654 -4.28176101 -5.03144654"></polygon>
                </g>
                <g id="Group-57" transform="translate(111.698113, 88.553459)">
                    <mask id="mask-38" fill="white">
                        <use xlink:href="#path-37"></use>
                    </mask>
                    <g id="Clip-56"></g>
                    <polygon id="Fill-55" fill="#0C84C5" mask="url(#mask-38)" points="-4.77886792 76.8422642 20.838239 76.8422642 20.838239 -4.99622642 -4.77886792 -4.99622642"></polygon>
                </g>
                <g id="Group-60" transform="translate(108.679245, 72.452830)">
                    <mask id="mask-40" fill="white">
                        <use xlink:href="#path-39"></use>
                    </mask>
                    <g id="Clip-59"></g>
                    <polygon id="Fill-58" fill="#0C84C5" mask="url(#mask-40)" points="-4.99522013 53.0727044 8.66716981 53.0727044 8.66716981 -4.03823899 -4.99522013 -4.03823899"></polygon>
                </g>
                <g id="Group-63" transform="translate(94.591195, 0.000000)">
                    <mask id="mask-42" fill="white">
                        <use xlink:href="#path-41"></use>
                    </mask>
                    <g id="Clip-62"></g>
                    <polygon id="Fill-61" fill="#0C84C5" mask="url(#mask-42)" points="-4.63194969 52.2716981 8.5363522 52.2716981 8.5363522 -5.03144654 -4.63194969 -5.03144654"></polygon>
                </g>
                <g id="Group-66" transform="translate(127.798742, 0.000000)">
                    <mask id="mask-44" fill="white">
                        <use xlink:href="#path-43"></use>
                    </mask>
                    <g id="Clip-65"></g>
                    <polygon id="Fill-64" fill="#0C84C5" mask="url(#mask-44)" points="-4.99823899 165.395723 27.1134591 165.395723 27.1134591 -5.03144654 -4.99823899 -5.03144654"></polygon>
                </g>
                <g id="Group-69" transform="translate(134.842767, 70.440252)">
                    <mask id="mask-46" fill="white">
                        <use xlink:href="#path-45"></use>
                    </mask>
                    <g id="Clip-68"></g>
                    <polygon id="Fill-67" fill="#0C84C5" mask="url(#mask-46)" points="-4.65308176 94.956478 14.6978616 94.956478 14.6978616 -4.97207547 -4.65308176 -4.97207547"></polygon>
                </g>
                <g id="Group-72" transform="translate(124.779874, 0.000000)">
                    <mask id="mask-48" fill="white">
                        <use xlink:href="#path-47"></use>
                    </mask>
                    <g id="Clip-71"></g>
                    <polygon id="Fill-70" fill="#0C84C5" mask="url(#mask-48)" points="-4.27672956 165.395723 16.6259119 165.395723 16.6259119 -5.03144654 -4.27672956 -5.03144654"></polygon>
                </g>
                <g id="Group-75" transform="translate(140.880503, 0.000000)">
                    <mask id="mask-50" fill="white">
                        <use xlink:href="#path-49"></use>
                    </mask>
                    <g id="Clip-74"></g>
                    <polygon id="Fill-73" fill="#0C84C5" mask="url(#mask-50)" points="-4.46792453 122.241006 24.5162264 122.241006 24.5162264 -5.03144654 -4.46792453 -5.03144654"></polygon>
                </g>
                <g id="Group-78" transform="translate(150.943396, 98.616352)">
                    <mask id="mask-52" fill="white">
                        <use xlink:href="#path-51"></use>
                    </mask>
                    <g id="Clip-77"></g>
                    <polygon id="Fill-76" fill="#0C84C5" mask="url(#mask-52)" points="-4.60779874 66.7803774 14.452327 66.7803774 14.452327 -4.80402516 -4.60779874 -4.80402516"></polygon>
                </g>
                <g id="Group-81" transform="translate(146.918239, 0.000000)">
                    <mask id="mask-54" fill="white">
                        <use xlink:href="#path-53"></use>
                    </mask>
                    <g id="Clip-80"></g>
                    <polygon id="Fill-79" fill="#0C84C5" mask="url(#mask-54)" points="-4.25459119 94.7028931 18.4784906 94.7028931 18.4784906 -5.03144654 -4.25459119 -5.03144654"></polygon>
                </g>
                <g id="Group-84" transform="translate(42.264151, 133.836478)">
                    <mask id="mask-56" fill="white">
                        <use xlink:href="#path-55"></use>
                    </mask>
                    <g id="Clip-83"></g>
                    <polygon id="Fill-82" fill="#B4E0FA" mask="url(#mask-56)" points="-5.03144654 30.8095597 83.5220126 30.8095597 83.5220126 -4.43169811 -5.03144654 -4.43169811"></polygon>
                </g>
                <g id="Group-87" transform="translate(42.264151, 61.383648)">
                    <mask id="mask-58" fill="white">
                        <use xlink:href="#path-57"></use>
                    </mask>
                    <g id="Clip-86"></g>
                    <polygon id="Fill-85" fill="#F9CFCF" mask="url(#mask-58)" points="-4.45786164 76.7798742 82.1605031 76.7798742 82.1605031 -4.76377358 -4.45786164 -4.76377358"></polygon>
                </g>
                <g id="Group-90" transform="translate(74.465409, 113.710692)">
                    <mask id="mask-60" fill="white">
                        <use xlink:href="#path-59"></use>
                    </mask>
                    <g id="Clip-89"></g>
                    <polygon id="Fill-88" fill="#00507C" mask="url(#mask-60)" points="-4.93484277 11.6759748 18.2289308 11.6759748 18.2289308 -4.50716981 -4.93484277 -4.50716981"></polygon>
                </g>
                <g id="Group-93" transform="translate(62.389937, 95.597484)">
                    <mask id="mask-62" fill="white">
                        <use xlink:href="#path-61"></use>
                    </mask>
                    <g id="Clip-92"></g>
                    <polygon id="Fill-91" fill="#00507C" mask="url(#mask-62)" points="-4.09660377 17.7740881 12.6601258 17.7740881 12.6601258 -4.54540881 -4.09660377 -4.54540881"></polygon>
                </g>
                <g id="Group-96" transform="translate(91.572327, 95.597484)">
                    <mask id="mask-64" fill="white">
                        <use xlink:href="#path-63"></use>
                    </mask>
                    <g id="Clip-95"></g>
                    <polygon id="Fill-94" fill="#00507C" mask="url(#mask-64)" points="-4.40754717 17.7740881 12.3491824 17.7740881 12.3491824 -4.54540881 -4.40754717 -4.54540881"></polygon>
                </g>
                <g id="Group-99" transform="translate(66.415094, 128.805031)">
                    <mask id="mask-66" fill="white">
                        <use xlink:href="#path-65"></use>
                    </mask>
                    <g id="Clip-98"></g>
                    <polygon id="Fill-97" fill="#F9CFCF" mask="url(#mask-66)" points="-4.40754717 23.2513208 33.8062893 23.2513208 33.8062893 -4.28477987 -4.40754717 -4.28477987"></polygon>
                </g>
                <g id="Group-102" transform="translate(41.257862, 61.383648)">
                    <mask id="mask-68" fill="white">
                        <use xlink:href="#path-67"></use>
                    </mask>
                    <g id="Clip-101"></g>
                    <polygon id="Fill-100" fill="#00507C" mask="url(#mask-68)" points="-5.01735849 40.0644025 34.887044 40.0644025 34.887044 -4.83924528 -5.01735849 -4.83924528"></polygon>
                </g>
                <g id="Group-105" transform="translate(63.396226, 52.327044)">
                    <mask id="mask-70" fill="white">
                        <use xlink:href="#path-69"></use>
                    </mask>
                    <g id="Clip-104"></g>
                    <polygon id="Fill-103" fill="#00507C" mask="url(#mask-70)" points="-4.4890566 46.6415094 58.5831447 46.6415094 58.5831447 -4.98716981 -4.4890566 -4.98716981"></polygon>
                </g>
                <g id="Group-108" transform="translate(88.553459, 93.584906)">
                    <mask id="mask-72" fill="white">
                        <use xlink:href="#path-71"></use>
                    </mask>
                    <g id="Clip-107"></g>
                    <polygon id="Fill-106" fill="#00507C" mask="url(#mask-72)" points="-4.15194969 9.50943396 18.2671698 9.50943396 18.2671698 -4.51320755 -4.15194969 -4.51320755"></polygon>
                </g>
                <g id="Group-111" transform="translate(60.377358, 93.584906)">
                    <mask id="mask-74" fill="white">
                        <use xlink:href="#path-73"></use>
                    </mask>
                    <g id="Clip-110"></g>
                    <polygon id="Fill-109" fill="#00507C" mask="url(#mask-74)" points="-4.97710692 9.50943396 17.4420126 9.50943396 17.4420126 -4.51320755 -4.97710692 -4.51320755"></polygon>
                </g>
                <g id="Group-114" transform="translate(67.421384, 129.811321)">
                    <mask id="mask-76" fill="white">
                        <use xlink:href="#path-75"></use>
                    </mask>
                    <g id="Clip-113"></g>
                    <polygon id="Fill-112" fill="#F9A7A7" mask="url(#mask-76)" points="-4.32805031 31.4012579 31.7152201 31.4012579 31.7152201 -4.64201258 -4.32805031 -4.64201258"></polygon>
                </g>
                <g id="Group-117" transform="translate(71.446541, 133.836478)">
                    <mask id="mask-78" fill="white">
                        <use xlink:href="#path-77"></use>
                    </mask>
                    <g id="Clip-116"></g>
                    <polygon id="Fill-115" fill="#F9A7A7" mask="url(#mask-78)" points="-4.39446541 23.4163522 23.7293082 23.4163522 23.7293082 -4.70742138 -4.39446541 -4.70742138"></polygon>
                </g>
                <g id="Group-120" transform="translate(76.477987, 138.867925)">
                    <mask id="mask-80" fill="white">
                        <use xlink:href="#path-79"></use>
                    </mask>
                    <g id="Clip-119"></g>
                    <polygon id="Fill-118" fill="#F9A7A7" mask="url(#mask-80)" points="-4.70641509 13.6664151 13.9803774 13.6664151 13.9803774 -5.01937107 -4.70641509 -5.01937107"></polygon>
                </g>
                <g id="Group-123" transform="translate(96.603774, 137.861635)">
                    <mask id="mask-82" fill="white">
                        <use xlink:href="#path-81"></use>
                    </mask>
                    <g id="Clip-122"></g>
                    <polygon id="Fill-121" fill="#F9A7A7" mask="url(#mask-82)" points="-4.33006289 15.7836478 15.1386164 15.7836478 15.1386164 -4.2827673 -4.33006289 -4.2827673"></polygon>
                </g>
                <g id="Group-126" transform="translate(55.345912, 137.861635)">
                    <mask id="mask-84" fill="white">
                        <use xlink:href="#path-83"></use>
                    </mask>
                    <g id="Clip-125"></g>
                    <polygon id="Fill-124" fill="#F9A7A7" mask="url(#mask-84)" points="-4.85836478 15.7836478 14.6103145 15.7836478 14.6103145 -4.2827673 -4.85836478 -4.2827673"></polygon>
                </g>
                <g id="Group-129" transform="translate(96.603774, 128.805031)">
                    <mask id="mask-86" fill="white">
                        <use xlink:href="#path-85"></use>
                    </mask>
                    <g id="Clip-128"></g>
                    <polygon id="Fill-127" fill="#F9A7A7" mask="url(#mask-86)" points="-4.33006289 15.4153459 15.1386164 15.4153459 15.1386164 -4.65106918 -4.33006289 -4.65106918"></polygon>
                </g>
                <g id="Group-132" transform="translate(55.345912, 128.805031)">
                    <mask id="mask-88" fill="white">
                        <use xlink:href="#path-87"></use>
                    </mask>
                    <g id="Clip-131"></g>
                    <polygon id="Fill-130" fill="#F9A7A7" mask="url(#mask-88)" points="-4.85836478 15.4153459 14.6103145 15.4153459 14.6103145 -4.65106918 -4.85836478 -4.65106918"></polygon>
                </g>
            </g>
        </g>
    </g>
</svg>