<?xml version="1.0" encoding="UTF-8"?>
<svg width="160px" height="160px" viewBox="0 0 160 160" version="1.1" xmlns="http://www.w3.org/2000/svg" xmlns:xlink="http://www.w3.org/1999/xlink">
    <!-- Generator: sketchtool 64 (101010) - https://sketch.com -->
    <title>8786C634-A69B-45D5-A057-35AE653BBCAC</title>
    <desc>Created with sketchtool.</desc>
    <defs>
        <path d="M4.94188679,0.854339623 C2.67572327,0.854339623 0.840251572,2.6918239 0.840251572,4.95597484 L0.840251572,4.95597484 L0.840251572,155.747421 C0.840251572,158.012579 2.67572327,159.849057 4.94188679,159.849057 L4.94188679,159.849057 L155.654843,159.849057 C157.92,159.849057 159.756478,158.012579 159.756478,155.747421 L159.756478,155.747421 L159.756478,4.95597484 C159.756478,2.6918239 157.92,0.854339623 155.654843,0.854339623 L155.654843,0.854339623 L4.94188679,0.854339623 Z" id="path-1"></path>
        <path d="M4.94188679,0.854339623 C2.67572327,0.854339623 0.840251572,2.6918239 0.840251572,4.95597484 L0.840251572,4.95597484 L0.840251572,70.8940881 C43.832956,36.518239 116.625912,37.4742138 159.756478,63.6910692 L159.756478,63.6910692 L159.756478,4.95597484 C159.756478,2.6918239 157.92,0.854339623 155.654843,0.854339623 L155.654843,0.854339623 L4.94188679,0.854339623 Z" id="path-3"></path>
        <path d="M0.840251572,1.43496855 C2.17056604,5.52150943 3.58943396,9.10490566 4.91471698,12.4518239 L4.91471698,12.4518239 C8.20025157,20.754717 11.04,27.9255346 11.04,38.5479245 L11.04,38.5479245 C11.04,52.5725786 6.05685535,65.9743396 0.840251572,78.9534591 L0.840251572,78.9534591 L0.840251572,79.9054088 C6.18062893,66.6515723 11.3650314,52.9579874 11.3650314,38.5479245 L11.3650314,38.5479245 C11.3650314,27.7836478 8.50415094,20.556478 5.19245283,12.1891824 L5.19245283,12.1891824 C3.77358491,8.60578616 2.2490566,4.74867925 0.840251572,0.295849057 L0.840251572,0.295849057 L0.840251572,1.43496855 Z" id="path-5"></path>
        <path d="M0.840251572,7.8681761 C1.08981132,5.07471698 1.1008805,2.46440252 0.840251572,0.21836478 L0.840251572,0.21836478 L0.840251572,7.8681761 Z" id="path-7"></path>
        <path d="M27.589434,0.854339623 C25.3444025,25.9089308 22.5499371,52.6299371 14.6354717,57.0072956 L14.6354717,57.0072956 C9.93509434,54.5428931 6.2681761,47.6518239 3.73735849,36.5403774 L3.73735849,36.5403774 C2.65559748,30.8367296 1.69056604,24.9418868 0.840251572,19.0057862 L0.840251572,19.0057862 L0.840251572,21.2840252 C1.61308176,26.5006289 2.47446541,31.672956 3.42742138,36.6953459 L3.42742138,36.6953459 C6.00654088,48.0150943 9.76,55.0198742 14.5851572,57.5134591 L14.5851572,57.5134591 L14.6384906,57.5396226 L14.6908176,57.5114465 C22.8296855,53.1240252 25.6533333,26.1272956 27.9174843,0.854339623 L27.9174843,0.854339623 L27.589434,0.854339623 Z" id="path-9"></path>
        <path d="M30.6103145,0.854339623 C25.3383648,64.2666667 16.3169811,95.5038994 9.43295597,119.321761 L9.43295597,119.321761 C5.25283019,133.779119 1.88477987,145.447044 0.692327044,159.849057 L0.692327044,159.849057 L1.02037736,159.849057 C2.21383648,145.546667 5.56880503,133.924025 9.73081761,119.525031 L9.73081761,119.525031 C16.6249057,95.6719497 25.6623899,64.3803774 30.9383648,0.854339623 L30.9383648,0.854339623 L30.6103145,0.854339623 Z" id="path-11"></path>
        <path d="M15.238239,0.251572327 C15.238239,2.44528302 15.2674214,4.67522013 15.2955975,6.83069182 L15.2955975,6.83069182 C15.3247799,8.98616352 15.3559748,11.2161006 15.3559748,13.4077987 L15.3559748,13.4077987 C15.3559748,30.7381132 13.5366038,33.912956 11.7766038,36.9821384 L11.7766038,36.9821384 C11.1788679,38.0226415 10.6153459,39.0067925 10.1272956,40.5172327 L10.1272956,40.5172327 C6.20779874,53.3423899 1.64930818,106.619371 0.231446541,136.704403 L0.231446541,136.704403 L0.556477987,136.704403 C1.97232704,106.66566 6.51471698,53.5174843 10.4211321,40.7376101 L10.4211321,40.7376101 C10.8860377,39.2915723 11.436478,38.3325786 12.0191195,37.3162264 L12.0191195,37.3162264 C13.8193711,34.1766038 15.6810063,30.9293082 15.6810063,13.4077987 L15.6810063,13.4077987 C15.6810063,11.2090566 15.6498113,8.97811321 15.6216352,6.81962264 L15.6216352,6.81962264 C15.5924528,4.66716981 15.5622642,2.43924528 15.5622642,0.251572327 L15.5622642,0.251572327 L15.238239,0.251572327 Z" id="path-13"></path>
        <path d="M21.0696855,0.854339623 C19.2291824,26.0528302 14.887044,41.6805031 10.6545912,56.9116981 L10.6545912,56.9116981 C5.34339623,76.0251572 0.327044025,94.0769811 0.327044025,129.166289 L0.327044025,129.166289 C0.327044025,138.602264 0.666163522,148.572579 1.37861635,159.849057 L1.37861635,159.849057 L1.70465409,159.849057 C0.991194969,148.568553 0.652075472,138.599245 0.652075472,129.166289 L0.652075472,129.166289 C0.652075472,94.1816352 5.65534591,76.1750943 10.9524528,57.1119497 L10.9524528,57.1119497 C15.1989937,41.8324528 19.5542138,26.1524528 21.3967296,0.854339623 L21.3967296,0.854339623 L21.0696855,0.854339623 Z" id="path-15"></path>
        <path d="M7.67798742,0.854339623 C7.78163522,3.5109434 7.84503145,6.16855346 7.84503145,8.82012579 L7.84503145,8.82012579 C7.84503145,17.5205031 6.9081761,35.4877987 4.01308176,35.4877987 L4.01308176,35.4877987 C1.40981132,35.4877987 0.839245283,17.4108176 0.839245283,10.445283 L0.839245283,10.445283 C0.839245283,7.25735849 0.902641509,4.03119497 0.979119497,0.854339623 L0.979119497,0.854339623 L0.653081761,0.854339623 C0.577610063,4.03119497 0.514213836,7.2563522 0.514213836,10.445283 L0.514213836,10.445283 C0.514213836,11.488805 0.555471698,35.9919497 4.01308176,35.9919497 L4.01308176,35.9919497 C8.05735849,35.9919497 8.17006289,9.09081761 8.17006289,8.82012579 L8.17006289,8.82012579 C8.17006289,6.16654088 8.10666667,3.50993711 8.00402516,0.854339623 L8.00402516,0.854339623 L7.67798742,0.854339623 Z" id="path-17"></path>
        <path d="M14.0045283,0.854339623 C11.2935849,25.1099371 8.2918239,30.956478 6.03169811,30.956478 L6.03169811,30.956478 C4.08352201,30.956478 2.37987421,15.5109434 0.96,0.854339623 L0.96,0.854339623 L0.633962264,0.854339623 C2.45232704,19.5451572 3.92251572,31.4606289 6.03169811,31.4606289 L6.03169811,31.4606289 C9.29308176,31.4606289 12.076478,21.1884277 14.3396226,0.854339623 L14.3396226,0.854339623 L14.0045283,0.854339623 Z" id="path-19"></path>
        <path d="M0.868427673,0.854339623 C0.854339623,2.97358491 0.84327044,5.10993711 0.84327044,7.23220126 L0.84327044,7.23220126 C0.84327044,28.8845283 4.44578616,56.8583648 7.92955975,83.9114465 L7.92955975,83.9114465 C11.3821384,110.714969 14.9524528,138.42717 14.9906918,159.849057 L14.9906918,159.849057 L15.3157233,159.849057 C15.2774843,138.377862 11.7051572,110.641509 8.24955975,83.8138365 L8.24955975,83.8138365 C4.76880503,56.7849057 1.1672956,28.8342138 1.1672956,7.23220126 L1.1672956,7.23220126 C1.1672956,5.10993711 1.17836478,2.97459119 1.19345912,0.854339623 L1.19345912,0.854339623 L0.868427673,0.854339623 Z" id="path-21"></path>
        <path d="M13.0425157,0.854339623 C13.8425157,12.9841509 14.2973585,25.0223899 14.2973585,30.7844025 L14.2973585,30.7844025 C14.2973585,37.2246541 14.1293082,43.7655346 13.9813836,49.5325786 L13.9813836,49.5325786 C13.3937107,64.0573585 10.5157233,73.645283 9.88981132,73.7459119 L9.88981132,73.7459119 C6.38591195,73.7459119 2.4,33.5637736 0.93081761,0.854339623 L0.93081761,0.854339623 L0.606792453,0.854339623 C2.03471698,32.9771069 5.85962264,74.2490566 9.88981132,74.2490566 L9.88981132,74.2490566 C10.9091824,74.2490566 13.728805,63.8238994 14.3054088,49.5577358 L14.3054088,49.5577358 C14.4533333,43.7806289 14.6233962,37.2337107 14.6233962,30.7844025 L14.6233962,30.7844025 C14.6233962,25.0203774 14.1665409,12.9901887 13.3675472,0.854339623 L13.3675472,0.854339623 L13.0425157,0.854339623 Z" id="path-23"></path>
        <path d="M3.88125786,46.8548428 C1.75396226,69.9361006 0.447798742,96.434717 0.447798742,105.270943 L0.447798742,105.270943 C0.447798742,106.738113 0.468930818,108.155975 0.513207547,109.534591 L0.513207547,109.534591 L0.838238994,109.534591 C0.793962264,108.155975 0.772830189,106.738113 0.772830189,105.270943 L0.772830189,105.270943 C0.772830189,87.3398742 5.88176101,1.0918239 13.4893082,1.0918239 L13.4893082,1.0918239 C16.3441509,1.0918239 16.5625157,24.1489308 16.7738365,46.4472956 L16.7738365,46.4472956 C16.8895597,58.7572327 17.0113208,71.4857862 17.5828931,80.5202516 L17.5828931,80.5202516 C18.2571069,90.9735849 20.3008805,100.402516 22.8880503,109.534591 L22.8880503,109.534591 L23.2442767,109.534591 C20.6420126,100.37434 18.5811321,90.932327 17.9059119,80.4719497 L17.9059119,80.4719497 C17.3363522,71.4586164 17.2155975,58.7401258 17.0988679,46.4392453 L17.0988679,46.4392453 C16.876478,22.8598742 16.6661635,0.588679245 13.4893082,0.588679245 L13.4893082,0.588679245 C9.0727044,0.588679245 5.82842767,25.7489308 3.88125786,46.8548428 L3.88125786,46.8548428 Z" id="path-25"></path>
        <path d="M0.969056604,4.7527044 C0.526289308,6.90314465 0.0704402516,9.12503145 0.0704402516,11.5542138 L0.0704402516,11.5542138 C0.236477987,17.4571069 0.382389937,23.4988679 0.525283019,29.3444025 L0.525283019,29.3444025 C0.932830189,46.1272956 1.35849057,63.4636478 2.28025157,80.3522013 L2.28025157,80.3522013 L2.60628931,80.3522013 C1.6845283,63.4616352 1.25987421,46.1152201 0.850314465,29.325283 L0.850314465,29.325283 C0.707421384,23.4797484 0.561509434,17.4369811 0.395471698,11.5431447 L0.395471698,11.5431447 C0.395471698,9.2045283 0.84427673,7.01886792 1.27899371,4.90566038 L1.27899371,4.90566038 C1.58993711,3.39119497 1.88477987,1.95924528 2.01962264,0.492075472 L2.01962264,0.492075472 L1.69660377,0.420628931 C1.56679245,1.84553459 1.27698113,3.25735849 0.969056604,4.7527044 L0.969056604,4.7527044 Z" id="path-27"></path>
        <path d="M5.27899371,0.854339623 C4.83320755,15.2654088 4.48301887,29.8163522 4.48301887,41.7710692 L4.48301887,41.7710692 C4.48301887,50.987673 3.27144654,60.5283019 2.0991195,69.7549686 L2.0991195,69.7549686 C1.10792453,77.561761 0.172075472,84.9348428 0.172075472,90.970566 L0.172075472,90.970566 C0.172075472,101.378616 2.50163522,111.394214 4.7527044,121.079748 L4.7527044,121.079748 C7.0118239,130.796478 9.14616352,139.975849 9.14616352,149.546667 L9.14616352,149.546667 C9.14616352,153.166289 8.90062893,156.566541 8.40553459,159.849057 L8.40553459,159.849057 L8.74062893,159.849057 C9.23069182,156.565535 9.47119497,153.164277 9.47119497,149.546667 L9.47119497,149.546667 C9.47119497,139.887296 7.2281761,130.24 5.05761006,120.908679 L5.05761006,120.908679 C2.81660377,111.263396 0.497106918,101.290063 0.497106918,90.970566 L0.497106918,90.970566 C0.497106918,84.9831447 1.42993711,77.6342138 2.42012579,69.8525786 L2.42012579,69.8525786 C3.59345912,60.6027673 4.80805031,51.0359748 4.80805031,41.7710692 L4.80805031,41.7710692 C4.80805031,29.8183648 5.15823899,15.2664151 5.60503145,0.854339623 L5.60503145,0.854339623 L5.27899371,0.854339623 Z" id="path-29"></path>
        <path d="M13.8807547,0.854339623 C13.4057862,11.763522 12.8362264,22.8830189 12.2113208,33.1522013 L12.2113208,33.1522013 C10.0055346,69.4611321 7.5109434,90.2842767 5.36553459,90.2842767 L5.36553459,90.2842767 C4.61081761,90.2842767 4.28880503,89.227673 4.00704403,88.2948428 L4.00704403,88.2948428 C3.96377358,88.1589937 3.92553459,88.0281761 3.89132075,87.9265409 L3.89132075,87.9265409 C1.20855346,77.1139623 1.26289308,69.5828931 1.31320755,62.9373585 L1.31320755,62.9373585 C1.31924528,62.048805 1.32628931,61.1753459 1.32628931,60.3089308 L1.32628931,60.3089308 C1.32628931,45.1210063 0.981132075,29.7428931 0.649056604,14.8709434 L0.649056604,14.8709434 C0.546415094,10.2410063 0.441761006,5.56176101 0.347169811,0.854339623 L0.347169811,0.854339623 L0.0221383648,0.854339623 C0.11672956,5.56578616 0.220377358,10.2540881 0.324025157,14.8880503 L0.324025157,14.8880503 C0.656100629,29.7559748 1.00025157,45.1300629 1.00025157,60.3089308 L1.00025157,60.3089308 C1.00025157,61.1733333 0.994213836,62.0447799 0.988176101,62.9313208 L0.988176101,62.9313208 C0.937861635,69.6211321 0.881509434,77.2045283 3.59345912,88.128805 L3.59345912,88.128805 C3.63371069,88.250566 3.6709434,88.3783648 3.71119497,88.5101887 L3.71119497,88.5101887 C4.00503145,89.4722013 4.40553459,90.789434 5.36553459,90.789434 L5.36553459,90.789434 C8.39949686,90.789434 10.9403774,59.4727044 12.5353459,33.2005031 L12.5353459,33.2005031 C13.1612579,22.918239 13.7308176,11.7796226 14.2067925,0.854339623 L14.2067925,0.854339623 L13.8807547,0.854339623 Z" id="path-31"></path>
        <path d="M9.16327044,0.854339623 C8.84125786,5.15320755 8.49610063,9.60201258 8.13786164,14.1977358 L8.13786164,14.1977358 C6.76830189,31.7856604 5.21861635,51.7172327 4.52125786,71.9033962 L4.52125786,71.9033962 C3.9909434,79.2955975 3.13660377,84.5514465 2.30943396,89.6342138 L2.30943396,89.6342138 C1.21660377,96.3572327 0.183144654,102.705912 0.183144654,112.875472 L0.183144654,112.875472 C0.183144654,122.251069 1.09484277,131.521006 1.97534591,140.484025 L1.97534591,140.484025 C2.44427673,145.254843 2.92930818,150.187673 3.27044025,155.073208 L3.27044025,155.073208 L3.59345912,155.018868 C3.25232704,150.12327 2.76628931,145.183396 2.29735849,140.406541 L2.29735849,140.406541 C1.41786164,131.463648 0.50918239,122.21283 0.50918239,112.875472 L0.50918239,112.875472 C0.50918239,102.769308 1.53559748,96.448805 2.62339623,89.7559748 L2.62339623,89.7559748 C3.45257862,84.6581132 4.30993711,79.3841509 4.84427673,71.9456604 L4.84427673,71.9456604 C5.54163522,51.7615094 7.09232704,31.8369811 8.4608805,14.2591195 L8.4608805,14.2591195 C8.82113208,9.64226415 9.1672956,5.17333333 9.49031447,0.854339623 L9.49031447,0.854339623 L9.16327044,0.854339623 Z" id="path-33"></path>
        <path d="M6.63044025,0.854339623 C6.64855346,1.34138365 6.66767296,1.82742138 6.68779874,2.31144654 L6.68779874,2.31144654 C7.14968553,14.2249057 7.62666667,26.5438994 7.62666667,38.6274214 L7.62666667,38.6274214 C7.62666667,50.7371069 6.95245283,63.9144654 5.77610063,74.7813836 L5.77610063,74.7813836 C4.60679245,85.568805 3.34591195,90.4825157 2.66968553,90.4825157 L2.66968553,90.4825157 C1.66440252,90.4825157 1.21257862,85.2085535 1.21257862,81.4661635 L1.21257862,81.4661635 C1.21257862,73.3373585 1.17836478,65.074717 1.14415094,57.0837736 L1.14415094,57.0837736 C1.1109434,49.0928302 1.07471698,40.831195 1.07471698,32.7054088 L1.07471698,32.7054088 C1.07471698,22.7189937 1.12503145,11.9919497 1.33031447,0.854339623 L1.33031447,0.854339623 L1.00528302,0.854339623 C0.801006289,11.992956 0.749685535,22.7189937 0.749685535,32.7054088 L0.749685535,32.7054088 C0.749685535,40.8332075 0.78591195,49.0958491 0.819119497,57.0867925 L0.819119497,57.0867925 C0.852327044,65.0767296 0.88754717,73.3393711 0.88754717,81.4661635 L0.88754717,81.4661635 C0.88754717,81.8535849 0.907672956,90.9866667 2.66968553,90.9866667 L2.66968553,90.9866667 C4.87849057,90.9866667 7.95169811,64.6027673 7.95169811,38.6274214 L7.95169811,38.6274214 C7.95169811,26.528805 7.47371069,14.2027673 7.0118239,2.28226415 L7.0118239,2.28226415 C6.9927044,1.8072956 6.97459119,1.33132075 6.95647799,0.854339623 L6.95647799,0.854339623 L6.63044025,0.854339623 Z" id="path-35"></path>
        <path d="M4.61283019,34.1695597 C2.17660377,38.9232704 0.253584906,42.674717 0.253584906,55.0671698 L0.253584906,55.0671698 C0.253584906,60.4850314 0.77081761,65.9481761 1.35849057,71.2955975 L1.35849057,71.2955975 L1.68855346,71.2955975 C1.09786164,65.9421384 0.579622642,60.4749686 0.579622642,55.0671698 L0.579622642,55.0671698 C0.579622642,42.8508176 2.47144654,39.1577358 4.86742138,34.4825157 L4.86742138,34.4825157 C7.52,29.3061635 10.7944654,22.9212579 13.050566,3.08125786 L13.050566,3.08125786 C13.1089308,27.6518239 13.8958491,50.1283019 15.4415094,71.2955975 L15.4415094,71.2955975 L15.7695597,71.2955975 C14.1594969,49.2699371 13.3725786,25.8233962 13.3725786,0.0754716981 L13.3725786,0.0754716981 L13.050566,0.0352201258 C10.803522,22.0930818 7.37006289,28.7889308 4.61283019,34.1695597 L4.61283019,34.1695597 Z" id="path-37"></path>
        <path d="M1.69358491,1.18742138 C2.78138365,5.26289308 3.31069182,9.68955975 3.31069182,14.7230189 L3.31069182,14.7230189 C3.31069182,20.9066667 2.50968553,27.2352201 1.73584906,33.3534591 L1.73584906,33.3534591 C1.30616352,36.7537107 0.863396226,40.2515723 0.568553459,43.68 L0.568553459,43.68 C0.428679245,41.3826415 0.360251572,38.9293082 0.360251572,36.243522 L0.360251572,36.243522 C0.360251572,32.7949686 0.471949686,29.3001258 0.578616352,25.9210063 L0.578616352,25.9210063 C0.687295597,22.514717 0.798993711,18.994717 0.798993711,15.4958491 L0.798993711,15.4958491 C0.798993711,14.0910692 0.781886792,12.7909434 0.746666667,11.5210063 L0.746666667,11.5210063 L0.42163522,11.5431447 C0.456855346,12.8050314 0.473962264,14.0981132 0.473962264,15.4958491 L0.473962264,15.4958491 C0.473962264,18.9826415 0.362264151,22.4966038 0.254591195,25.8948428 L0.254591195,25.8948428 C0.146918239,29.2810063 0.0352201258,32.7818868 0.0352201258,36.243522 L0.0352201258,36.243522 C0.0352201258,39.8128302 0.155974843,42.9725786 0.402515723,45.9049057 L0.402515723,45.9049057 L0.582641509,48.0412579 L0.725534591,45.8998742 C0.999245283,41.8133333 1.53559748,37.5607547 2.05584906,33.4490566 L2.05584906,33.4490566 C2.83169811,27.3066667 3.63471698,20.9559748 3.63471698,14.7230189 L3.63471698,14.7230189 C3.63471698,9.62213836 3.09836478,5.13207547 1.99345912,0.994213836 L1.99345912,0.994213836 L1.69358491,1.18742138 Z" id="path-39"></path>
        <path d="M3.03597484,0.854339623 C3.1245283,3.57836478 3.17987421,5.69761006 3.17987421,7.17081761 L3.17987421,7.17081761 C3.17987421,21.631195 1.54062893,43.7745912 0.846289308,46.5177358 L0.846289308,46.5177358 C0.791949686,46.0991195 0.723522013,45.0586164 0.723522013,42.4915723 L0.723522013,42.4915723 C0.723522013,41.3192453 0.865408805,40.1167296 1.16830189,38.7069182 L1.16830189,38.7069182 L0.860377358,38.5469182 C0.546415094,40.0100629 0.398490566,41.2628931 0.398490566,42.4915723 L0.398490566,42.4915723 C0.398490566,44.0201258 0.422641509,45.1823899 0.469937107,45.9441509 L0.469937107,45.9441509 C0.522264151,46.7833962 0.592704403,47.2412579 0.823144654,47.2412579 L0.823144654,47.2412579 C0.997232704,47.2412579 1.21459119,47.2412579 1.66842767,42.9132075 L1.66842767,42.9132075 C1.93710692,40.3451572 2.23396226,36.7265409 2.50264151,32.723522 L2.50264151,32.723522 C3.12955975,23.398239 3.50389937,13.8465409 3.50389937,7.17081761 L3.50389937,7.17081761 C3.50389937,5.69257862 3.45056604,3.57433962 3.36100629,0.854339623 L3.36100629,0.854339623 L3.03597484,0.854339623 Z" id="path-41"></path>
        <path d="M0.164025157,0.854339623 C1.23974843,7.71622642 2.6072956,13.1501887 4.18716981,19.4264151 L4.18716981,19.4264151 C8.55949686,36.7899371 14.5489308,60.5725786 20.9750943,136.931824 L20.9750943,136.931824 C21.5879245,144.923774 21.7298113,152.87044 21.7549686,159.849057 L21.7549686,159.849057 L22.08,159.849057 C22.0558491,152.856352 21.9139623,144.888553 21.2981132,136.87044 L21.2981132,136.87044 C14.8659119,60.4457862 8.86842767,36.6309434 4.49006289,19.2422642 L4.49006289,19.2422642 C2.88805031,12.8825157 1.53358491,7.50188679 0.475974843,0.854339623 L0.475974843,0.854339623 L0.164025157,0.854339623 Z" id="path-43"></path>
        <path d="M2.22289308,1.4490566 C2.22289308,6.53786164 1.75295597,11.6236478 1.2991195,16.5403774 L1.2991195,16.5403774 C0.846289308,21.4349686 0.37836478,26.4955975 0.37836478,31.5361006 L0.37836478,31.5361006 C0.37836478,37.996478 1.91698113,50.552956 3.69710692,65.0908176 L3.69710692,65.0908176 C4.65006289,72.8583648 5.66641509,81.1833962 6.55194969,89.408805 L6.55194969,89.408805 L6.88100629,89.408805 C5.99446541,81.151195 4.97207547,72.7939623 4.01710692,64.998239 L4.01710692,64.998239 C2.24,50.4845283 0.703396226,37.9501887 0.703396226,31.5361006 L0.703396226,31.5361006 C0.703396226,26.5318239 1.16930818,21.4883019 1.62012579,16.6128302 L1.62012579,16.6128302 C2.03572327,12.1116981 2.46540881,7.47069182 2.53886792,2.80150943 L2.53886792,2.80150943 C6.81761006,20.6490566 9.13308176,33.8555975 9.13308176,51.3428931 L9.13308176,51.3428931 C9.13308176,53.4037736 9.11295597,55.5089308 9.09283019,57.5446541 L9.09283019,57.5446541 C9.07169811,59.6286792 9.05157233,61.7821384 9.05157233,63.9426415 L9.05157233,63.9426415 C9.05157233,68.052327 9.12503145,72.2757233 9.19647799,76.3602516 L9.19647799,76.3602516 C9.26792453,80.4910692 9.34238994,84.7637736 9.34238994,88.9680503 L9.34238994,88.9680503 C9.34238994,89.1159748 9.34238994,89.2628931 9.34238994,89.408805 L9.34238994,89.408805 L9.66742138,89.408805 C9.66742138,89.2628931 9.66742138,89.1169811 9.66742138,88.9680503 L9.66742138,88.9680503 C9.66742138,84.7567296 9.59295597,80.4810063 9.52150943,76.3471698 L9.52150943,76.3471698 C9.45006289,72.2666667 9.37761006,68.045283 9.37761006,63.9426415 L9.37761006,63.9426415 C9.37761006,61.7871698 9.39874214,59.634717 9.41786164,57.5506918 L9.41786164,57.5506918 C9.43798742,55.5149686 9.4591195,53.408805 9.4591195,51.3428931 L9.4591195,51.3428931 C9.4591195,33.3685535 7.02591195,19.9104403 2.53886792,1.36150943 L2.53886792,1.36150943 L2.22289308,0.0583647799 L2.22289308,1.4490566 Z" id="path-45"></path>
        <path d="M0.856352201,0.854339623 C1.26389937,4.54742138 1.31320755,8.32503145 1.31320755,12.1740881 L1.31320755,12.1740881 L1.31018868,14.3738365 C1.31018868,26.6787421 2.47044025,30.4231447 3.40125786,33.4299371 L3.40125786,33.4299371 C4.07647799,35.6125786 4.6591195,37.4953459 4.6591195,42.0699371 L4.6591195,42.0699371 C4.6591195,45.7821384 4.19119497,49.5768553 3.69610063,53.5949686 L3.69610063,53.5949686 C3.19798742,57.6301887 2.68377358,61.805283 2.68477987,65.9079245 L2.68477987,65.9079245 C2.68477987,70.0548428 3.0591195,74.1122013 3.45559748,78.4080503 L3.45559748,78.4080503 L3.50993711,78.9937107 C5.04955975,90.9212579 5.56578616,102.156478 6.06389937,113.020377 L6.06389937,113.020377 C6.79044025,128.841258 7.48176101,143.802767 11.1325786,159.849057 L11.1325786,159.849057 L11.4767296,159.849057 C7.80578616,143.802767 7.11647799,128.825157 6.38893082,112.984151 L6.38893082,112.984151 C5.88880503,102.105157 5.37157233,90.8538365 3.82893082,78.9101887 L3.82893082,78.9101887 L3.77660377,78.3366038 C3.38314465,74.0588679 3.00880503,70.0186164 3.00880503,65.9079245 L3.00880503,65.9079245 C3.00880503,61.8525786 3.52100629,57.7016352 4.01509434,53.6895597 L4.01509434,53.6895597 C4.51421384,49.6472956 4.98415094,45.8304403 4.98415094,42.0699371 L4.98415094,42.0699371 C4.98415094,37.3806289 4.38742138,35.4495597 3.69509434,33.2135849 L3.69509434,33.2135849 C2.7763522,30.2510692 1.6372327,26.5640252 1.6372327,14.3738365 L1.6372327,14.3738365 L1.63823899,12.1740881 C1.63823899,8.33106918 1.58993711,4.5554717 1.18641509,0.854339623 L1.18641509,0.854339623 L0.856352201,0.854339623 Z" id="path-47"></path>
        <path d="M0.59672956,0.854339623 C2.2681761,41.8737107 7.94666667,59.9788679 11.565283,71.5079245 L11.565283,71.5079245 C12.4528302,74.3345912 13.2196226,76.7768553 13.752956,79.0228931 L13.752956,79.0228931 C16.0150943,89.6895597 17.6483019,100.544403 18.8759748,111.473711 L18.8759748,111.473711 L18.8759748,108.647044 C17.6855346,98.6203774 16.1388679,88.6611321 14.0598742,78.8578616 L14.0598742,78.8578616 C13.5184906,76.5786164 12.7486792,74.1262893 11.8581132,71.2865409 L11.8581132,71.2865409 C8.25157233,59.794717 2.59119497,41.7539623 0.923773585,0.854339623 L0.923773585,0.854339623 L0.59672956,0.854339623 Z" id="path-49"></path>
        <path d="M1.15622642,0.227421384 C1.11396226,0.229433962 1.0727044,0.244528302 1.03144654,0.267672956 L1.03144654,0.267672956 C-0.380377358,1.09081761 0.929811321,19.4797484 2.2772327,34.7622642 L2.2772327,34.7622642 C3.07119497,43.7514465 4.0281761,53.2850314 4.91169811,61.227673 L4.91169811,61.227673 C5.02138365,61.2226415 5.13006289,61.2125786 5.23672956,61.1984906 L5.23672956,61.1984906 C4.35320755,53.2548428 3.39421384,43.7011321 2.60025157,34.6938365 L2.60025157,34.6938365 C0.448805031,10.2893082 0.438742138,1.15320755 1.14716981,0.739622642 L1.14716981,0.739622642 C1.17433962,0.724528302 1.43698113,0.643018868 2.06188679,2.57408805 L2.06188679,2.57408805 C3.68704403,11.1335849 4.92578616,19.9698113 6.12528302,28.5122013 L6.12528302,28.5122013 C6.96150943,34.4734591 7.81987421,40.5766038 8.81308176,46.6324528 L8.81308176,46.6324528 L8.81308176,44.5655346 C7.9527044,39.1567296 7.18792453,33.7237736 6.44125786,28.4045283 L6.44125786,28.4045283 C5.2427673,19.8530818 4.00100629,11.0077987 2.36377358,2.3909434 L2.36377358,2.3909434 C1.89584906,0.939874214 1.52754717,0.251572327 1.19245283,0.227421384 L1.19245283,0.227421384 L1.15622642,0.227421384 Z" id="path-51"></path>
        <path d="M0.786918239,0.854339623 C1.34138365,43.9778616 6.81660377,64.6410063 12.594717,86.452327 L12.594717,86.452327 C12.6762264,86.758239 12.7567296,87.0651572 12.838239,87.3720755 L12.838239,87.3720755 L12.838239,86.0427673 C7.09333333,64.358239 1.66540881,43.7343396 1.11194969,0.854339623 L1.11194969,0.854339623 L0.786918239,0.854339623 Z" id="path-53"></path>
        <path d="M19.0379874,0.237484277 C8.9227673,0.237484277 0.724528302,7.54616352 0.724528302,16.563522 L0.724528302,16.563522 L0.724528302,26.0125786 L79.2140881,26.0125786 L79.2140881,16.563522 C79.2140881,7.54616352 71.0138365,0.237484277 60.8996226,0.237484277 L60.8996226,0.237484277 L19.0379874,0.237484277 Z" id="path-55"></path>
        <path d="M9.08477987,27.7605031 L9.08477987,30.3657862 C9.02540881,30.3647799 8.96704403,30.3567296 8.90767296,30.3567296 L8.90767296,30.3567296 C4.21232704,30.3567296 0.40754717,34.1232704 0.40754717,38.7713208 L0.40754717,38.7713208 C0.40754717,43.4173585 4.21232704,47.1849057 8.90767296,47.1849057 L8.90767296,47.1849057 C9.21660377,47.1849057 9.52050314,47.1657862 9.81937107,47.1345912 L9.81937107,47.1345912 C12.6953459,59.3348428 23.7464151,68.4256604 36.9509434,68.4256604 L36.9509434,68.4256604 C50.1544654,68.4256604 61.2055346,59.3348428 64.0805031,47.1345912 L64.0805031,47.1345912 C64.3793711,47.1657862 64.6842767,47.1849057 64.9922013,47.1849057 L64.9922013,47.1849057 C69.6875472,47.1849057 73.4943396,43.4173585 73.4943396,38.7713208 L73.4943396,38.7713208 C73.4943396,34.125283 69.6875472,30.3567296 64.9922013,30.3567296 L64.9922013,30.3567296 C64.9328302,30.3567296 64.8744654,30.3647799 64.8161006,30.3657862 L64.8161006,30.3657862 L64.8161006,27.7605031 C64.8161006,12.5293082 52.3401258,0.182138365 36.9509434,0.182138365 L36.9509434,0.182138365 C21.5597484,0.182138365 9.08477987,12.5293082 9.08477987,27.7605031 L9.08477987,27.7605031 Z" id="path-57"></path>
        <path d="M15.8651572,3.93962264 C15.7534591,3.94767296 15.6407547,3.95672956 15.5280503,3.96578616 L15.5280503,3.96578616 C15.352956,3.97584906 15.1778616,3.98490566 15.0027673,3.99295597 L15.0027673,3.99295597 C14.6042767,4.01106918 14.2067925,4.02314465 13.8062893,4.02314465 L13.8062893,4.02314465 C13.4037736,4.02314465 13.005283,4.01106918 12.608805,3.99295597 L12.608805,3.99295597 C12.4327044,3.98490566 12.2576101,3.97584906 12.083522,3.96578616 L12.083522,3.96578616 C11.9698113,3.95773585 11.8591195,3.94767296 11.7464151,3.93962264 L11.7464151,3.93962264 C7.64176101,3.6427673 3.78566038,2.47245283 0.368301887,0.605786164 L0.368301887,0.605786164 L0.368301887,3.80679245 C0.368301887,11.252327 6.19069182,17.287044 13.3735849,17.287044 L13.3735849,17.287044 L14.2379874,17.287044 C21.4208805,17.287044 27.2432704,11.252327 27.2432704,3.80679245 L27.2432704,3.80679245 L27.2432704,0.605786164 C23.8249057,2.47245283 19.9677987,3.64176101 15.8651572,3.93962264 L15.8651572,3.93962264 Z" id="path-59"></path>
        <path d="M14.0910692,0.896603774 C8.29886792,1.99849057 3.57333333,6.1836478 1.78012579,11.8007547 L1.78012579,11.8007547 L1.68754717,12.0945912 C0.590691824,15.5290566 0.681257862,19.231195 1.94213836,22.6072956 L1.94213836,22.6072956 L6.13333333,33.8314465 C7.49584906,32.9096855 9.14415094,32.3693082 10.9192453,32.3693082 L10.9192453,32.3693082 L17.4198742,33.8767296 L20.7718239,30.4744654 L20.7718239,30.4734591 C23.3257862,28.0654088 26.6757233,23.7162264 29.4138365,16.0875472 L29.4138365,16.0875472 C26.2591195,11.992956 23.9376101,7.2281761 22.6727044,2.05685535 L22.6727044,2.05685535 C22.6334591,1.89786164 22.6072956,1.73786164 22.5901887,1.57786164 L22.5901887,1.57786164 L22.2822642,1.47320755 C20.6047799,0.90163522 18.8528302,0.612830189 17.0948428,0.612830189 L17.0948428,0.612830189 C16.0915723,0.613836478 15.085283,0.707421384 14.0910692,0.896603774 L14.0910692,0.896603774 Z" id="path-61"></path>
        <path d="M1.5627673,7.54716981 C0.638993711,8.43572327 0.210314465,9.7881761 0.534339623,11.1144654 L0.534339623,11.1144654 C3.11144654,21.6462893 10.0528302,30.514717 19.5532075,35.4093082 L19.5532075,35.4093082 L19.5672956,35.4153459 C21.6181132,36.472956 23.7594969,37.3343396 25.9642767,37.9924528 L25.9642767,37.9924528 C26.5137107,38.1574843 26.9554717,37.5215094 26.6233962,37.0485535 L26.6233962,37.0485535 L22.0085535,30.4613836 C21.607044,29.8877987 22.3134591,29.1874214 22.8618868,29.6171069 L22.8618868,29.6171069 C27.9647799,33.6130818 37.8807547,40.2324528 47.909434,40.5655346 L47.909434,40.5655346 L49.5426415,36.0925786 C51.4203774,30.9524528 51.5280503,25.3132075 49.8485535,20.1016352 L49.8485535,20.1016352 C47.6618868,13.3172327 42.667673,7.92654088 36.2827673,5.26993711 L36.2827673,5.26993711 L36.2827673,5.26490566 C29.7066667,2.02867925 24.0040252,0.884528302 19.2271698,0.884528302 L19.2271698,0.884528302 C7.69811321,0.883522013 1.5627673,7.54716981 1.5627673,7.54716981 L1.5627673,7.54716981 Z" id="path-63"></path>
        <path d="M0.846289308,1.68251572 L0.846289308,5.33937107 C0.846289308,7.09836478 2.28025157,8.53031447 4.04226415,8.53031447 L4.04226415,8.53031447 C5.80528302,8.53031447 7.23823899,7.09836478 7.23823899,5.33937107 L7.23823899,5.33937107 L7.23823899,0.37836478 L0.846289308,1.68251572 Z" id="path-65"></path>
        <path d="M12.3662893,0.0734591195 L1.41484277,2.30842767 C0.94591195,2.40301887 0.646037736,2.85886792 0.740628931,3.32578616 L0.740628931,3.32578616 C0.823144654,3.73433962 1.18339623,4.01610063 1.58490566,4.01610063 L1.58490566,4.01610063 C1.64226415,4.01610063 1.69962264,4.01106918 1.75798742,3.99899371 L1.75798742,3.99899371 L12.709434,1.76402516 C13.1763522,1.66943396 13.478239,1.21358491 13.3826415,0.746666667 L13.3826415,0.746666667 C13.2991195,0.338113208 12.9418868,0.0563522013 12.5383648,0.0563522013 L12.5383648,0.0563522013 C12.4820126,0.0563522013 12.4236478,0.0623899371 12.3662893,0.0734591195 L12.3662893,0.0734591195 Z" id="path-67"></path>
        <path d="M0.508176101,7.42138365 C0.508176101,11.3730818 4.20930818,14.5750943 8.77484277,14.5750943 L8.77484277,14.5750943 C13.3393711,14.5750943 17.0405031,11.3730818 17.0405031,7.42138365 L17.0405031,7.42138365 C17.0405031,3.46968553 13.3393711,0.266666667 8.77484277,0.266666667 L8.77484277,0.266666667 C4.20930818,0.266666667 0.508176101,3.46968553 0.508176101,7.42138365 L0.508176101,7.42138365 Z" id="path-69"></path>
        <path d="M5.15320755,0.0241509434 C4.97207547,0.570566038 4.64503145,1.08981132 4.18616352,1.5436478 L4.18616352,1.5436478 C3.57132075,2.15245283 2.75421384,2.61132075 1.83446541,2.88503145 L1.83446541,2.88503145 C1.51748428,2.98062893 1.19144654,3.04301887 0.862389937,3.08125786 L0.862389937,3.08125786 C1.20855346,3.51396226 1.73383648,3.79672956 2.33157233,3.79672956 L2.33157233,3.79672956 L5.56578616,3.79672956 C6.60628931,3.79672956 7.45157322,2.95144654 7.45157322,1.9109434 L7.45157322,1.9109434 C7.45257862,0.869433962 6.6072956,0.0241509434 5.56578616,0.0241509434 L5.56578616,0.0241509434 L5.15320755,0.0241509434 Z" id="path-71"></path>
        <path d="M11.4988679,1.03044025 C11.4988679,1.71471698 11.1959748,2.37685535 10.6233962,2.94339623 L10.6233962,2.94339623 C10.118239,3.44352201 9.42993711,3.83295597 8.63194969,4.07245283 L8.63194969,4.07245283 C8.15194969,4.21534591 7.60855346,4.28578616 6.97056604,4.28578616 L6.97056604,4.28578616 C6.33157233,4.28578616 5.7881761,4.21534591 5.3081761,4.07245283 L5.3081761,4.07245283 C4.51018868,3.83295597 3.82188679,3.44352201 3.31672956,2.94440252 L3.31672956,2.94440252 C2.74515723,2.37685535 2.44226415,1.71572327 2.44226415,1.03044025 L2.44226415,1.03044025 C2.44226415,0.554465409 2.05584906,0.168050314 1.57886792,0.168050314 L1.57886792,0.168050314 C1.10389937,0.168050314 0.717484277,0.554465409 0.717484277,1.03044025 L0.717484277,1.03044025 C0.717484277,2.16855346 1.20955975,3.2845283 2.10314465,4.1690566 L2.10314465,4.1690566 C2.80855346,4.86742138 3.74540881,5.40477987 4.81408805,5.72477987 L4.81408805,5.72477987 C5.45710692,5.91698113 6.16251572,6.01056604 6.97056604,6.01056604 L6.97056604,6.01056604 C7.77861635,6.01056604 8.48402516,5.91698113 9.12603774,5.72477987 L9.12603774,5.72477987 C10.1937107,5.40477987 11.1315723,4.86742138 11.8369811,4.1690566 L11.8369811,4.1690566 C12.730566,3.2845283 13.2236478,2.16855346 13.2236478,1.03044025 L13.2236478,1.03044025 C13.2236478,0.553459119 12.8362264,0.167044025 12.3602516,0.167044025 L12.3602516,0.167044025 C11.8842767,0.167044025 11.4988679,0.553459119 11.4988679,1.03044025 L11.4988679,1.03044025 Z" id="path-73"></path>
        <path d="M0.867421384,8.42767296 C0.867421384,12.7295597 4.86440252,16.229434 9.78113208,16.229434 L9.78113208,16.229434 C14.6938365,16.229434 18.6938365,12.7295597 18.6938365,8.42767296 L18.6938365,8.42767296 C18.6938365,4.12578616 14.6938365,0.62591195 9.78113208,0.62591195 L9.78113208,0.62591195 C4.86641509,0.62591195 0.867421384,4.12578616 0.867421384,8.42767296 L0.867421384,8.42767296 Z M2.16150943,8.42767296 C2.16150943,4.83823899 5.57987421,1.91899371 9.78113208,1.91899371 L9.78113208,1.91899371 C13.9813836,1.91899371 17.3997484,4.83823899 17.3997484,8.42767296 L17.3997484,8.42767296 C17.3997484,12.0161006 13.9813836,14.9343396 9.78113208,14.9343396 L9.78113208,14.9343396 C5.57987421,14.9343396 2.16150943,12.0161006 2.16150943,8.42767296 L2.16150943,8.42767296 Z" id="path-75"></path>
        <path d="M0.341132075,15.3116981 C0.341132075,21.965283 5.36251572,27.6065409 12.32,29.5909434 L12.32,29.5909434 L12.0915723,34.3496855 C12.0633962,34.9242767 12.7023899,35.2865409 13.1813836,34.9675472 L13.1813836,34.9675472 L20.3602516,30.1967296 C28.8100629,29.1371069 35.3006289,22.8779874 35.3006289,15.3116981 L35.3006289,15.3116981 C35.3006289,7.00176101 27.4737107,0.265660377 17.8203774,0.265660377 L17.8203774,0.265660377 C8.16704403,0.265660377 0.341132075,7.0027673 0.341132075,15.3116981 L0.341132075,15.3116981 Z" id="path-77"></path>
        <path d="M2.33559748,0.438742138 C1.85358491,0.438742138 1.47522013,0.562515723 1.20955975,0.805031447 L1.20955975,0.805031447 C0.937861635,1.05358491 0.793962264,1.39169811 0.793962264,1.78314465 L0.793962264,1.78314465 C0.793962264,2.16855346 0.939874214,2.49761006 1.21559748,2.7391195 L1.21559748,2.7391195 C1.48125786,2.96855346 1.85761006,3.08528302 2.33559748,3.08528302 L2.33559748,3.08528302 L7.09333333,3.08528302 L1.1481761,10.1997484 C1.0445283,10.3194969 0.923773585,10.4633962 0.78591195,10.6264151 L0.78591195,10.6264151 C0.641006289,10.7974843 0.530314465,10.9383648 0.448805031,11.0500629 L0.448805031,11.0500629 C0.351194969,11.1818868 0.274716981,11.3247799 0.21836478,11.4727044 L0.21836478,11.4727044 C0.155974843,11.6337107 0.124779874,11.8108176 0.124779874,11.9989937 L0.124779874,11.9989937 C0.124779874,12.5232704 0.306918239,12.9519497 0.66918239,13.272956 L0.66918239,13.272956 C1.0163522,13.5818868 1.51949686,13.7378616 2.16352201,13.7378616 L2.16352201,13.7378616 L10.323522,13.7378616 C10.810566,13.7378616 11.1909434,13.6161006 11.4535849,13.3766038 L11.4535849,13.3766038 C11.7262893,13.1280503 11.8651572,12.7949686 11.8651572,12.3844025 L11.8651572,12.3844025 C11.8651572,11.9869182 11.718239,11.6538365 11.4425157,11.4223899 L11.4425157,11.4223899 C11.1818868,11.2030189 10.8045283,11.0913208 10.323522,11.0913208 L10.323522,11.0913208 L4.46289308,11.0913208 L9.98540881,4.51622642 C10.4704403,3.94968553 10.7874214,3.54616352 10.9524528,3.28251572 L10.9524528,3.28251572 C11.1426415,2.97861635 11.2402516,2.58012579 11.2402516,2.10113208 L11.2402516,2.10113208 C11.2402516,1.02842767 10.6163522,0.438742138 9.48327044,0.438742138 L9.48327044,0.438742138 L2.33559748,0.438742138 Z" id="path-79"></path>
        <path d="M2.37383648,0.628930818 C1.99849057,0.628930818 1.70264151,0.72754717 1.49031447,0.921761006 L1.49031447,0.921761006 C1.27194969,1.12 1.1572327,1.39069182 1.1572327,1.70264151 L1.1572327,1.70264151 C1.1572327,2.01157233 1.27597484,2.27622642 1.49735849,2.46943396 L1.49735849,2.46943396 C1.70767296,2.65157233 2.00352201,2.74415094 2.37383648,2.74415094 L2.37383648,2.74415094 L5.58792453,2.74415094 L1.43798742,7.71018868 L1.1763522,8.0191195 C1.07169811,8.14490566 0.98918239,8.24855346 0.928805031,8.3290566 L0.928805031,8.3290566 C0.854339623,8.43169811 0.792955975,8.54238994 0.748679245,8.6591195 L0.748679245,8.6591195 C0.699371069,8.78792453 0.675220126,8.92779874 0.675220126,9.07471698 L0.675220126,9.07471698 C0.675220126,9.47924528 0.822138365,9.82339623 1.10188679,10.0709434 L1.10188679,10.0709434 C1.37157233,10.3114465 1.75899371,10.4332075 2.2490566,10.4332075 L2.2490566,10.4332075 L8.13886792,10.4332075 C8.51522013,10.4332075 8.81408805,10.3376101 9.02339623,10.1454088 L9.02339623,10.1454088 C9.23974843,9.94918239 9.35446541,9.67446541 9.35446541,9.35446541 L9.35446541,9.35446541 C9.35345912,9.0354717 9.23572327,8.76880503 9.01132075,8.58163522 L9.01132075,8.58163522 C8.80301887,8.40754717 8.50918239,8.31899371 8.13786164,8.31899371 L8.13786164,8.31899371 L4.12880503,8.31899371 L7.9718239,3.74238994 C8.32503145,3.32981132 8.55647799,3.03295597 8.67924528,2.83974843 L8.67924528,2.83974843 C8.82616352,2.60226415 8.90264151,2.29836478 8.90264151,1.93207547 L8.90264151,1.93207547 C8.90264151,1.10389937 8.40251572,0.628930818 7.53207547,0.628930818 L7.53207547,0.628930818 L2.37383648,0.628930818 Z" id="path-81"></path>
        <path d="M0.485031447,16.3179874 C0.485031447,23.001761 5.25685535,28.9207547 12.4327044,31.2291824 L12.4327044,31.2291824 L12.2354717,35.3137107 C12.2072956,35.9064151 12.5101887,36.4558491 13.0274214,36.7506918 L13.0274214,36.7506918 C13.2689308,36.8865409 13.5355975,36.9549686 13.8002516,36.9549686 L13.8002516,36.9549686 C14.1021384,36.9549686 14.4030189,36.8674214 14.6666667,36.692327 L14.6666667,36.692327 L21.6754717,32.0322013 C30.5237736,30.8357233 37.1693082,24.1106918 37.1693082,16.3179874 L37.1693082,16.3179874 C37.1693082,7.54716981 28.9408805,0.409559748 18.8266667,0.409559748 L18.8266667,0.409559748 C8.71245283,0.409559748 0.485031447,7.54716981 0.485031447,16.3179874 L0.485031447,16.3179874 Z M14.187673,30.6405031 C14.2067925,30.2389937 13.9481761,29.8787421 13.5627673,29.7680503 L13.5627673,29.7680503 C6.77132075,27.8319497 2.20880503,22.4261635 2.20880503,16.3179874 L2.20880503,16.3179874 C2.20880503,8.49710692 9.66440252,2.13534591 18.8266667,2.13534591 L18.8266667,2.13534591 C27.9899371,2.13534591 35.443522,8.49710692 35.443522,16.3179874 L35.443522,16.3179874 C35.443522,23.3036478 29.3454088,29.3343396 21.2578616,30.3466667 L21.2578616,30.3466667 C21.1260377,30.3637736 20.9992453,30.4110692 20.8875472,30.4845283 L20.8875472,30.4845283 L13.9743396,35.0802516 L14.187673,30.6405031 Z" id="path-83"></path>
    </defs>
    <g id="Page-1" stroke="none" stroke-width="1" fill="none" fill-rule="evenodd">
        <g id="Learn-/-Ideal-state-" transform="translate(-641.000000, -1472.000000)">
            <g id="tiredness" transform="translate(641.000000, 1472.000000)">
                <g id="Group-3">
                    <mask id="mask-2" fill="white">
                        <use xlink:href="#path-1"></use>
                    </mask>
                    <g id="Clip-2"></g>
                    <polygon id="Fill-1" fill="#0071BC" mask="url(#mask-2)" points="-4.4991195 165.395723 165.395723 165.395723 165.395723 -5.03144654 -4.4991195 -5.03144654"></polygon>
                </g>
                <g id="Group-6">
                    <mask id="mask-4" fill="white">
                        <use xlink:href="#path-3"></use>
                    </mask>
                    <g id="Clip-5"></g>
                    <polygon id="Fill-4" fill="#00507C" mask="url(#mask-4)" points="-4.4991195 76.1720755 165.395723 76.1720755 165.395723 -5.03144654 -4.4991195 -5.03144654"></polygon>
                </g>
                <g id="Group-9" transform="translate(0.000000, 48.301887)">
                    <mask id="mask-6" fill="white">
                        <use xlink:href="#path-5"></use>
                    </mask>
                    <g id="Clip-8"></g>
                    <polygon id="Fill-7" fill="#0C84C5" mask="url(#mask-6)" points="-4.4991195 85.7006289 16.396478 85.7006289 16.396478 -5.72477987 -4.4991195 -5.72477987"></polygon>
                </g>
                <g id="Group-12" transform="translate(0.000000, 82.515723)">
                    <mask id="mask-8" fill="white">
                        <use xlink:href="#path-7"></use>
                    </mask>
                    <g id="Clip-11"></g>
                    <polygon id="Fill-10" fill="#0C84C5" mask="url(#mask-8)" points="-4.4991195 15.6075472 6.06289308 15.6075472 6.06289308 -6.72201258 -4.4991195 -6.72201258"></polygon>
                </g>
                <g id="Group-15">
                    <mask id="mask-10" fill="white">
                        <use xlink:href="#path-9"></use>
                    </mask>
                    <g id="Clip-14"></g>
                    <polygon id="Fill-13" fill="#0C84C5" mask="url(#mask-10)" points="-4.4991195 62.5720755 33.0254088 62.5720755 33.0254088 -5.03144654 -4.4991195 -5.03144654"></polygon>
                </g>
                <g id="Group-18" transform="translate(6.037736, 0.000000)">
                    <mask id="mask-12" fill="white">
                        <use xlink:href="#path-11"></use>
                    </mask>
                    <g id="Clip-17"></g>
                    <polygon id="Fill-16" fill="#0C84C5" mask="url(#mask-12)" points="-4.38138365 165.395723 36.0402516 165.395723 36.0402516 -5.03144654 -4.38138365 -5.03144654"></polygon>
                </g>
                <g id="Group-21" transform="translate(23.144654, 23.144654)">
                    <mask id="mask-14" fill="white">
                        <use xlink:href="#path-13"></use>
                    </mask>
                    <g id="Clip-20"></g>
                    <polygon id="Fill-19" fill="#0C84C5" mask="url(#mask-14)" points="-4.82515723 142.251069 20.7124528 142.251069 20.7124528 -4.77987421 -4.82515723 -4.77987421"></polygon>
                </g>
                <g id="Group-24" transform="translate(35.220126, 0.000000)">
                    <mask id="mask-16" fill="white">
                        <use xlink:href="#path-15"></use>
                    </mask>
                    <g id="Clip-23"></g>
                    <polygon id="Fill-22" fill="#0C84C5" mask="url(#mask-16)" points="-4.70440252 165.395723 26.4895597 165.395723 26.4895597 -5.03144654 -4.70440252 -5.03144654"></polygon>
                </g>
                <g id="Group-27" transform="translate(42.264151, 0.000000)">
                    <mask id="mask-18" fill="white">
                        <use xlink:href="#path-17"></use>
                    </mask>
                    <g id="Clip-26"></g>
                    <polygon id="Fill-25" fill="#0C84C5" mask="url(#mask-18)" points="-4.51622642 41.0244025 13.2015094 41.0244025 13.2015094 -5.03144654 -4.51622642 -5.03144654"></polygon>
                </g>
                <g id="Group-30" transform="translate(7.044025, 0.000000)">
                    <mask id="mask-20" fill="white">
                        <use xlink:href="#path-19"></use>
                    </mask>
                    <g id="Clip-29"></g>
                    <polygon id="Fill-28" fill="#0C84C5" mask="url(#mask-20)" points="-4.48100629 36.4920755 19.4656604 36.4920755 19.4656604 -5.03144654 -4.48100629 -5.03144654"></polygon>
                </g>
                <g id="Group-33" transform="translate(61.383648, 0.000000)">
                    <mask id="mask-22" fill="white">
                        <use xlink:href="#path-21"></use>
                    </mask>
                    <g id="Clip-32"></g>
                    <polygon id="Fill-31" fill="#0C84C5" mask="url(#mask-22)" points="-4.1881761 165.395723 20.3471698 165.395723 20.3471698 -5.03144654 -4.1881761 -5.03144654"></polygon>
                </g>
                <g id="Group-36" transform="translate(67.421384, 0.000000)">
                    <mask id="mask-24" fill="white">
                        <use xlink:href="#path-23"></use>
                    </mask>
                    <g id="Clip-35"></g>
                    <polygon id="Fill-34" fill="#0C84C5" mask="url(#mask-24)" points="-4.46188679 79.2805031 19.6548428 79.2805031 19.6548428 -5.03144654 -4.46188679 -5.03144654"></polygon>
                </g>
                <g id="Group-39" transform="translate(44.276730, 50.314465)">
                    <mask id="mask-26" fill="white">
                        <use xlink:href="#path-25"></use>
                    </mask>
                    <g id="Clip-38"></g>
                    <polygon id="Fill-37" fill="#0C84C5" mask="url(#mask-26)" points="-4.58465409 115.081258 28.4226415 115.081258 28.4226415 -4.4427673 -4.58465409 -4.4427673"></polygon>
                </g>
                <g id="Group-42" transform="translate(56.352201, 79.496855)">
                    <mask id="mask-28" fill="white">
                        <use xlink:href="#path-27"></use>
                    </mask>
                    <g id="Clip-41"></g>
                    <polygon id="Fill-40" fill="#0C84C5" mask="url(#mask-28)" points="-4.96100629 85.8988679 7.66591195 85.8988679 7.66591195 -4.61081761 -4.96100629 -4.61081761"></polygon>
                </g>
                <g id="Group-45" transform="translate(82.515723, 0.000000)">
                    <mask id="mask-30" fill="white">
                        <use xlink:href="#path-29"></use>
                    </mask>
                    <g id="Clip-44"></g>
                    <polygon id="Fill-43" fill="#0C84C5" mask="url(#mask-30)" points="-4.85937107 165.39673 14.5026415 165.39673 14.5026415 -5.03144654 -4.85937107 -5.03144654"></polygon>
                </g>
                <g id="Group-48" transform="translate(90.566038, 0.000000)">
                    <mask id="mask-32" fill="white">
                        <use xlink:href="#path-31"></use>
                    </mask>
                    <g id="Clip-47"></g>
                    <polygon id="Fill-46" fill="#0C84C5" mask="url(#mask-32)" points="-5.02641509 95.8208805 19.2754717 95.8208805 19.2754717 -5.03144654 -5.02641509 -5.03144654"></polygon>
                </g>
                <g id="Group-51" transform="translate(100.628931, 0.000000)">
                    <mask id="mask-34" fill="white">
                        <use xlink:href="#path-33"></use>
                    </mask>
                    <g id="Clip-50"></g>
                    <polygon id="Fill-49" fill="#0C84C5" mask="url(#mask-34)" points="-4.8472956 160.104654 14.5861635 160.104654 14.5861635 -5.03144654 -4.8472956 -5.03144654"></polygon>
                </g>
                <g id="Group-54" transform="translate(114.716981, 0.000000)">
                    <mask id="mask-36" fill="white">
                        <use xlink:href="#path-35"></use>
                    </mask>
                    <g id="Clip-53"></g>
                    <polygon id="Fill-52" fill="#0C84C5" mask="url(#mask-36)" points="-4.28176101 96.0181132 12.9831447 96.0181132 12.9831447 -5.03144654 -4.28176101 -5.03144654"></polygon>
                </g>
                <g id="Group-57" transform="translate(111.698113, 88.553459)">
                    <mask id="mask-38" fill="white">
                        <use xlink:href="#path-37"></use>
                    </mask>
                    <g id="Clip-56"></g>
                    <polygon id="Fill-55" fill="#0C84C5" mask="url(#mask-38)" points="-4.77786164 76.8422642 20.8392453 76.8422642 20.8392453 -4.99622642 -4.77786164 -4.99622642"></polygon>
                </g>
                <g id="Group-60" transform="translate(108.679245, 72.452830)">
                    <mask id="mask-40" fill="white">
                        <use xlink:href="#path-39"></use>
                    </mask>
                    <g id="Clip-59"></g>
                    <polygon id="Fill-58" fill="#0C84C5" mask="url(#mask-40)" points="-4.99622642 53.0727044 8.66616352 53.0727044 8.66616352 -4.0372327 -4.99622642 -4.0372327"></polygon>
                </g>
                <g id="Group-63" transform="translate(94.591195, 0.000000)">
                    <mask id="mask-42" fill="white">
                        <use xlink:href="#path-41"></use>
                    </mask>
                    <g id="Clip-62"></g>
                    <polygon id="Fill-61" fill="#0C84C5" mask="url(#mask-42)" points="-4.63295597 52.2716981 8.53534591 52.2716981 8.53534591 -5.03144654 -4.63295597 -5.03144654"></polygon>
                </g>
                <g id="Group-66" transform="translate(127.798742, 0.000000)">
                    <mask id="mask-44" fill="white">
                        <use xlink:href="#path-43"></use>
                    </mask>
                    <g id="Clip-65"></g>
                    <polygon id="Fill-64" fill="#0C84C5" mask="url(#mask-44)" points="-4.99924528 165.395723 27.1124528 165.395723 27.1124528 -5.03144654 -4.99924528 -5.03144654"></polygon>
                </g>
                <g id="Group-69" transform="translate(134.842767, 70.440252)">
                    <mask id="mask-46" fill="white">
                        <use xlink:href="#path-45"></use>
                    </mask>
                    <g id="Clip-68"></g>
                    <polygon id="Fill-67" fill="#0C84C5" mask="url(#mask-46)" points="-4.65308176 94.956478 14.6978616 94.956478 14.6978616 -4.97207547 -4.65308176 -4.97207547"></polygon>
                </g>
                <g id="Group-72" transform="translate(124.779874, 0.000000)">
                    <mask id="mask-48" fill="white">
                        <use xlink:href="#path-47"></use>
                    </mask>
                    <g id="Clip-71"></g>
                    <polygon id="Fill-70" fill="#0C84C5" mask="url(#mask-48)" points="-4.27672956 165.395723 16.6259119 165.395723 16.6259119 -5.03144654 -4.27672956 -5.03144654"></polygon>
                </g>
                <g id="Group-75" transform="translate(140.880503, 0.000000)">
                    <mask id="mask-50" fill="white">
                        <use xlink:href="#path-49"></use>
                    </mask>
                    <g id="Clip-74"></g>
                    <polygon id="Fill-73" fill="#0C84C5" mask="url(#mask-50)" points="-4.46792453 122.241006 24.5162264 122.241006 24.5162264 -5.03144654 -4.46792453 -5.03144654"></polygon>
                </g>
                <g id="Group-78" transform="translate(150.943396, 98.616352)">
                    <mask id="mask-52" fill="white">
                        <use xlink:href="#path-51"></use>
                    </mask>
                    <g id="Clip-77"></g>
                    <polygon id="Fill-76" fill="#0C84C5" mask="url(#mask-52)" points="-4.60779874 66.7803774 14.452327 66.7803774 14.452327 -4.80402516 -4.60779874 -4.80402516"></polygon>
                </g>
                <g id="Group-81" transform="translate(146.918239, 0.000000)">
                    <mask id="mask-54" fill="white">
                        <use xlink:href="#path-53"></use>
                    </mask>
                    <g id="Clip-80"></g>
                    <polygon id="Fill-79" fill="#0C84C5" mask="url(#mask-54)" points="-4.25559748 94.7028931 18.4774843 94.7028931 18.4774843 -5.03144654 -4.25559748 -5.03144654"></polygon>
                </g>
                <g id="Group-84" transform="translate(35.220126, 133.836478)">
                    <mask id="mask-56" fill="white">
                        <use xlink:href="#path-55"></use>
                    </mask>
                    <g id="Clip-83"></g>
                    <polygon id="Fill-82" fill="#B4E0FA" mask="url(#mask-56)" points="-4.30691824 31.4314465 84.2465409 31.4314465 84.2465409 -4.79496855 -4.30691824 -4.79496855"></polygon>
                </g>
                <g id="Group-87" transform="translate(38.238994, 64.402516)">
                    <mask id="mask-58" fill="white">
                        <use xlink:href="#path-57"></use>
                    </mask>
                    <g id="Clip-86"></g>
                    <polygon id="Fill-85" fill="#F9CFCF" mask="url(#mask-58)" points="-4.62490566 73.4571069 78.5257862 73.4571069 78.5257862 -4.84830189 -4.62490566 -4.84830189"></polygon>
                </g>
                <g id="Group-90" transform="translate(61.383648, 128.805031)">
                    <mask id="mask-60" fill="white">
                        <use xlink:href="#path-59"></use>
                    </mask>
                    <g id="Clip-89"></g>
                    <polygon id="Fill-88" fill="#F9CFCF" mask="url(#mask-60)" points="-4.66314465 22.3184906 32.274717 22.3184906 32.274717 -4.42566038 -4.66314465 -4.42566038"></polygon>
                </g>
                <g id="Group-93" transform="translate(36.226415, 63.396226)">
                    <mask id="mask-62" fill="white">
                        <use xlink:href="#path-61"></use>
                    </mask>
                    <g id="Clip-92"></g>
                    <polygon id="Fill-91" fill="#00507C" mask="url(#mask-62)" points="-4.10566038 38.9081761 34.4462893 38.9081761 34.4462893 -4.41861635 -4.10566038 -4.41861635"></polygon>
                </g>
                <g id="Group-96" transform="translate(58.364780, 55.345912)">
                    <mask id="mask-64" fill="white">
                        <use xlink:href="#path-63"></use>
                    </mask>
                    <g id="Clip-95"></g>
                    <polygon id="Fill-94" fill="#00507C" mask="url(#mask-64)" points="-4.60477987 45.5979874 56.0654088 45.5979874 56.0654088 -4.14691824 -4.60477987 -4.14691824"></polygon>
                </g>
                <g id="Group-99" transform="translate(57.358491, 100.628931)">
                    <mask id="mask-66" fill="white">
                        <use xlink:href="#path-65"></use>
                    </mask>
                    <g id="Clip-98"></g>
                    <polygon id="Fill-97" fill="#00507C" mask="url(#mask-66)" points="-4.18515723 13.561761 12.2706918 13.561761 12.2706918 -4.65308176 -4.18515723 -4.65308176"></polygon>
                </g>
                <g id="Group-102" transform="translate(54.339623, 99.622642)">
                    <mask id="mask-68" fill="white">
                        <use xlink:href="#path-67"></use>
                    </mask>
                    <g id="Clip-101"></g>
                    <polygon id="Fill-100" fill="#00507C" mask="url(#mask-68)" points="-4.30792453 9.04855346 18.4322013 9.04855346 18.4322013 -4.97509434 -4.30792453 -4.97509434"></polygon>
                </g>
                <g id="Group-105" transform="translate(66.415094, 111.698113)">
                    <mask id="mask-70" fill="white">
                        <use xlink:href="#path-69"></use>
                    </mask>
                    <g id="Clip-104"></g>
                    <polygon id="Fill-103" fill="#F9A7A7" mask="url(#mask-70)" points="-4.52327044 19.6075472 22.0719497 19.6075472 22.0719497 -4.76477987 -4.52327044 -4.76477987"></polygon>
                </g>
                <g id="Group-108" transform="translate(89.559748, 101.635220)">
                    <mask id="mask-72" fill="white">
                        <use xlink:href="#path-71"></use>
                    </mask>
                    <g id="Clip-107"></g>
                    <polygon id="Fill-106" fill="#A4C9FF" mask="url(#mask-72)" points="-4.17006289 8.8281761 12.4830189 8.8281761 12.4830189 -5.00830189 -4.17006289 -5.00830189"></polygon>
                </g>
                <g id="Group-111" transform="translate(82.515723, 99.622642)">
                    <mask id="mask-74" fill="white">
                        <use xlink:href="#path-73"></use>
                    </mask>
                    <g id="Clip-110"></g>
                    <polygon id="Fill-109" fill="#00507C" mask="url(#mask-74)" points="-4.31396226 11.0420126 18.2550943 11.0420126 18.2550943 -4.86440252 -4.31396226 -4.86440252"></polygon>
                </g>
                <g id="Group-114" transform="translate(65.408805, 110.691824)">
                    <mask id="mask-76" fill="white">
                        <use xlink:href="#path-75"></use>
                    </mask>
                    <g id="Clip-113"></g>
                    <polygon id="Fill-112" fill="#00507C" mask="url(#mask-76)" points="-4.16402516 21.2608805 23.7242767 21.2608805 23.7242767 -4.40553459 -4.16402516 -4.40553459"></polygon>
                </g>
                <g id="Group-117" transform="translate(90.566038, 54.339623)">
                    <mask id="mask-78" fill="white">
                        <use xlink:href="#path-77"></use>
                    </mask>
                    <g id="Clip-116"></g>
                    <polygon id="Fill-115" fill="#B4E0FA" mask="url(#mask-78)" points="-4.69031447 40.1187421 40.3320755 40.1187421 40.3320755 -4.76477987 -4.69031447 -4.76477987"></polygon>
                </g>
                <g id="Group-120" transform="translate(97.610063, 60.377358)">
                    <mask id="mask-80" fill="white">
                        <use xlink:href="#path-79"></use>
                    </mask>
                    <g id="Clip-119"></g>
                    <polygon id="Fill-118" fill="#FFEA92" mask="url(#mask-80)" points="-4.90666667 18.7703145 16.8966038 18.7703145 16.8966038 -4.5927044 -4.90666667 -4.5927044"></polygon>
                </g>
                <g id="Group-123" transform="translate(109.685535, 67.421384)">
                    <mask id="mask-82" fill="white">
                        <use xlink:href="#path-81"></use>
                    </mask>
                    <g id="Clip-122"></g>
                    <polygon id="Fill-121" fill="#FFEA92" mask="url(#mask-82)" points="-4.35622642 15.4646541 14.3859119 15.4646541 14.3859119 -4.40251572 -4.35622642 -4.40251572"></polygon>
                </g>
                <g id="Group-126" transform="translate(89.559748, 53.333333)">
                    <mask id="mask-84" fill="white">
                        <use xlink:href="#path-83"></use>
                    </mask>
                    <g id="Clip-125"></g>
                    <polygon id="Fill-124" fill="#3762CC" mask="url(#mask-84)" points="-4.54742138 41.9864151 42.1997484 41.9864151 42.1997484 -4.62188679 -4.54742138 -4.62188679"></polygon>
                </g>
            </g>
        </g>
    </g>
</svg>